<svg width="0" height="0" class="hidden">
    <symbol xmlns="http://www.w3.org/2000/svg" viewBox="0 0 119.664 40" id="apple-dark-de">
        <path d="M110.135 0H9.535c-.367 0-.73 0-1.095.002-.306.002-.61.008-.919.013A13.215 13.215 0 005.517.19a6.665 6.665 0 00-1.9.627 6.438 6.438 0 00-1.62 1.18A6.258 6.258 0 00.82 3.617 6.601 6.601 0 00.195 5.52a12.993 12.993 0 00-.179 2.002c-.01.307-.01.615-.015.921V31.56c.005.31.006.61.015.921a12.992 12.992 0 00.18 2.002 6.588 6.588 0 00.624 1.905A6.208 6.208 0 001.998 38a6.274 6.274 0 001.618 1.179 6.7 6.7 0 001.901.63 13.455 13.455 0 002.004.177c.31.007.613.011.919.011.366.002.728.002 1.095.002h100.6c.36 0 .724 0 1.084-.002.304 0 .617-.004.922-.01a13.279 13.279 0 002-.178 6.804 6.804 0 001.908-.63A6.277 6.277 0 00117.666 38a6.395 6.395 0 001.182-1.614 6.604 6.604 0 00.619-1.905 13.506 13.506 0 00.185-2.002c.004-.31.004-.61.004-.921.008-.364.008-.725.008-1.094V9.536c0-.366 0-.73-.008-1.092 0-.306 0-.614-.004-.92a13.507 13.507 0 00-.185-2.003 6.618 6.618 0 00-.62-1.903 6.466 6.466 0 00-2.798-2.8 6.768 6.768 0 00-1.908-.627 13.044 13.044 0 00-2-.176c-.305-.005-.618-.011-.922-.013-.36-.002-.725-.002-1.084-.002z" fill="#050506"></path>
        <path d="M8.445 39.125c-.305 0-.602-.004-.904-.01a12.687 12.687 0 01-1.87-.164 5.884 5.884 0 01-1.656-.548 5.406 5.406 0 01-1.397-1.016 5.32 5.32 0 01-1.02-1.397 5.722 5.722 0 01-.544-1.657 12.414 12.414 0 01-.166-1.875c-.007-.21-.015-.913-.015-.913v-23.1s.009-.692.015-.895a12.37 12.37 0 01.165-1.872 5.755 5.755 0 01.544-1.662 5.373 5.373 0 011.015-1.398 5.565 5.565 0 011.402-1.023 5.823 5.823 0 011.653-.544A12.586 12.586 0 017.543.887l.902-.012h102.769l.913.013a12.385 12.385 0 011.858.162 5.938 5.938 0 011.671.548 5.594 5.594 0 012.415 2.42 5.763 5.763 0 01.535 1.649 12.995 12.995 0 01.174 1.887c.003.283.003.588.003.89.008.375.008.732.008 1.092v20.929c0 .363 0 .718-.008 1.075 0 .325 0 .623-.004.93a12.731 12.731 0 01-.17 1.853 5.739 5.739 0 01-.54 1.67 5.48 5.48 0 01-1.016 1.386 5.413 5.413 0 01-1.4 1.022 5.862 5.862 0 01-1.668.55 12.542 12.542 0 01-1.869.163c-.293.007-.6.011-.897.011l-1.084.002z"></path>
        <path d="M24.769 20.3a4.949 4.949 0 012.356-4.151 5.066 5.066 0 00-3.99-2.158c-1.68-.176-3.308 1.005-4.164 1.005-.872 0-2.19-.988-3.608-.958a5.315 5.315 0 00-4.473 2.728c-1.934 3.348-.491 8.269 1.361 10.976.927 1.325 2.01 2.805 3.428 2.753 1.387-.058 1.905-.885 3.58-.885 1.658 0 2.144.885 3.59.852 1.489-.025 2.426-1.332 3.32-2.67a10.962 10.962 0 001.52-3.092 4.782 4.782 0 01-2.92-4.4zm-2.732-8.09a4.872 4.872 0 001.115-3.49 4.957 4.957 0 00-3.208 1.66 4.636 4.636 0 00-1.144 3.36 4.1 4.1 0 003.237-1.53zm20.265 14.93H37.57l-1.137 3.356h-2.005l4.484-12.418h2.083l4.483 12.418h-2.039zm-4.243-1.55h3.752l-1.85-5.446h-.051zm17.101.38c0 2.813-1.506 4.62-3.779 4.62a3.07 3.07 0 01-2.848-1.583h-.043v4.484h-1.86V21.442h1.8v1.506h.033a3.212 3.212 0 012.883-1.6c2.298 0 3.813 1.816 3.813 4.622zm-1.91 0c0-1.833-.948-3.038-2.393-3.038-1.42 0-2.375 1.23-2.375 3.038 0 1.824.955 3.046 2.375 3.046 1.445 0 2.393-1.197 2.393-3.046zm11.875 0c0 2.813-1.506 4.62-3.779 4.62a3.07 3.07 0 01-2.848-1.583h-.043v4.484h-1.859V21.442h1.799v1.506h.034a3.212 3.212 0 012.883-1.6c2.298 0 3.813 1.816 3.813 4.622zm-1.91 0c0-1.833-.948-3.038-2.393-3.038-1.42 0-2.375 1.23-2.375 3.038 0 1.824.955 3.046 2.375 3.046 1.445 0 2.392-1.197 2.392-3.046zm8.495 1.066c.138 1.232 1.334 2.04 2.97 2.04 1.566 0 2.693-.808 2.693-1.919 0-.964-.68-1.54-2.29-1.936l-1.609-.388c-2.28-.55-3.339-1.617-3.339-3.348 0-2.142 1.867-3.614 4.519-3.614 2.624 0 4.423 1.472 4.483 3.614h-1.876c-.112-1.239-1.136-1.987-2.634-1.987s-2.521.757-2.521 1.858c0 .878.654 1.395 2.255 1.79l1.368.336c2.548.603 3.606 1.626 3.606 3.443 0 2.323-1.85 3.778-4.793 3.778-2.754 0-4.614-1.42-4.734-3.667zM83.346 19.3v2.142h1.722v1.472h-1.722v4.991c0 .776.345 1.137 1.102 1.137a5.808 5.808 0 00.611-.043v1.463a5.104 5.104 0 01-1.032.086c-1.833 0-2.548-.689-2.548-2.445v-5.189h-1.316v-1.472h1.316V19.3zm2.719 6.67c0-2.849 1.678-4.639 4.294-4.639 2.625 0 4.295 1.79 4.295 4.639 0 2.856-1.661 4.638-4.295 4.638-2.633 0-4.294-1.782-4.294-4.638zm6.695 0c0-1.954-.895-3.108-2.401-3.108s-2.4 1.162-2.4 3.108c0 1.962.894 3.106 2.4 3.106s2.401-1.144 2.401-3.106zm3.426-4.528h1.773v1.541h.043a2.16 2.16 0 012.177-1.635 2.866 2.866 0 01.637.069v1.738a2.598 2.598 0 00-.835-.112 1.873 1.873 0 00-1.937 2.083v5.37h-1.858zm13.198 6.395c-.25 1.643-1.85 2.771-3.898 2.771-2.634 0-4.269-1.764-4.269-4.595 0-2.84 1.644-4.682 4.19-4.682 2.506 0 4.08 1.72 4.08 4.466v.637h-6.394v.112a2.358 2.358 0 002.436 2.564 2.048 2.048 0 002.09-1.273zm-6.282-2.702h4.526a2.177 2.177 0 00-2.22-2.298 2.292 2.292 0 00-2.306 2.298zM39.393 14.698H35.67V8.73h.927v5.115h2.795zm.937-1.274c0-.81.603-1.278 1.674-1.344l1.22-.07v-.389c0-.475-.315-.744-.922-.744-.496 0-.84.182-.939.5h-.86c.09-.773.818-1.27 1.84-1.27 1.129 0 1.765.563 1.765 1.514v3.077h-.855v-.633h-.07a1.515 1.515 0 01-1.353.707 1.36 1.36 0 01-1.5-1.348zm2.894-.384v-.377l-1.1.07c-.62.042-.901.253-.901.65 0 .405.351.64.835.64a1.062 1.062 0 001.166-.983zm2.052-.596c0-1.423.732-2.324 1.87-2.324a1.484 1.484 0 011.38.79h.067V8.437h.888v6.26h-.851v-.71h-.07a1.563 1.563 0 01-1.414.785c-1.146 0-1.87-.901-1.87-2.328zm.918 0c0 .955.45 1.53 1.204 1.53.749 0 1.211-.583 1.211-1.526 0-.938-.467-1.53-1.211-1.53-.749 0-1.204.58-1.204 1.526zm8.553 1.038a1.828 1.828 0 01-1.951 1.303 2.045 2.045 0 01-2.08-2.325 2.077 2.077 0 012.076-2.352c1.253 0 2.009.856 2.009 2.27v.31h-3.18v.05a1.19 1.19 0 001.2 1.29 1.08 1.08 0 001.07-.546zm-3.126-1.451h2.275a1.086 1.086 0 00-1.109-1.167 1.152 1.152 0 00-1.166 1.167zm4.373-1.836h.856v.715h.066a1.348 1.348 0 011.344-.802 1.465 1.465 0 011.558 1.675v2.915h-.888v-2.692c0-.724-.315-1.084-.972-1.084a1.033 1.033 0 00-1.075 1.141v2.635h-.889zm7.526-1.332a.576.576 0 11.575.542.547.547 0 01-.575-.542zm.132 1.332h.885v4.503h-.885zm2.319 0h.856v.723h.066a1.364 1.364 0 012.493 0h.07a1.463 1.463 0 011.37-.81 1.338 1.338 0 011.438 1.488v3.102h-.888v-2.87c0-.608-.29-.906-.873-.906a.912.912 0 00-.95.943v2.833h-.874V11.74a.785.785 0 00-.868-.819.969.969 0 00-.951 1.022v2.754h-.889z" fill="#fff"></path>
    </symbol>
    <symbol xmlns="http://www.w3.org/2000/svg" viewBox="0 0 119.664 40" id="apple-dark-en">
        <path d="M110.135 0H9.535c-.367 0-.73 0-1.095.002-.306.002-.61.008-.919.013A13.215 13.215 0 005.517.19a6.665 6.665 0 00-1.9.627 6.438 6.438 0 00-1.62 1.18A6.258 6.258 0 00.82 3.617 6.601 6.601 0 00.195 5.52a12.993 12.993 0 00-.179 2.002c-.01.307-.01.615-.015.921V31.56c.005.31.006.61.015.921a12.992 12.992 0 00.18 2.002 6.588 6.588 0 00.624 1.905A6.208 6.208 0 001.998 38a6.274 6.274 0 001.618 1.179 6.7 6.7 0 001.901.63 13.455 13.455 0 002.004.177c.31.007.613.011.919.011.366.002.728.002 1.095.002h100.6c.36 0 .724 0 1.084-.002.304 0 .617-.004.922-.01a13.279 13.279 0 002-.178 6.804 6.804 0 001.908-.63A6.277 6.277 0 00117.666 38a6.395 6.395 0 001.182-1.614 6.604 6.604 0 00.619-1.905 13.506 13.506 0 00.185-2.002c.004-.31.004-.61.004-.921.008-.364.008-.725.008-1.094V9.536c0-.366 0-.73-.008-1.092 0-.306 0-.614-.004-.92a13.507 13.507 0 00-.185-2.003 6.618 6.618 0 00-.62-1.903 6.466 6.466 0 00-2.798-2.8 6.768 6.768 0 00-1.908-.627 13.044 13.044 0 00-2-.176c-.305-.005-.618-.011-.922-.013-.36-.002-.725-.002-1.084-.002z" fill="#050506"></path>
        <path d="M8.445 39.125c-.305 0-.602-.004-.904-.01a12.687 12.687 0 01-1.87-.164 5.884 5.884 0 01-1.656-.548 5.406 5.406 0 01-1.397-1.016 5.32 5.32 0 01-1.02-1.397 5.722 5.722 0 01-.544-1.657 12.414 12.414 0 01-.166-1.875c-.007-.21-.015-.913-.015-.913v-23.1s.009-.692.015-.895a12.37 12.37 0 01.165-1.872 5.755 5.755 0 01.544-1.662 5.373 5.373 0 011.015-1.398 5.565 5.565 0 011.402-1.023 5.823 5.823 0 011.653-.544A12.586 12.586 0 017.543.887l.902-.012h102.769l.913.013a12.385 12.385 0 011.858.162 5.938 5.938 0 011.671.548 5.594 5.594 0 012.415 2.42 5.763 5.763 0 01.535 1.649 12.995 12.995 0 01.174 1.887c.003.283.003.588.003.89.008.375.008.732.008 1.092v20.929c0 .363 0 .718-.008 1.075 0 .325 0 .623-.004.93a12.731 12.731 0 01-.17 1.853 5.739 5.739 0 01-.54 1.67 5.48 5.48 0 01-1.016 1.386 5.413 5.413 0 01-1.4 1.022 5.862 5.862 0 01-1.668.55 12.542 12.542 0 01-1.869.163c-.293.007-.6.011-.897.011l-1.084.002z"></path>
        <path d="M24.769 20.3a4.949 4.949 0 012.356-4.151 5.066 5.066 0 00-3.99-2.158c-1.68-.176-3.308 1.005-4.164 1.005-.872 0-2.19-.988-3.608-.958a5.315 5.315 0 00-4.473 2.728c-1.934 3.348-.491 8.269 1.361 10.976.927 1.325 2.01 2.805 3.428 2.753 1.387-.058 1.905-.885 3.58-.885 1.658 0 2.144.885 3.59.852 1.489-.025 2.426-1.332 3.32-2.67a10.962 10.962 0 001.52-3.092 4.782 4.782 0 01-2.92-4.4zm-2.732-8.09a4.872 4.872 0 001.115-3.49 4.957 4.957 0 00-3.208 1.66 4.636 4.636 0 00-1.144 3.36 4.1 4.1 0 003.237-1.53zm20.265 14.93H37.57l-1.137 3.356h-2.005l4.484-12.418h2.083l4.483 12.418h-2.039zm-4.243-1.55h3.752l-1.85-5.446h-.051zm17.101.38c0 2.813-1.506 4.62-3.779 4.62a3.07 3.07 0 01-2.848-1.583h-.043v4.484h-1.86V21.442h1.8v1.506h.033a3.212 3.212 0 012.883-1.6c2.298 0 3.813 1.816 3.813 4.622zm-1.91 0c0-1.833-.948-3.038-2.393-3.038-1.42 0-2.375 1.23-2.375 3.038 0 1.824.955 3.046 2.375 3.046 1.445 0 2.393-1.197 2.393-3.046zm11.875 0c0 2.813-1.506 4.62-3.779 4.62a3.07 3.07 0 01-2.848-1.583h-.043v4.484h-1.859V21.442h1.799v1.506h.034a3.212 3.212 0 012.883-1.6c2.298 0 3.813 1.816 3.813 4.622zm-1.91 0c0-1.833-.948-3.038-2.393-3.038-1.42 0-2.375 1.23-2.375 3.038 0 1.824.955 3.046 2.375 3.046 1.445 0 2.392-1.197 2.392-3.046zm8.495 1.066c.138 1.232 1.334 2.04 2.97 2.04 1.566 0 2.693-.808 2.693-1.919 0-.964-.68-1.54-2.29-1.936l-1.609-.388c-2.28-.55-3.339-1.617-3.339-3.348 0-2.142 1.867-3.614 4.519-3.614 2.624 0 4.423 1.472 4.483 3.614h-1.876c-.112-1.239-1.136-1.987-2.634-1.987s-2.521.757-2.521 1.858c0 .878.654 1.395 2.255 1.79l1.368.336c2.548.603 3.606 1.626 3.606 3.443 0 2.323-1.85 3.778-4.793 3.778-2.754 0-4.614-1.42-4.734-3.667zM83.346 19.3v2.142h1.722v1.472h-1.722v4.991c0 .776.345 1.137 1.102 1.137a5.808 5.808 0 00.611-.043v1.463a5.104 5.104 0 01-1.032.086c-1.833 0-2.548-.689-2.548-2.445v-5.189h-1.316v-1.472h1.316V19.3zm2.719 6.67c0-2.849 1.678-4.639 4.294-4.639 2.625 0 4.295 1.79 4.295 4.639 0 2.856-1.661 4.638-4.295 4.638-2.633 0-4.294-1.782-4.294-4.638zm6.695 0c0-1.954-.895-3.108-2.401-3.108s-2.4 1.162-2.4 3.108c0 1.962.894 3.106 2.4 3.106s2.401-1.144 2.401-3.106zm3.426-4.528h1.773v1.541h.043a2.16 2.16 0 012.177-1.635 2.866 2.866 0 01.637.069v1.738a2.598 2.598 0 00-.835-.112 1.873 1.873 0 00-1.937 2.083v5.37h-1.858zm13.198 6.395c-.25 1.643-1.85 2.771-3.898 2.771-2.634 0-4.269-1.764-4.269-4.595 0-2.84 1.644-4.682 4.19-4.682 2.506 0 4.08 1.72 4.08 4.466v.637h-6.394v.112a2.358 2.358 0 002.436 2.564 2.048 2.048 0 002.09-1.273zm-6.282-2.702h4.526a2.177 2.177 0 00-2.22-2.298 2.292 2.292 0 00-2.306 2.298zM37.826 8.731a2.64 2.64 0 012.808 2.965c0 1.906-1.03 3.002-2.808 3.002h-2.155V8.73zm-1.228 5.123h1.125a1.876 1.876 0 001.967-2.146 1.881 1.881 0 00-1.967-2.134h-1.125zm5.082-1.41a2.133 2.133 0 114.248 0 2.134 2.134 0 11-4.247 0zm3.334 0c0-.976-.439-1.547-1.208-1.547-.773 0-1.207.571-1.207 1.547 0 .984.434 1.55 1.207 1.55.77 0 1.208-.57 1.208-1.55zm6.559 2.254h-.922l-.93-3.317h-.07l-.927 3.317h-.913l-1.242-4.503h.902l.806 3.436h.067l.926-3.436h.852l.926 3.436h.07l.803-3.436h.889zm2.281-4.503h.855v.715h.066a1.348 1.348 0 011.344-.802 1.465 1.465 0 011.559 1.675v2.915h-.889v-2.692c0-.724-.314-1.084-.972-1.084a1.033 1.033 0 00-1.075 1.141v2.635h-.888zm5.24-1.758h.888v6.26h-.888zm2.124 4.007a2.133 2.133 0 114.247 0 2.134 2.134 0 11-4.247 0zm3.333 0c0-.976-.439-1.547-1.208-1.547-.773 0-1.207.571-1.207 1.547 0 .984.434 1.55 1.207 1.55.77 0 1.208-.57 1.208-1.55zm1.849.98c0-.81.604-1.278 1.676-1.344l1.22-.07v-.389c0-.475-.315-.744-.922-.744-.497 0-.84.182-.939.5h-.86c.09-.773.818-1.27 1.84-1.27 1.128 0 1.765.563 1.765 1.514v3.077h-.855v-.633h-.07a1.515 1.515 0 01-1.353.707 1.36 1.36 0 01-1.501-1.348zm2.895-.384v-.377l-1.1.07c-.62.042-.9.253-.9.65 0 .405.351.64.834.64a1.062 1.062 0 001.166-.983zm2.053-.596c0-1.423.732-2.324 1.87-2.324a1.484 1.484 0 011.38.79h.067V8.437h.888v6.26h-.851v-.71h-.07a1.563 1.563 0 01-1.415.785c-1.145 0-1.869-.901-1.869-2.328zm.918 0c0 .955.45 1.53 1.203 1.53.75 0 1.212-.583 1.212-1.526 0-.938-.468-1.53-1.212-1.53-.748 0-1.203.58-1.203 1.526zm6.964 0a2.133 2.133 0 114.247 0 2.134 2.134 0 11-4.247 0zm3.333 0c0-.976-.438-1.547-1.208-1.547-.772 0-1.207.571-1.207 1.547 0 .984.435 1.55 1.207 1.55.77 0 1.208-.57 1.208-1.55zm2.107-2.249h.855v.715h.066a1.348 1.348 0 011.344-.802 1.465 1.465 0 011.559 1.675v2.915h-.889v-2.692c0-.724-.314-1.084-.972-1.084a1.033 1.033 0 00-1.075 1.141v2.635h-.889zm8.845-1.121v1.141h.976v.749h-.976v2.315c0 .472.194.679.637.679a2.967 2.967 0 00.339-.021v.74a2.916 2.916 0 01-.484.046c-.988 0-1.381-.348-1.381-1.216v-2.543h-.715v-.749h.715V9.074zm2.19-.637h.88v2.481h.07a1.386 1.386 0 011.374-.806 1.483 1.483 0 011.55 1.679v2.907h-.889V12.01c0-.72-.335-1.084-.963-1.084a1.052 1.052 0 00-1.134 1.142v2.63h-.888zm9.056 5.045a1.828 1.828 0 01-1.95 1.303 2.045 2.045 0 01-2.081-2.325 2.077 2.077 0 012.076-2.352c1.253 0 2.009.856 2.009 2.27v.31h-3.18v.05a1.19 1.19 0 001.2 1.29 1.08 1.08 0 001.07-.546zm-3.126-1.451h2.275a1.086 1.086 0 00-1.109-1.167 1.152 1.152 0 00-1.166 1.167z" fill="#fff"></path>
    </symbol>
    <symbol xmlns="http://www.w3.org/2000/svg" viewBox="0 0 126.508 40" id="apple-dark-fr">
        <path d="M116.978 0H9.535c-.367 0-.73 0-1.095.002-.306.002-.61.008-.919.013A13.215 13.215 0 005.517.19a6.665 6.665 0 00-1.9.627 6.438 6.438 0 00-1.62 1.18A6.258 6.258 0 00.82 3.617 6.601 6.601 0 00.195 5.52a12.993 12.993 0 00-.179 2.002c-.01.307-.01.615-.015.921V31.56c.005.31.006.61.015.921a12.992 12.992 0 00.18 2.002 6.588 6.588 0 00.624 1.905A6.208 6.208 0 001.998 38a6.274 6.274 0 001.618 1.179 6.7 6.7 0 001.901.63 13.455 13.455 0 002.004.177c.31.007.613.011.919.011.366.002.728.002 1.095.002h107.443c.36 0 .725 0 1.084-.002.305 0 .617-.004.922-.01a13.279 13.279 0 002-.178 6.804 6.804 0 001.908-.63A6.277 6.277 0 00124.51 38a6.395 6.395 0 001.181-1.614 6.604 6.604 0 00.62-1.905 13.506 13.506 0 00.185-2.002c.004-.31.004-.61.004-.921.008-.364.008-.725.008-1.094V9.536c0-.366 0-.73-.008-1.092 0-.306 0-.614-.004-.92a13.507 13.507 0 00-.186-2.003 6.618 6.618 0 00-.619-1.903 6.466 6.466 0 00-2.799-2.8 6.768 6.768 0 00-1.908-.627 13.044 13.044 0 00-2-.176c-.305-.005-.617-.011-.922-.013-.36-.002-.724-.002-1.084-.002z" fill="#050506"></path>
        <path d="M8.445 39.125c-.305 0-.602-.004-.904-.01a12.687 12.687 0 01-1.87-.164 5.884 5.884 0 01-1.656-.548 5.406 5.406 0 01-1.397-1.016 5.32 5.32 0 01-1.02-1.397 5.722 5.722 0 01-.544-1.657 12.414 12.414 0 01-.166-1.875c-.007-.21-.015-.913-.015-.913v-23.1s.009-.692.015-.895a12.371 12.371 0 01.165-1.872 5.756 5.756 0 01.544-1.662 5.374 5.374 0 011.015-1.398 5.566 5.566 0 011.402-1.023 5.823 5.823 0 011.653-.544A12.586 12.586 0 017.543.887l.902-.012h109.612l.913.013a12.385 12.385 0 011.859.162 5.938 5.938 0 011.67.548 5.594 5.594 0 012.416 2.42 5.763 5.763 0 01.535 1.649 12.995 12.995 0 01.174 1.887c.003.283.003.588.003.89.008.375.008.732.008 1.092v20.929c0 .363 0 .718-.008 1.075 0 .325 0 .623-.004.93a12.731 12.731 0 01-.171 1.853 5.739 5.739 0 01-.54 1.67 5.48 5.48 0 01-1.016 1.386 5.413 5.413 0 01-1.4 1.022 5.862 5.862 0 01-1.667.55 12.542 12.542 0 01-1.87.163c-.292.007-.599.011-.897.011l-1.084.002z"></path>
        <path d="M24.772 20.3a4.949 4.949 0 012.356-4.151 5.066 5.066 0 00-3.99-2.158c-1.68-.176-3.308 1.005-4.164 1.005-.872 0-2.19-.988-3.608-.958a5.315 5.315 0 00-4.473 2.728c-1.934 3.348-.492 8.269 1.361 10.976.927 1.325 2.01 2.805 3.428 2.753 1.387-.058 1.905-.885 3.58-.885 1.658 0 2.144.885 3.59.852 1.488-.025 2.426-1.332 3.32-2.67a10.962 10.962 0 001.519-3.092 4.782 4.782 0 01-2.92-4.4zm-2.732-8.09a4.872 4.872 0 001.115-3.49 4.957 4.957 0 00-3.208 1.66 4.636 4.636 0 00-1.144 3.361 4.1 4.1 0 003.237-1.53zm13.615 2.492V9.578h-1.877v-.843h4.677v.843h-1.873v5.124zm7.11-1.216a1.828 1.828 0 01-1.952 1.303 2.045 2.045 0 01-2.08-2.325 2.077 2.077 0 012.077-2.352c1.253 0 2.008.856 2.008 2.27v.31h-3.18v.05a1.19 1.19 0 001.2 1.29 1.08 1.08 0 001.071-.546zm-3.126-1.451h2.274a1.086 1.086 0 00-1.108-1.167 1.152 1.152 0 00-1.166 1.167zm.636-2.59l1.038-1.422h1.042l-1.162 1.423zm3.778-1.005h.888v6.262h-.888zm6.155 5.046a1.828 1.828 0 01-1.951 1.303 2.045 2.045 0 01-2.08-2.325 2.077 2.077 0 012.076-2.352c1.253 0 2.009.856 2.009 2.27v.31h-3.18v.05a1.19 1.19 0 001.2 1.29 1.08 1.08 0 001.07-.546zm-3.126-1.451h2.274a1.086 1.086 0 00-1.108-1.167 1.152 1.152 0 00-1.166 1.167zm.637-2.59l1.038-1.422h1.042l-1.162 1.423zm6.684 2.225a1.005 1.005 0 00-1.063-.764c-.744 0-1.2.57-1.2 1.53 0 .976.46 1.559 1.2 1.559a.979.979 0 001.063-.74h.865a1.762 1.762 0 01-1.923 1.534 2.068 2.068 0 01-2.114-2.353 2.053 2.053 0 012.109-2.324 1.777 1.777 0 011.928 1.558zm2.044-3.23h.881v2.482h.07a1.386 1.386 0 011.373-.806 1.483 1.483 0 011.551 1.678v2.908h-.89v-2.688c0-.72-.334-1.084-.962-1.084a1.052 1.052 0 00-1.134 1.142v2.63h-.889zm4.993 4.988c0-.81.603-1.278 1.674-1.344l1.22-.07v-.389c0-.476-.314-.744-.922-.744-.496 0-.84.182-.938.5h-.86c.09-.773.818-1.27 1.84-1.27 1.128 0 1.764.563 1.764 1.514v3.077h-.855v-.633h-.07a1.515 1.515 0 01-1.353.707 1.36 1.36 0 01-1.5-1.348zm2.894-.385v-.376l-1.1.07c-.62.042-.901.253-.901.65 0 .405.352.64.835.64a1.062 1.062 0 001.166-.984zm2.276-2.844h.855v.69h.067a1.22 1.22 0 011.216-.765 1.868 1.868 0 01.396.037v.877a2.434 2.434 0 00-.496-.054 1.055 1.055 0 00-1.15 1.059v2.659h-.888zm3.351 4.953h.91c.075.327.45.538 1.05.538.74 0 1.18-.352 1.18-.947v-.864h-.067a1.514 1.514 0 01-1.39.756c-1.15 0-1.86-.888-1.86-2.237 0-1.373.718-2.274 1.869-2.274a1.56 1.56 0 011.414.794h.07v-.72h.852v4.54c0 1.03-.807 1.684-2.08 1.684-1.125 0-1.853-.505-1.948-1.27zm3.156-2.758c0-.897-.464-1.472-1.221-1.472-.765 0-1.194.575-1.194 1.472 0 .898.43 1.472 1.194 1.472.762 0 1.22-.57 1.22-1.472zm6.095 1.092a1.828 1.828 0 01-1.95 1.303 2.045 2.045 0 01-2.08-2.325 2.077 2.077 0 012.075-2.352c1.253 0 2.01.856 2.01 2.27v.31h-3.18v.05a1.19 1.19 0 001.199 1.29 1.08 1.08 0 001.07-.546zm-3.126-1.451h2.275a1.086 1.086 0 00-1.109-1.167 1.152 1.152 0 00-1.166 1.167zm4.374-1.836h.855v.69h.066a1.22 1.22 0 011.216-.765 1.868 1.868 0 01.397.037v.877a2.434 2.434 0 00-.496-.054 1.055 1.055 0 00-1.15 1.059v2.659h-.889zm5.736 2.249c0-1.423.731-2.324 1.869-2.324a1.484 1.484 0 011.38.79h.067V8.441h.889v6.26h-.852v-.71h-.07a1.563 1.563 0 01-1.414.785c-1.146 0-1.87-.901-1.87-2.328zm.918 0c0 .955.45 1.53 1.203 1.53.749 0 1.212-.583 1.212-1.526 0-.938-.468-1.53-1.212-1.53-.748 0-1.203.579-1.203 1.526zm4.488.98c0-.81.604-1.278 1.675-1.344l1.22-.07v-.389c0-.476-.315-.744-.922-.744-.496 0-.84.182-.939.5h-.86c.09-.773.818-1.27 1.84-1.27 1.129 0 1.765.563 1.765 1.514v3.077h-.855v-.633h-.07a1.515 1.515 0 01-1.353.707 1.36 1.36 0 01-1.5-1.348zm2.895-.385v-.376l-1.1.07c-.62.042-.901.253-.901.65 0 .405.351.64.835.64a1.062 1.062 0 001.166-.984zm2.276-2.844h.855v.715h.067a1.348 1.348 0 011.344-.802 1.465 1.465 0 011.558 1.675v2.915h-.888V12.01c0-.724-.315-1.084-.972-1.084a1.033 1.033 0 00-1.075 1.141v2.635h-.889zm6.845-.087c1.012 0 1.674.471 1.761 1.265h-.852c-.082-.33-.405-.542-.91-.542-.495 0-.872.236-.872.587 0 .27.227.439.716.55l.748.174c.856.199 1.257.567 1.257 1.229 0 .847-.79 1.414-1.865 1.414-1.071 0-1.77-.484-1.849-1.282h.89a.914.914 0 00.98.562c.553 0 .947-.248.947-.608 0-.269-.211-.442-.662-.55l-.785-.182c-.857-.203-1.253-.587-1.253-1.257 0-.798.731-1.36 1.749-1.36zm-68.42 7.955h1.86v12.418h-1.86zm4.1 4.543l1.015-4.543h1.807l-1.23 4.544zm9.848 4.519h-4.733l-1.137 3.356h-2.005l4.484-12.418h2.083l4.483 12.418h-2.039zm-4.243-1.549h3.752l-1.85-5.448h-.051zm17.1.379c0 2.813-1.506 4.621-3.778 4.621a3.07 3.07 0 01-2.849-1.584h-.043v4.484h-1.858V21.431h1.798v1.506h.035a3.212 3.212 0 012.882-1.6c2.298 0 3.813 1.816 3.813 4.622zm-1.91 0c0-1.833-.947-3.039-2.393-3.039-1.42 0-2.375 1.23-2.375 3.039 0 1.824.955 3.046 2.375 3.046 1.446 0 2.393-1.196 2.393-3.046zm11.874 0c0 2.813-1.506 4.621-3.778 4.621a3.07 3.07 0 01-2.849-1.584h-.043v4.484H63.44V21.431h1.799v1.506h.034a3.212 3.212 0 012.883-1.6c2.298 0 3.812 1.816 3.812 4.622zm-1.91 0c0-1.833-.947-3.039-2.392-3.039-1.42 0-2.375 1.23-2.375 3.039 0 1.824.955 3.046 2.375 3.046 1.445 0 2.392-1.196 2.392-3.046zm8.496 1.066c.138 1.232 1.334 2.04 2.969 2.04 1.566 0 2.693-.808 2.693-1.919 0-.963-.68-1.54-2.289-1.936l-1.61-.388c-2.28-.551-3.338-1.617-3.338-3.348 0-2.142 1.867-3.614 4.519-3.614 2.624 0 4.422 1.472 4.483 3.614h-1.876c-.112-1.24-1.137-1.987-2.634-1.987s-2.521.757-2.521 1.858c0 .878.654 1.395 2.255 1.79l1.368.336c2.548.603 3.606 1.627 3.606 3.443 0 2.323-1.85 3.778-4.794 3.778-2.754 0-4.613-1.42-4.733-3.667zm11.637-7.736v2.142h1.722v1.472H90.19v4.992c0 .775.345 1.136 1.102 1.136a5.808 5.808 0 00.61-.043v1.463a5.104 5.104 0 01-1.031.086c-1.833 0-2.548-.688-2.548-2.444v-5.19h-1.317V21.43h1.317v-2.14zm2.718 6.67c0-2.85 1.677-4.64 4.294-4.64 2.625 0 4.295 1.79 4.295 4.64 0 2.856-1.662 4.639-4.295 4.639s-4.294-1.783-4.294-4.639zm6.695 0c0-1.955-.895-3.108-2.401-3.108s-2.4 1.162-2.4 3.108c0 1.962.894 3.106 2.4 3.106s2.401-1.144 2.401-3.106zm3.426-4.528h1.772v1.541h.043a2.16 2.16 0 012.178-1.636 2.866 2.866 0 01.637.07v1.738a2.598 2.598 0 00-.835-.112 1.873 1.873 0 00-1.937 2.083v5.37h-1.858zm13.197 6.395c-.25 1.644-1.85 2.772-3.898 2.772-2.634 0-4.269-1.765-4.269-4.596 0-2.84 1.644-4.682 4.19-4.682 2.505 0 4.08 1.72 4.08 4.466v.637h-6.394v.112a2.358 2.358 0 002.436 2.565 2.048 2.048 0 002.09-1.274zm-6.282-2.702h4.526a2.177 2.177 0 00-2.22-2.298 2.292 2.292 0 00-2.306 2.298z" fill="#fff"></path>
    </symbol>
    <symbol xmlns="http://www.w3.org/2000/svg" viewBox="0 0 119.664 40" id="apple-dark-it">
        <path d="M110.135 0H9.535c-.367 0-.73 0-1.095.002-.306.002-.61.008-.919.013A13.215 13.215 0 005.517.19a6.665 6.665 0 00-1.9.627 6.438 6.438 0 00-1.62 1.18A6.258 6.258 0 00.82 3.617 6.601 6.601 0 00.195 5.52a12.993 12.993 0 00-.179 2.002c-.01.307-.01.615-.015.921V31.56c.005.31.006.61.015.921a12.992 12.992 0 00.18 2.002 6.588 6.588 0 00.624 1.905A6.208 6.208 0 001.998 38a6.274 6.274 0 001.618 1.179 6.7 6.7 0 001.901.63 13.455 13.455 0 002.004.177c.31.007.613.011.919.011.366.002.728.002 1.095.002h100.6c.36 0 .724 0 1.084-.002.304 0 .617-.004.922-.01a13.279 13.279 0 002-.178 6.804 6.804 0 001.908-.63A6.277 6.277 0 00117.666 38a6.395 6.395 0 001.182-1.614 6.604 6.604 0 00.619-1.905 13.506 13.506 0 00.185-2.002c.004-.31.004-.61.004-.921.008-.364.008-.725.008-1.094V9.536c0-.366 0-.73-.008-1.092 0-.306 0-.614-.004-.92a13.507 13.507 0 00-.185-2.003 6.618 6.618 0 00-.62-1.903 6.466 6.466 0 00-2.798-2.8 6.768 6.768 0 00-1.908-.627 13.044 13.044 0 00-2-.176c-.305-.005-.618-.011-.922-.013-.36-.002-.725-.002-1.084-.002z" fill="#050506"></path>
        <path d="M8.445 39.125c-.305 0-.602-.004-.904-.01a12.687 12.687 0 01-1.87-.164 5.884 5.884 0 01-1.656-.548 5.406 5.406 0 01-1.397-1.016 5.32 5.32 0 01-1.02-1.397 5.722 5.722 0 01-.544-1.657 12.414 12.414 0 01-.166-1.875c-.007-.21-.015-.913-.015-.913v-23.1s.009-.692.015-.895a12.37 12.37 0 01.165-1.872 5.755 5.755 0 01.544-1.662 5.373 5.373 0 011.015-1.398 5.565 5.565 0 011.402-1.023 5.823 5.823 0 011.653-.544A12.586 12.586 0 017.543.887l.902-.012h102.769l.913.013a12.385 12.385 0 011.858.162 5.938 5.938 0 011.671.548 5.594 5.594 0 012.415 2.42 5.763 5.763 0 01.535 1.649 12.995 12.995 0 01.174 1.887c.003.283.003.588.003.89.008.375.008.732.008 1.092v20.929c0 .363 0 .718-.008 1.075 0 .325 0 .623-.004.93a12.731 12.731 0 01-.17 1.853 5.739 5.739 0 01-.54 1.67 5.48 5.48 0 01-1.016 1.386 5.413 5.413 0 01-1.4 1.022 5.862 5.862 0 01-1.668.55 12.542 12.542 0 01-1.869.163c-.293.007-.6.011-.897.011l-1.084.002z"></path>
        <path d="M24.769 20.3a4.949 4.949 0 012.356-4.151 5.066 5.066 0 00-3.99-2.158c-1.68-.176-3.308 1.005-4.164 1.005-.872 0-2.19-.988-3.608-.958a5.315 5.315 0 00-4.473 2.728c-1.934 3.348-.491 8.269 1.361 10.976.927 1.325 2.01 2.805 3.428 2.753 1.387-.058 1.905-.885 3.58-.885 1.658 0 2.144.885 3.59.852 1.489-.025 2.426-1.332 3.32-2.67a10.962 10.962 0 001.52-3.092 4.782 4.782 0 01-2.92-4.4zm-2.732-8.09a4.872 4.872 0 001.115-3.49 4.957 4.957 0 00-3.208 1.66 4.636 4.636 0 00-1.144 3.36 4.1 4.1 0 003.237-1.53zm20.265 14.93H37.57l-1.137 3.356h-2.005l4.484-12.418h2.083l4.483 12.418h-2.039zm-4.243-1.55h3.752l-1.85-5.446h-.051zm17.101.38c0 2.813-1.506 4.62-3.779 4.62a3.07 3.07 0 01-2.848-1.583h-.043v4.484h-1.86V21.442h1.8v1.506h.033a3.212 3.212 0 012.883-1.6c2.298 0 3.813 1.816 3.813 4.622zm-1.91 0c0-1.833-.948-3.038-2.393-3.038-1.42 0-2.375 1.23-2.375 3.038 0 1.824.955 3.046 2.375 3.046 1.445 0 2.393-1.197 2.393-3.046zm11.875 0c0 2.813-1.506 4.62-3.779 4.62a3.07 3.07 0 01-2.848-1.583h-.043v4.484h-1.859V21.442h1.799v1.506h.034a3.212 3.212 0 012.883-1.6c2.298 0 3.813 1.816 3.813 4.622zm-1.91 0c0-1.833-.948-3.038-2.393-3.038-1.42 0-2.375 1.23-2.375 3.038 0 1.824.955 3.046 2.375 3.046 1.445 0 2.392-1.197 2.392-3.046zm8.495 1.066c.138 1.232 1.334 2.04 2.97 2.04 1.566 0 2.693-.808 2.693-1.919 0-.964-.68-1.54-2.29-1.936l-1.609-.388c-2.28-.55-3.339-1.617-3.339-3.348 0-2.142 1.867-3.614 4.519-3.614 2.624 0 4.423 1.472 4.483 3.614h-1.876c-.112-1.239-1.136-1.987-2.634-1.987s-2.521.757-2.521 1.858c0 .878.654 1.395 2.255 1.79l1.368.336c2.548.603 3.606 1.626 3.606 3.443 0 2.323-1.85 3.778-4.793 3.778-2.754 0-4.614-1.42-4.734-3.667zM83.346 19.3v2.142h1.722v1.472h-1.722v4.991c0 .776.345 1.137 1.102 1.137a5.808 5.808 0 00.611-.043v1.463a5.104 5.104 0 01-1.032.086c-1.833 0-2.548-.689-2.548-2.445v-5.189h-1.316v-1.472h1.316V19.3zm2.719 6.67c0-2.849 1.678-4.639 4.294-4.639 2.625 0 4.295 1.79 4.295 4.639 0 2.856-1.661 4.638-4.295 4.638-2.633 0-4.294-1.782-4.294-4.638zm6.695 0c0-1.954-.895-3.108-2.401-3.108s-2.4 1.162-2.4 3.108c0 1.962.894 3.106 2.4 3.106s2.401-1.144 2.401-3.106zm3.426-4.528h1.773v1.541h.043a2.16 2.16 0 012.177-1.635 2.866 2.866 0 01.637.069v1.738a2.598 2.598 0 00-.835-.112 1.873 1.873 0 00-1.937 2.083v5.37h-1.858zm13.198 6.395c-.25 1.643-1.85 2.771-3.898 2.771-2.634 0-4.269-1.764-4.269-4.595 0-2.84 1.644-4.682 4.19-4.682 2.506 0 4.08 1.72 4.08 4.466v.637h-6.394v.112a2.358 2.358 0 002.436 2.564 2.048 2.048 0 002.09-1.273zm-6.282-2.702h4.526a2.177 2.177 0 00-2.22-2.298 2.292 2.292 0 00-2.306 2.298zM36.309 13.093c.078.567.631.927 1.43.927.744 0 1.29-.385 1.29-.914 0-.455-.347-.728-1.137-.914l-.769-.186c-1.08-.253-1.571-.774-1.571-1.65 0-1.063.868-1.77 2.17-1.77a1.947 1.947 0 012.151 1.712h-.902a1.139 1.139 0 00-1.261-.893c-.732 0-1.22.351-1.22.889 0 .426.315.67 1.092.852l.657.161c1.224.285 1.729.781 1.729 1.679 0 1.14-.885 1.856-2.299 1.856-1.323 0-2.213-.682-2.28-1.749zm7.845-1.427a1.005 1.005 0 00-1.063-.764c-.744 0-1.2.57-1.2 1.53 0 .976.46 1.559 1.2 1.559a.979.979 0 001.063-.74h.865a1.762 1.762 0 01-1.923 1.534 2.068 2.068 0 01-2.114-2.353 2.053 2.053 0 012.109-2.324 1.777 1.777 0 011.928 1.559zm1.746 1.758c0-.81.604-1.278 1.675-1.344l1.22-.07v-.389c0-.475-.315-.744-.922-.744-.496 0-.84.182-.938.5h-.86c.09-.773.818-1.27 1.84-1.27 1.128 0 1.765.563 1.765 1.514v3.077h-.856v-.633h-.07a1.515 1.515 0 01-1.353.707 1.36 1.36 0 01-1.5-1.348zm2.895-.384v-.377l-1.1.07c-.62.042-.901.253-.901.65 0 .405.352.64.835.64a1.062 1.062 0 001.166-.983zm2.276-2.845h.856v.69h.066a1.22 1.22 0 011.216-.765 1.868 1.868 0 01.396.037v.877a2.434 2.434 0 00-.496-.053 1.055 1.055 0 00-1.149 1.058v2.659h-.889zm3.467-1.332a.576.576 0 11.575.542.547.547 0 01-.575-.542zm.132 1.332h.886v4.503h-.886zm5.268 1.471a1.005 1.005 0 00-1.064-.764c-.744 0-1.2.57-1.2 1.53 0 .976.46 1.559 1.2 1.559a.979.979 0 001.064-.74h.864a1.762 1.762 0 01-1.923 1.534 2.068 2.068 0 01-2.113-2.353 2.053 2.053 0 012.108-2.324 1.777 1.777 0 011.928 1.559zm1.746 1.758c0-.81.603-1.278 1.674-1.344l1.22-.07v-.389c0-.475-.314-.744-.922-.744-.496 0-.84.182-.938.5h-.86c.09-.773.818-1.27 1.84-1.27 1.128 0 1.765.563 1.765 1.514v3.077h-.856v-.633h-.07a1.515 1.515 0 01-1.352.707 1.36 1.36 0 01-1.501-1.348zm2.894-.384v-.377l-1.1.07c-.62.042-.9.253-.9.65 0 .405.35.64.834.64a1.062 1.062 0 001.166-.983zm6.365-2.932c1.013 0 1.675.471 1.762 1.265h-.853c-.082-.33-.405-.541-.91-.541-.495 0-.872.235-.872.586 0 .27.227.439.716.55l.748.174c.856.199 1.258.567 1.258 1.229 0 .847-.79 1.414-1.866 1.414-1.071 0-1.77-.484-1.848-1.282h.89a.914.914 0 00.979.562c.554 0 .947-.248.947-.608 0-.269-.21-.442-.662-.55l-.785-.182c-.857-.203-1.253-.587-1.253-1.257 0-.798.731-1.36 1.749-1.36zm6.842 4.59h-.857v-.716h-.07a1.35 1.35 0 01-1.36.803 1.462 1.462 0 01-1.551-1.667v-2.923h.89v2.692c0 .727.292 1.075.946 1.075a1.022 1.022 0 001.112-1.133v-2.634h.89z" fill="#fff"></path>
    </symbol>
    <symbol xmlns="http://www.w3.org/2000/svg" viewBox="0 0 119.664 40" id="apple-light-de">
        <path d="M110.135 0H9.535c-.367 0-.73 0-1.095.002-.306.002-.61.008-.919.013A13.215 13.215 0 005.517.19a6.665 6.665 0 00-1.9.627 6.438 6.438 0 00-1.62 1.18A6.258 6.258 0 00.82 3.617 6.601 6.601 0 00.195 5.52a12.993 12.993 0 00-.179 2.002c-.01.307-.01.615-.015.921V31.56c.005.31.006.61.015.921a12.992 12.992 0 00.18 2.002 6.588 6.588 0 00.624 1.905A6.208 6.208 0 001.998 38a6.274 6.274 0 001.618 1.179 6.7 6.7 0 001.901.63 13.455 13.455 0 002.004.177c.31.007.613.011.919.011.366.002.728.002 1.095.002h100.6c.36 0 .724 0 1.084-.002.304 0 .617-.004.922-.01a13.279 13.279 0 002-.178 6.804 6.804 0 001.908-.63A6.277 6.277 0 00117.666 38a6.395 6.395 0 001.182-1.614 6.604 6.604 0 00.619-1.905 13.506 13.506 0 00.185-2.002c.004-.31.004-.61.004-.921.008-.364.008-.725.008-1.094V9.536c0-.366 0-.73-.008-1.092 0-.306 0-.614-.004-.92a13.507 13.507 0 00-.185-2.003 6.618 6.618 0 00-.62-1.903 6.466 6.466 0 00-2.798-2.8 6.768 6.768 0 00-1.908-.627 13.044 13.044 0 00-2-.176c-.305-.005-.618-.011-.922-.013-.36-.002-.725-.002-1.084-.002z"></path>
        <path d="M8.445 39.125c-.305 0-.602-.004-.904-.01a12.687 12.687 0 01-1.87-.164 5.884 5.884 0 01-1.656-.548 5.406 5.406 0 01-1.397-1.016 5.32 5.32 0 01-1.02-1.397 5.722 5.722 0 01-.544-1.657 12.414 12.414 0 01-.166-1.875c-.007-.21-.015-.913-.015-.913v-23.1s.009-.692.015-.895a12.37 12.37 0 01.165-1.872 5.755 5.755 0 01.544-1.662 5.373 5.373 0 011.015-1.398 5.565 5.565 0 011.402-1.023 5.823 5.823 0 011.653-.544A12.586 12.586 0 017.543.887l.902-.012h102.769l.913.013a12.385 12.385 0 011.858.162 5.938 5.938 0 011.671.548 5.594 5.594 0 012.415 2.42 5.763 5.763 0 01.535 1.649 12.995 12.995 0 01.174 1.887c.003.283.003.588.003.89.008.375.008.732.008 1.092v20.929c0 .363 0 .718-.008 1.075 0 .325 0 .623-.004.93a12.731 12.731 0 01-.17 1.853 5.739 5.739 0 01-.54 1.67 5.48 5.48 0 01-1.016 1.386 5.413 5.413 0 01-1.4 1.022 5.862 5.862 0 01-1.668.55 12.542 12.542 0 01-1.869.163c-.293.007-.6.011-.897.011l-1.084.002z" fill="#fff"></path>
        <path d="M24.997 19.89a5.146 5.146 0 012.45-4.318 5.268 5.268 0 00-4.15-2.244c-1.746-.183-3.44 1.045-4.33 1.045-.906 0-2.276-1.027-3.752-.997a5.527 5.527 0 00-4.65 2.837c-2.012 3.482-.512 8.6 1.415 11.414.963 1.378 2.09 2.918 3.564 2.863 1.442-.06 1.981-.92 3.722-.92 1.725 0 2.23.92 3.734.886 1.548-.026 2.523-1.385 3.453-2.776a11.4 11.4 0 001.58-3.216 4.973 4.973 0 01-3.036-4.575zm-2.841-8.413a5.067 5.067 0 001.16-3.63 5.155 5.155 0 00-3.336 1.726 4.821 4.821 0 00-1.19 3.495 4.263 4.263 0 003.366-1.591zM42.302 27.14h-4.734l-1.136 3.356h-2.005l4.483-12.418h2.083l4.484 12.418h-2.04zm-4.243-1.55h3.752l-1.85-5.446h-.052zm17.101.38c0 2.813-1.507 4.62-3.78 4.62a3.07 3.07 0 01-2.848-1.583h-.043v4.484h-1.858V21.442h1.799v1.506h.034a3.212 3.212 0 012.883-1.6c2.298 0 3.812 1.816 3.812 4.622zm-1.911 0c0-1.833-.947-3.038-2.393-3.038-1.42 0-2.375 1.23-2.375 3.038 0 1.824.956 3.046 2.375 3.046 1.446 0 2.393-1.197 2.393-3.046zm11.876 0c0 2.813-1.507 4.62-3.78 4.62a3.07 3.07 0 01-2.848-1.583h-.043v4.484h-1.858V21.442h1.799v1.506h.034a3.212 3.212 0 012.883-1.6c2.297 0 3.813 1.816 3.813 4.622zm-1.911 0c0-1.833-.947-3.038-2.393-3.038-1.42 0-2.375 1.23-2.375 3.038 0 1.824.955 3.046 2.375 3.046 1.446 0 2.393-1.197 2.393-3.046zm8.496 1.066c.137 1.232 1.333 2.04 2.968 2.04 1.567 0 2.694-.808 2.694-1.919 0-.964-.68-1.54-2.29-1.936l-1.609-.388c-2.28-.55-3.339-1.617-3.339-3.348 0-2.142 1.867-3.614 4.518-3.614 2.625 0 4.424 1.472 4.484 3.614H77.26c-.112-1.239-1.136-1.987-2.634-1.987s-2.521.757-2.521 1.858c0 .878.654 1.395 2.255 1.79l1.368.336c2.548.603 3.605 1.626 3.605 3.443 0 2.323-1.85 3.778-4.793 3.778-2.753 0-4.613-1.42-4.733-3.667zM83.346 19.3v2.142h1.722v1.472h-1.722v4.991c0 .776.345 1.137 1.102 1.137a5.808 5.808 0 00.611-.043v1.463a5.104 5.104 0 01-1.032.086c-1.833 0-2.548-.689-2.548-2.445v-5.189h-1.316v-1.472h1.316V19.3zm2.718 6.67c0-2.849 1.678-4.639 4.294-4.639 2.625 0 4.295 1.79 4.295 4.639 0 2.856-1.661 4.638-4.295 4.638-2.633 0-4.294-1.782-4.294-4.638zm6.695 0c0-1.954-.895-3.108-2.401-3.108s-2.401 1.162-2.401 3.108c0 1.962.895 3.106 2.4 3.106s2.402-1.144 2.402-3.106zm3.426-4.528h1.773v1.541H98a2.16 2.16 0 012.177-1.635 2.866 2.866 0 01.637.069v1.738a2.598 2.598 0 00-.835-.112 1.873 1.873 0 00-1.937 2.083v5.37h-1.858zm13.198 6.395c-.25 1.643-1.85 2.771-3.898 2.771-2.634 0-4.269-1.764-4.269-4.595 0-2.84 1.644-4.682 4.19-4.682 2.506 0 4.08 1.72 4.08 4.466v.637h-6.394v.112a2.358 2.358 0 002.436 2.564 2.048 2.048 0 002.09-1.273zm-6.282-2.702h4.526a2.177 2.177 0 00-2.22-2.298 2.292 2.292 0 00-2.306 2.298zM39.393 14.698H35.67V8.73h.927v5.115h2.795zm.937-1.274c0-.81.603-1.278 1.674-1.344l1.22-.07v-.389c0-.475-.315-.744-.922-.744-.496 0-.84.182-.939.5h-.86c.09-.773.818-1.27 1.84-1.27 1.129 0 1.765.563 1.765 1.514v3.077h-.855v-.633h-.07a1.515 1.515 0 01-1.353.707 1.36 1.36 0 01-1.5-1.348zm2.894-.384v-.377l-1.1.07c-.62.042-.901.253-.901.65 0 .405.351.64.835.64a1.062 1.062 0 001.166-.983zm2.052-.596c0-1.423.732-2.324 1.87-2.324a1.484 1.484 0 011.38.79h.067V8.437h.888v6.26h-.851v-.71h-.07a1.563 1.563 0 01-1.414.785c-1.146 0-1.87-.901-1.87-2.328zm.918 0c0 .955.45 1.53 1.204 1.53.749 0 1.211-.583 1.211-1.526 0-.938-.467-1.53-1.211-1.53-.749 0-1.204.58-1.204 1.526zm8.553 1.038a1.828 1.828 0 01-1.951 1.303 2.045 2.045 0 01-2.08-2.325 2.077 2.077 0 012.076-2.352c1.253 0 2.009.856 2.009 2.27v.31h-3.18v.05a1.19 1.19 0 001.2 1.29 1.08 1.08 0 001.07-.546zm-3.126-1.451h2.275a1.086 1.086 0 00-1.109-1.167 1.152 1.152 0 00-1.166 1.167zm4.373-1.836h.856v.715h.066a1.348 1.348 0 011.344-.802 1.465 1.465 0 011.558 1.675v2.915h-.888v-2.692c0-.724-.315-1.084-.972-1.084a1.033 1.033 0 00-1.075 1.141v2.635h-.889zm7.526-1.332a.576.576 0 11.575.542.547.547 0 01-.575-.542zm.132 1.332h.885v4.503h-.885zm2.319 0h.856v.723h.066a1.364 1.364 0 012.493 0h.07a1.463 1.463 0 011.37-.81 1.338 1.338 0 011.438 1.488v3.102h-.888v-2.87c0-.608-.29-.906-.873-.906a.912.912 0 00-.95.943v2.833h-.874V11.74a.785.785 0 00-.868-.819.969.969 0 00-.951 1.022v2.754h-.889z"></path>
    </symbol>
    <symbol xmlns="http://www.w3.org/2000/svg" viewBox="0 0 119.664 40" id="apple-light-en">
        <path d="M110.135 0H9.535c-.367 0-.73 0-1.095.002-.306.002-.61.008-.919.013A13.215 13.215 0 005.517.19a6.665 6.665 0 00-1.9.627 6.438 6.438 0 00-1.62 1.18A6.258 6.258 0 00.82 3.617 6.601 6.601 0 00.195 5.52a12.993 12.993 0 00-.179 2.002c-.01.307-.01.615-.015.921V31.56c.005.31.006.61.015.921a12.992 12.992 0 00.18 2.002 6.588 6.588 0 00.624 1.905A6.208 6.208 0 001.998 38a6.274 6.274 0 001.618 1.179 6.7 6.7 0 001.901.63 13.455 13.455 0 002.004.177c.31.007.613.011.919.011.366.002.728.002 1.095.002h100.6c.36 0 .724 0 1.084-.002.304 0 .617-.004.922-.01a13.279 13.279 0 002-.178 6.804 6.804 0 001.908-.63A6.277 6.277 0 00117.666 38a6.395 6.395 0 001.182-1.614 6.604 6.604 0 00.619-1.905 13.506 13.506 0 00.185-2.002c.004-.31.004-.61.004-.921.008-.364.008-.725.008-1.094V9.536c0-.366 0-.73-.008-1.092 0-.306 0-.614-.004-.92a13.507 13.507 0 00-.185-2.003 6.618 6.618 0 00-.62-1.903 6.466 6.466 0 00-2.798-2.8 6.768 6.768 0 00-1.908-.627 13.044 13.044 0 00-2-.176c-.305-.005-.618-.011-.922-.013-.36-.002-.725-.002-1.084-.002z"></path>
        <path d="M8.445 39.125c-.305 0-.602-.004-.904-.01a12.687 12.687 0 01-1.87-.164 5.884 5.884 0 01-1.656-.548 5.406 5.406 0 01-1.397-1.016 5.32 5.32 0 01-1.02-1.397 5.722 5.722 0 01-.544-1.657 12.414 12.414 0 01-.166-1.875c-.007-.21-.015-.913-.015-.913v-23.1s.009-.692.015-.895a12.37 12.37 0 01.165-1.872 5.755 5.755 0 01.544-1.662 5.373 5.373 0 011.015-1.398 5.565 5.565 0 011.402-1.023 5.823 5.823 0 011.653-.544A12.586 12.586 0 017.543.887l.902-.012h102.769l.913.013a12.385 12.385 0 011.858.162 5.938 5.938 0 011.671.548 5.594 5.594 0 012.415 2.42 5.763 5.763 0 01.535 1.649 12.995 12.995 0 01.174 1.887c.003.283.003.588.003.89.008.375.008.732.008 1.092v20.929c0 .363 0 .718-.008 1.075 0 .325 0 .623-.004.93a12.731 12.731 0 01-.17 1.853 5.739 5.739 0 01-.54 1.67 5.48 5.48 0 01-1.016 1.386 5.413 5.413 0 01-1.4 1.022 5.862 5.862 0 01-1.668.55 12.542 12.542 0 01-1.869.163c-.293.007-.6.011-.897.011l-1.084.002z" fill="#fff"></path>
        <path d="M24.997 19.89a5.146 5.146 0 012.45-4.318 5.268 5.268 0 00-4.15-2.244c-1.746-.183-3.44 1.045-4.33 1.045-.906 0-2.276-1.027-3.752-.997a5.527 5.527 0 00-4.65 2.837c-2.012 3.482-.512 8.6 1.415 11.414.963 1.378 2.09 2.918 3.564 2.863 1.442-.06 1.981-.92 3.722-.92 1.725 0 2.23.92 3.734.886 1.548-.026 2.523-1.385 3.453-2.776a11.4 11.4 0 001.58-3.216 4.973 4.973 0 01-3.036-4.575zm-2.841-8.413a5.067 5.067 0 001.16-3.63 5.155 5.155 0 00-3.336 1.726 4.821 4.821 0 00-1.19 3.495 4.263 4.263 0 003.366-1.591zM42.302 27.14h-4.734l-1.136 3.356h-2.005l4.483-12.418h2.083l4.484 12.418h-2.04zm-4.243-1.55h3.752l-1.85-5.446h-.052zm17.101.38c0 2.813-1.507 4.62-3.78 4.62a3.07 3.07 0 01-2.848-1.583h-.043v4.484h-1.858V21.442h1.799v1.506h.034a3.212 3.212 0 012.883-1.6c2.298 0 3.812 1.816 3.812 4.622zm-1.911 0c0-1.833-.947-3.038-2.393-3.038-1.42 0-2.375 1.23-2.375 3.038 0 1.824.956 3.046 2.375 3.046 1.446 0 2.393-1.197 2.393-3.046zm11.876 0c0 2.813-1.507 4.62-3.78 4.62a3.07 3.07 0 01-2.848-1.583h-.043v4.484h-1.858V21.442h1.799v1.506h.034a3.212 3.212 0 012.883-1.6c2.297 0 3.813 1.816 3.813 4.622zm-1.911 0c0-1.833-.947-3.038-2.393-3.038-1.42 0-2.375 1.23-2.375 3.038 0 1.824.955 3.046 2.375 3.046 1.446 0 2.393-1.197 2.393-3.046zm8.496 1.066c.137 1.232 1.333 2.04 2.968 2.04 1.567 0 2.694-.808 2.694-1.919 0-.964-.68-1.54-2.29-1.936l-1.609-.388c-2.28-.55-3.339-1.617-3.339-3.348 0-2.142 1.867-3.614 4.518-3.614 2.625 0 4.424 1.472 4.484 3.614H77.26c-.112-1.239-1.136-1.987-2.634-1.987s-2.521.757-2.521 1.858c0 .878.654 1.395 2.255 1.79l1.368.336c2.548.603 3.605 1.626 3.605 3.443 0 2.323-1.85 3.778-4.793 3.778-2.753 0-4.613-1.42-4.733-3.667zM83.346 19.3v2.142h1.722v1.472h-1.722v4.991c0 .776.345 1.137 1.102 1.137a5.808 5.808 0 00.611-.043v1.463a5.104 5.104 0 01-1.032.086c-1.833 0-2.548-.689-2.548-2.445v-5.189h-1.316v-1.472h1.316V19.3zm2.718 6.67c0-2.849 1.678-4.639 4.294-4.639 2.625 0 4.295 1.79 4.295 4.639 0 2.856-1.661 4.638-4.295 4.638-2.633 0-4.294-1.782-4.294-4.638zm6.695 0c0-1.954-.895-3.108-2.401-3.108s-2.401 1.162-2.401 3.108c0 1.962.895 3.106 2.4 3.106s2.402-1.144 2.402-3.106zm3.426-4.528h1.773v1.541H98a2.16 2.16 0 012.177-1.635 2.866 2.866 0 01.637.069v1.738a2.598 2.598 0 00-.835-.112 1.873 1.873 0 00-1.937 2.083v5.37h-1.858zm13.198 6.395c-.25 1.643-1.85 2.771-3.898 2.771-2.634 0-4.269-1.764-4.269-4.595 0-2.84 1.644-4.682 4.19-4.682 2.506 0 4.08 1.72 4.08 4.466v.637h-6.394v.112a2.358 2.358 0 002.436 2.564 2.048 2.048 0 002.09-1.273zm-6.282-2.702h4.526a2.177 2.177 0 00-2.22-2.298 2.292 2.292 0 00-2.306 2.298zM37.826 8.731a2.64 2.64 0 012.808 2.965c0 1.906-1.03 3.002-2.808 3.002h-2.155V8.73zm-1.228 5.123h1.125a1.876 1.876 0 001.967-2.146 1.881 1.881 0 00-1.967-2.134h-1.125zm5.082-1.41a2.133 2.133 0 114.248 0 2.134 2.134 0 11-4.247 0zm3.334 0c0-.976-.439-1.547-1.208-1.547-.773 0-1.207.571-1.207 1.547 0 .984.434 1.55 1.207 1.55.77 0 1.208-.57 1.208-1.55zm6.559 2.254h-.922l-.93-3.317h-.07l-.927 3.317h-.913l-1.242-4.503h.902l.806 3.436h.067l.926-3.436h.852l.926 3.436h.07l.803-3.436h.889zm2.281-4.503h.855v.715h.066a1.348 1.348 0 011.344-.802 1.465 1.465 0 011.559 1.675v2.915h-.889v-2.692c0-.724-.314-1.084-.972-1.084a1.033 1.033 0 00-1.075 1.141v2.635h-.888zm5.24-1.758h.888v6.26h-.888zm2.124 4.007a2.133 2.133 0 114.247 0 2.134 2.134 0 11-4.247 0zm3.333 0c0-.976-.439-1.547-1.208-1.547-.773 0-1.207.571-1.207 1.547 0 .984.434 1.55 1.207 1.55.77 0 1.208-.57 1.208-1.55zm1.849.98c0-.81.604-1.278 1.676-1.344l1.22-.07v-.389c0-.475-.315-.744-.922-.744-.497 0-.84.182-.939.5h-.86c.09-.773.818-1.27 1.84-1.27 1.128 0 1.765.563 1.765 1.514v3.077h-.855v-.633h-.07a1.515 1.515 0 01-1.353.707 1.36 1.36 0 01-1.501-1.348zm2.895-.384v-.377l-1.1.07c-.62.042-.9.253-.9.65 0 .405.351.64.834.64a1.062 1.062 0 001.166-.983zm2.053-.596c0-1.423.732-2.324 1.87-2.324a1.484 1.484 0 011.38.79h.067V8.437h.888v6.26h-.851v-.71h-.07a1.563 1.563 0 01-1.415.785c-1.145 0-1.869-.901-1.869-2.328zm.918 0c0 .955.45 1.53 1.203 1.53.75 0 1.212-.583 1.212-1.526 0-.938-.468-1.53-1.212-1.53-.748 0-1.203.58-1.203 1.526zm6.964 0a2.133 2.133 0 114.247 0 2.134 2.134 0 11-4.247 0zm3.333 0c0-.976-.438-1.547-1.208-1.547-.772 0-1.207.571-1.207 1.547 0 .984.435 1.55 1.207 1.55.77 0 1.208-.57 1.208-1.55zm2.107-2.249h.855v.715h.066a1.348 1.348 0 011.344-.802 1.465 1.465 0 011.559 1.675v2.915h-.889v-2.692c0-.724-.314-1.084-.972-1.084a1.033 1.033 0 00-1.075 1.141v2.635h-.889zm8.845-1.121v1.141h.976v.749h-.976v2.315c0 .472.194.679.637.679a2.967 2.967 0 00.339-.021v.74a2.916 2.916 0 01-.484.046c-.988 0-1.381-.348-1.381-1.216v-2.543h-.715v-.749h.715V9.074zm2.19-.637h.88v2.481h.07a1.386 1.386 0 011.374-.806 1.483 1.483 0 011.55 1.679v2.907h-.889V12.01c0-.72-.335-1.084-.963-1.084a1.052 1.052 0 00-1.134 1.142v2.63h-.888zm9.056 5.045a1.828 1.828 0 01-1.95 1.303 2.045 2.045 0 01-2.081-2.325 2.077 2.077 0 012.076-2.352c1.253 0 2.009.856 2.009 2.27v.31h-3.18v.05a1.19 1.19 0 001.2 1.29 1.08 1.08 0 001.07-.546zm-3.126-1.451h2.275a1.086 1.086 0 00-1.109-1.167 1.152 1.152 0 00-1.166 1.167z"></path>
    </symbol>
    <symbol xmlns="http://www.w3.org/2000/svg" viewBox="0 0 126.515 40" id="apple-light-fr">
        <path d="M116.986 0H9.535c-.367 0-.73 0-1.095.002-.306.002-.61.008-.919.013A13.215 13.215 0 005.517.19a6.665 6.665 0 00-1.9.627 6.438 6.438 0 00-1.62 1.18A6.258 6.258 0 00.82 3.617 6.601 6.601 0 00.195 5.52a12.993 12.993 0 00-.179 2.002c-.01.307-.01.615-.015.921V31.56c.005.31.006.61.015.921a12.992 12.992 0 00.18 2.002 6.588 6.588 0 00.624 1.905A6.208 6.208 0 001.998 38a6.274 6.274 0 001.618 1.179 6.7 6.7 0 001.901.63 13.455 13.455 0 002.004.177c.31.007.613.011.919.011.366.002.728.002 1.095.002h107.451c.36 0 .725 0 1.084-.002.305 0 .617-.004.922-.01a13.279 13.279 0 002-.178 6.804 6.804 0 001.908-.63A6.277 6.277 0 00124.517 38a6.395 6.395 0 001.182-1.614 6.604 6.604 0 00.62-1.905 13.506 13.506 0 00.185-2.002c.004-.31.004-.61.004-.921.007-.364.007-.725.007-1.094V9.536c0-.366 0-.73-.007-1.092 0-.306 0-.614-.004-.92a13.507 13.507 0 00-.186-2.003 6.618 6.618 0 00-.619-1.903 6.466 6.466 0 00-2.799-2.8 6.768 6.768 0 00-1.908-.627 13.044 13.044 0 00-2-.176c-.305-.005-.617-.011-.922-.013C117.71 0 117.346 0 116.986 0z"></path>
        <path d="M8.445 39.125c-.305 0-.602-.004-.904-.01a12.687 12.687 0 01-1.87-.164 5.884 5.884 0 01-1.656-.548 5.406 5.406 0 01-1.397-1.016 5.32 5.32 0 01-1.02-1.397 5.722 5.722 0 01-.544-1.657 12.414 12.414 0 01-.166-1.875c-.007-.21-.015-.913-.015-.913v-23.1s.009-.692.015-.895a12.37 12.37 0 01.165-1.872 5.755 5.755 0 01.544-1.662 5.373 5.373 0 011.015-1.398 5.565 5.565 0 011.402-1.023 5.823 5.823 0 011.653-.544A12.586 12.586 0 017.543.887l.902-.012h109.62l.913.013a12.385 12.385 0 011.859.162 5.938 5.938 0 011.67.548 5.594 5.594 0 012.416 2.42 5.763 5.763 0 01.535 1.649 12.995 12.995 0 01.174 1.887c.003.283.003.588.003.89.008.375.008.732.008 1.092v20.929c0 .363 0 .718-.008 1.075 0 .325 0 .623-.004.93a12.731 12.731 0 01-.171 1.853 5.739 5.739 0 01-.54 1.67 5.48 5.48 0 01-1.016 1.386 5.413 5.413 0 01-1.4 1.022 5.862 5.862 0 01-1.667.55 12.542 12.542 0 01-1.87.163c-.292.007-.599.011-.897.011l-1.084.002z" fill="#fff"></path>
        <path d="M24.997 19.89a5.146 5.146 0 012.45-4.318 5.268 5.268 0 00-4.15-2.244c-1.746-.183-3.44 1.045-4.33 1.045-.906 0-2.276-1.027-3.752-.997a5.527 5.527 0 00-4.65 2.837c-2.012 3.482-.512 8.6 1.415 11.414.963 1.378 2.09 2.918 3.564 2.863 1.442-.06 1.981-.92 3.722-.92 1.725 0 2.23.92 3.734.886 1.548-.026 2.523-1.385 3.453-2.776a11.4 11.4 0 001.58-3.216 4.973 4.973 0 01-3.036-4.575zm-2.841-8.413a5.067 5.067 0 001.16-3.63 5.155 5.155 0 00-3.336 1.726 4.821 4.821 0 00-1.19 3.495 4.263 4.263 0 003.366-1.591zm13.466 3.225V9.578h-1.877v-.843h4.676v.843h-1.873v5.124zm7.109-1.216a1.828 1.828 0 01-1.951 1.303 2.045 2.045 0 01-2.08-2.325 2.077 2.077 0 012.076-2.352c1.253 0 2.009.856 2.009 2.27v.31h-3.18v.05a1.19 1.19 0 001.2 1.29 1.08 1.08 0 001.07-.546zm-3.126-1.451h2.274a1.086 1.086 0 00-1.108-1.167 1.152 1.152 0 00-1.166 1.167zm.637-2.59l1.038-1.422h1.042L41.16 9.446zM44.02 8.44h.888v6.262h-.889zm6.154 5.046a1.828 1.828 0 01-1.95 1.303 2.045 2.045 0 01-2.08-2.325 2.077 2.077 0 012.075-2.352c1.253 0 2.009.856 2.009 2.27v.31h-3.18v.05a1.19 1.19 0 001.2 1.29 1.08 1.08 0 001.07-.546zm-3.126-1.451h2.275a1.086 1.086 0 00-1.109-1.167 1.152 1.152 0 00-1.166 1.167zm.637-2.59l1.038-1.422h1.042l-1.162 1.423zm6.685 2.225a1.005 1.005 0 00-1.064-.764c-.744 0-1.199.57-1.199 1.53 0 .976.459 1.559 1.2 1.559a.979.979 0 001.063-.74h.864a1.762 1.762 0 01-1.923 1.534 2.068 2.068 0 01-2.113-2.353 2.053 2.053 0 012.108-2.324 1.777 1.777 0 011.928 1.558zm2.044-3.23h.88v2.482h.07a1.386 1.386 0 011.374-.806 1.483 1.483 0 011.55 1.678v2.908h-.89v-2.688c0-.72-.334-1.084-.962-1.084a1.052 1.052 0 00-1.134 1.142v2.63h-.888zm4.992 4.988c0-.81.603-1.278 1.675-1.344l1.22-.07v-.389c0-.476-.315-.744-.923-.744-.496 0-.84.182-.938.5h-.86c.09-.773.818-1.27 1.84-1.27 1.128 0 1.765.563 1.765 1.514v3.077h-.855v-.633h-.07a1.515 1.515 0 01-1.353.707 1.36 1.36 0 01-1.501-1.348zm2.894-.385v-.376l-1.1.07c-.62.042-.9.253-.9.65 0 .405.35.64.834.64a1.062 1.062 0 001.166-.984zm2.277-2.844h.855v.69h.067a1.22 1.22 0 011.215-.765 1.868 1.868 0 01.397.037v.877a2.434 2.434 0 00-.496-.054 1.055 1.055 0 00-1.15 1.059v2.659h-.888zm3.351 4.953h.91c.075.327.45.538 1.05.538.74 0 1.179-.352 1.179-.947v-.864H73a1.514 1.514 0 01-1.39.756c-1.15 0-1.86-.888-1.86-2.237 0-1.373.718-2.274 1.869-2.274a1.56 1.56 0 011.414.794h.07v-.72h.852v4.54c0 1.03-.807 1.684-2.08 1.684-1.125 0-1.853-.505-1.948-1.27zm3.156-2.758c0-.897-.464-1.472-1.221-1.472-.765 0-1.195.575-1.195 1.472 0 .898.43 1.472 1.195 1.472.762 0 1.22-.57 1.22-1.472zm6.096 1.092a1.828 1.828 0 01-1.952 1.303 2.045 2.045 0 01-2.08-2.325 2.077 2.077 0 012.076-2.352c1.253 0 2.009.856 2.009 2.27v.31h-3.18v.05a1.19 1.19 0 001.2 1.29 1.08 1.08 0 001.07-.546zm-3.127-1.451h2.275a1.086 1.086 0 00-1.109-1.167 1.152 1.152 0 00-1.166 1.167zm4.373-1.836h.856v.69h.066a1.22 1.22 0 011.216-.765 1.868 1.868 0 01.396.037v.877a2.434 2.434 0 00-.496-.054 1.055 1.055 0 00-1.149 1.059v2.659h-.889zm5.737 2.249c0-1.423.731-2.324 1.869-2.324a1.484 1.484 0 011.38.79h.067V8.441h.889v6.26h-.852v-.71h-.07a1.563 1.563 0 01-1.414.785c-1.146 0-1.87-.901-1.87-2.328zm.918 0c0 .955.45 1.53 1.203 1.53.749 0 1.212-.583 1.212-1.526 0-.938-.468-1.53-1.212-1.53-.748 0-1.203.579-1.203 1.526zm4.488.98c0-.81.603-1.278 1.675-1.344l1.22-.07v-.389c0-.476-.315-.744-.922-.744-.497 0-.84.182-.939.5h-.86c.09-.773.818-1.27 1.84-1.27 1.128 0 1.765.563 1.765 1.514v3.077h-.855v-.633h-.07a1.515 1.515 0 01-1.353.707 1.36 1.36 0 01-1.501-1.348zm2.894-.385v-.376l-1.1.07c-.62.042-.9.253-.9.65 0 .405.351.64.834.64a1.062 1.062 0 001.166-.984zm2.277-2.844h.855v.715h.067a1.348 1.348 0 011.343-.802 1.465 1.465 0 011.559 1.675v2.915h-.889V12.01c0-.724-.314-1.084-.971-1.084a1.033 1.033 0 00-1.076 1.141v2.635h-.888zm6.844-.087c1.013 0 1.675.471 1.762 1.265h-.852c-.082-.33-.406-.542-.91-.542-.496 0-.873.236-.873.587 0 .27.228.439.716.55l.748.174c.857.199 1.258.567 1.258 1.229 0 .847-.79 1.414-1.865 1.414-1.071 0-1.77-.484-1.849-1.282h.89a.914.914 0 00.98.562c.553 0 .947-.248.947-.608 0-.269-.211-.442-.662-.55l-.786-.182c-.856-.203-1.253-.587-1.253-1.257 0-.798.732-1.36 1.75-1.36zm-68.392 7.966h1.86v12.418h-1.86zm4.1 4.544l1.016-4.544h1.806l-1.23 4.544zm9.848 4.518h-4.733l-1.136 3.356h-2.005l4.483-12.418h2.083l4.483 12.418h-2.039zm-4.243-1.55h3.752l-1.85-5.446h-.05zm17.1.38c0 2.813-1.506 4.62-3.778 4.62a3.07 3.07 0 01-2.849-1.583h-.043v4.484H53.47V21.442h1.799v1.506h.034a3.212 3.212 0 012.883-1.6c2.297 0 3.812 1.816 3.812 4.622zm-1.91 0c0-1.833-.947-3.038-2.393-3.038-1.42 0-2.375 1.23-2.375 3.038 0 1.824.955 3.046 2.375 3.046 1.446 0 2.393-1.197 2.393-3.046zm11.875 0c0 2.813-1.505 4.62-3.778 4.62a3.07 3.07 0 01-2.849-1.583h-.043v4.484h-1.858V21.442h1.799v1.506h.034a3.212 3.212 0 012.883-1.6c2.298 0 3.812 1.816 3.812 4.622zm-1.91 0c0-1.833-.947-3.038-2.392-3.038-1.42 0-2.375 1.23-2.375 3.038 0 1.824.955 3.046 2.375 3.046 1.445 0 2.392-1.197 2.392-3.046zm8.496 1.066c.138 1.232 1.334 2.04 2.97 2.04 1.566 0 2.692-.808 2.692-1.919 0-.964-.68-1.54-2.289-1.936l-1.609-.388c-2.28-.55-3.339-1.617-3.339-3.348 0-2.142 1.867-3.614 4.519-3.614 2.624 0 4.423 1.472 4.483 3.614H84.1c-.112-1.239-1.137-1.987-2.634-1.987s-2.521.757-2.521 1.858c0 .878.654 1.395 2.255 1.79l1.368.336c2.548.603 3.606 1.626 3.606 3.443 0 2.323-1.85 3.778-4.794 3.778-2.754 0-4.613-1.42-4.733-3.667zM90.185 19.3v2.142h1.722v1.472h-1.722v4.991c0 .776.345 1.137 1.102 1.137a5.808 5.808 0 00.611-.043v1.463a5.104 5.104 0 01-1.032.086c-1.833 0-2.548-.689-2.548-2.445v-5.189H87v-1.472h1.317V19.3zm2.718 6.67c0-2.849 1.678-4.639 4.294-4.639 2.625 0 4.295 1.79 4.295 4.639 0 2.856-1.661 4.638-4.295 4.638-2.633 0-4.294-1.782-4.294-4.638zm6.695 0c0-1.954-.895-3.108-2.401-3.108s-2.4 1.162-2.4 3.108c0 1.962.894 3.106 2.4 3.106s2.401-1.144 2.401-3.106zm3.426-4.528h1.772v1.541h.043a2.16 2.16 0 012.178-1.635 2.866 2.866 0 01.637.069v1.738a2.598 2.598 0 00-.835-.112 1.873 1.873 0 00-1.937 2.083v5.37h-1.858zm13.197 6.395c-.25 1.643-1.85 2.771-3.898 2.771-2.634 0-4.269-1.764-4.269-4.595 0-2.84 1.644-4.682 4.19-4.682 2.506 0 4.08 1.72 4.08 4.466v.637h-6.394v.112a2.358 2.358 0 002.436 2.564 2.048 2.048 0 002.09-1.273zm-6.282-2.702h4.526a2.177 2.177 0 00-2.22-2.298 2.292 2.292 0 00-2.306 2.298z"></path>
    </symbol>
    <symbol xmlns="http://www.w3.org/2000/svg" viewBox="0 0 119.664 40" id="apple-light-it">
        <path d="M110.135 0H9.535c-.367 0-.73 0-1.095.002-.306.002-.61.008-.919.013A13.215 13.215 0 005.517.19a6.665 6.665 0 00-1.9.627 6.438 6.438 0 00-1.62 1.18A6.258 6.258 0 00.82 3.617 6.601 6.601 0 00.195 5.52a12.993 12.993 0 00-.179 2.002c-.01.307-.01.615-.015.921V31.56c.005.31.006.61.015.921a12.992 12.992 0 00.18 2.002 6.588 6.588 0 00.624 1.905A6.208 6.208 0 001.998 38a6.274 6.274 0 001.618 1.179 6.7 6.7 0 001.901.63 13.455 13.455 0 002.004.177c.31.007.613.011.919.011.366.002.728.002 1.095.002h100.6c.36 0 .724 0 1.084-.002.304 0 .617-.004.922-.01a13.279 13.279 0 002-.178 6.804 6.804 0 001.908-.63A6.277 6.277 0 00117.666 38a6.395 6.395 0 001.182-1.614 6.604 6.604 0 00.619-1.905 13.506 13.506 0 00.185-2.002c.004-.31.004-.61.004-.921.008-.364.008-.725.008-1.094V9.536c0-.366 0-.73-.008-1.092 0-.306 0-.614-.004-.92a13.507 13.507 0 00-.185-2.003 6.618 6.618 0 00-.62-1.903 6.466 6.466 0 00-2.798-2.8 6.768 6.768 0 00-1.908-.627 13.044 13.044 0 00-2-.176c-.305-.005-.618-.011-.922-.013-.36-.002-.725-.002-1.084-.002z"></path>
        <path d="M8.445 39.125c-.305 0-.602-.004-.904-.01a12.687 12.687 0 01-1.87-.164 5.884 5.884 0 01-1.656-.548 5.406 5.406 0 01-1.397-1.016 5.32 5.32 0 01-1.02-1.397 5.722 5.722 0 01-.544-1.657 12.414 12.414 0 01-.166-1.875c-.007-.21-.015-.913-.015-.913v-23.1s.009-.692.015-.895a12.37 12.37 0 01.165-1.872 5.755 5.755 0 01.544-1.662 5.373 5.373 0 011.015-1.398 5.565 5.565 0 011.402-1.023 5.823 5.823 0 011.653-.544A12.586 12.586 0 017.543.887l.902-.012h102.769l.913.013a12.385 12.385 0 011.858.162 5.938 5.938 0 011.671.548 5.594 5.594 0 012.415 2.42 5.763 5.763 0 01.535 1.649 12.995 12.995 0 01.174 1.887c.003.283.003.588.003.89.008.375.008.732.008 1.092v20.929c0 .363 0 .718-.008 1.075 0 .325 0 .623-.004.93a12.731 12.731 0 01-.17 1.853 5.739 5.739 0 01-.54 1.67 5.48 5.48 0 01-1.016 1.386 5.413 5.413 0 01-1.4 1.022 5.862 5.862 0 01-1.668.55 12.542 12.542 0 01-1.869.163c-.293.007-.6.011-.897.011l-1.084.002z" fill="#fff"></path>
        <path d="M24.997 19.89a5.146 5.146 0 012.45-4.318 5.268 5.268 0 00-4.15-2.244c-1.746-.183-3.44 1.045-4.33 1.045-.906 0-2.276-1.027-3.752-.997a5.527 5.527 0 00-4.65 2.837c-2.012 3.482-.512 8.6 1.415 11.414.963 1.378 2.09 2.918 3.564 2.863 1.442-.06 1.981-.92 3.722-.92 1.725 0 2.23.92 3.734.886 1.548-.026 2.523-1.385 3.453-2.776a11.4 11.4 0 001.58-3.216 4.973 4.973 0 01-3.036-4.575zm-2.841-8.413a5.067 5.067 0 001.16-3.63 5.155 5.155 0 00-3.336 1.726 4.821 4.821 0 00-1.19 3.495 4.263 4.263 0 003.366-1.591zM42.302 27.14h-4.734l-1.136 3.356h-2.005l4.483-12.418h2.083l4.484 12.418h-2.04zm-4.243-1.55h3.752l-1.85-5.446h-.052zm17.101.38c0 2.813-1.507 4.62-3.78 4.62a3.07 3.07 0 01-2.848-1.583h-.043v4.484h-1.858V21.442h1.799v1.506h.034a3.212 3.212 0 012.883-1.6c2.298 0 3.812 1.816 3.812 4.622zm-1.911 0c0-1.833-.947-3.038-2.393-3.038-1.42 0-2.375 1.23-2.375 3.038 0 1.824.956 3.046 2.375 3.046 1.446 0 2.393-1.197 2.393-3.046zm11.876 0c0 2.813-1.507 4.62-3.78 4.62a3.07 3.07 0 01-2.848-1.583h-.043v4.484h-1.858V21.442h1.799v1.506h.034a3.212 3.212 0 012.883-1.6c2.297 0 3.813 1.816 3.813 4.622zm-1.911 0c0-1.833-.947-3.038-2.393-3.038-1.42 0-2.375 1.23-2.375 3.038 0 1.824.955 3.046 2.375 3.046 1.446 0 2.393-1.197 2.393-3.046zm8.496 1.066c.137 1.232 1.333 2.04 2.968 2.04 1.567 0 2.694-.808 2.694-1.919 0-.964-.68-1.54-2.29-1.936l-1.609-.388c-2.28-.55-3.339-1.617-3.339-3.348 0-2.142 1.867-3.614 4.518-3.614 2.625 0 4.424 1.472 4.484 3.614H77.26c-.112-1.239-1.136-1.987-2.634-1.987s-2.521.757-2.521 1.858c0 .878.654 1.395 2.255 1.79l1.368.336c2.548.603 3.605 1.626 3.605 3.443 0 2.323-1.85 3.778-4.793 3.778-2.753 0-4.613-1.42-4.733-3.667zM83.346 19.3v2.142h1.722v1.472h-1.722v4.991c0 .776.345 1.137 1.102 1.137a5.808 5.808 0 00.611-.043v1.463a5.104 5.104 0 01-1.032.086c-1.833 0-2.548-.689-2.548-2.445v-5.189h-1.316v-1.472h1.316V19.3zm2.718 6.67c0-2.849 1.678-4.639 4.294-4.639 2.625 0 4.295 1.79 4.295 4.639 0 2.856-1.661 4.638-4.295 4.638-2.633 0-4.294-1.782-4.294-4.638zm6.695 0c0-1.954-.895-3.108-2.401-3.108s-2.401 1.162-2.401 3.108c0 1.962.895 3.106 2.4 3.106s2.402-1.144 2.402-3.106zm3.426-4.528h1.773v1.541H98a2.16 2.16 0 012.177-1.635 2.866 2.866 0 01.637.069v1.738a2.598 2.598 0 00-.835-.112 1.873 1.873 0 00-1.937 2.083v5.37h-1.858zm13.198 6.395c-.25 1.643-1.85 2.771-3.898 2.771-2.634 0-4.269-1.764-4.269-4.595 0-2.84 1.644-4.682 4.19-4.682 2.506 0 4.08 1.72 4.08 4.466v.637h-6.394v.112a2.358 2.358 0 002.436 2.564 2.048 2.048 0 002.09-1.273zm-6.282-2.702h4.526a2.177 2.177 0 00-2.22-2.298 2.292 2.292 0 00-2.306 2.298zM36.309 13.093c.078.567.631.927 1.43.927.744 0 1.29-.385 1.29-.914 0-.455-.347-.728-1.137-.914l-.769-.186c-1.08-.253-1.571-.774-1.571-1.65 0-1.063.868-1.77 2.17-1.77a1.947 1.947 0 012.151 1.712h-.902a1.139 1.139 0 00-1.261-.893c-.732 0-1.22.351-1.22.889 0 .426.315.67 1.092.852l.657.161c1.224.285 1.729.781 1.729 1.679 0 1.14-.885 1.856-2.299 1.856-1.323 0-2.213-.682-2.28-1.749zm7.845-1.427a1.005 1.005 0 00-1.063-.764c-.744 0-1.2.57-1.2 1.53 0 .976.46 1.559 1.2 1.559a.979.979 0 001.063-.74h.865a1.762 1.762 0 01-1.923 1.534 2.068 2.068 0 01-2.114-2.353 2.053 2.053 0 012.109-2.324 1.777 1.777 0 011.928 1.559zm1.746 1.758c0-.81.604-1.278 1.675-1.344l1.22-.07v-.389c0-.475-.315-.744-.922-.744-.496 0-.84.182-.938.5h-.86c.09-.773.818-1.27 1.84-1.27 1.128 0 1.765.563 1.765 1.514v3.077h-.856v-.633h-.07a1.515 1.515 0 01-1.353.707 1.36 1.36 0 01-1.5-1.348zm2.895-.384v-.377l-1.1.07c-.62.042-.901.253-.901.65 0 .405.352.64.835.64a1.062 1.062 0 001.166-.983zm2.276-2.845h.856v.69h.066a1.22 1.22 0 011.216-.765 1.868 1.868 0 01.396.037v.877a2.434 2.434 0 00-.496-.053 1.055 1.055 0 00-1.149 1.058v2.659h-.889zm3.467-1.332a.576.576 0 11.575.542.547.547 0 01-.575-.542zm.132 1.332h.886v4.503h-.886zm5.268 1.471a1.005 1.005 0 00-1.064-.764c-.744 0-1.2.57-1.2 1.53 0 .976.46 1.559 1.2 1.559a.979.979 0 001.064-.74h.864a1.762 1.762 0 01-1.923 1.534 2.068 2.068 0 01-2.113-2.353 2.053 2.053 0 012.108-2.324 1.777 1.777 0 011.928 1.559zm1.746 1.758c0-.81.603-1.278 1.674-1.344l1.22-.07v-.389c0-.475-.314-.744-.922-.744-.496 0-.84.182-.938.5h-.86c.09-.773.818-1.27 1.84-1.27 1.128 0 1.765.563 1.765 1.514v3.077h-.856v-.633h-.07a1.515 1.515 0 01-1.352.707 1.36 1.36 0 01-1.501-1.348zm2.894-.384v-.377l-1.1.07c-.62.042-.9.253-.9.65 0 .405.35.64.834.64a1.062 1.062 0 001.166-.983zm6.365-2.932c1.013 0 1.675.471 1.762 1.265h-.853c-.082-.33-.405-.541-.91-.541-.495 0-.872.235-.872.586 0 .27.227.439.716.55l.748.174c.856.199 1.258.567 1.258 1.229 0 .847-.79 1.414-1.866 1.414-1.071 0-1.77-.484-1.848-1.282h.89a.914.914 0 00.979.562c.554 0 .947-.248.947-.608 0-.269-.21-.442-.662-.55l-.785-.182c-.857-.203-1.253-.587-1.253-1.257 0-.798.731-1.36 1.749-1.36zm6.842 4.59h-.857v-.716h-.07a1.35 1.35 0 01-1.36.803 1.462 1.462 0 01-1.551-1.667v-2.923h.89v2.692c0 .727.292 1.075.946 1.075a1.022 1.022 0 001.112-1.133v-2.634h.89z"></path>
    </symbol>
</svg>
