<svg width="135" height="40" viewBox="0 0 135 40" xmlns="http://www.w3.org/2000/svg">
    <defs>
        <linearGradient x1="61.038%" y1="4.963%" x2="26.516%" y2="71.904%" id="mkzivzrioa">
            <stop stop-color="#00A0FF" offset="0%"/>
            <stop stop-color="#00A1FF" offset=".657%"/>
            <stop stop-color="#00BEFF" offset="26.01%"/>
            <stop stop-color="#00D2FF" offset="51.22%"/>
            <stop stop-color="#00DFFF" offset="76.04%"/>
            <stop stop-color="#00E3FF" offset="100%"/>
        </linearGradient>
        <linearGradient x1="107.59%" y1="50%" x2="-130.463%" y2="50%" id="f42xi22mkb">
            <stop stop-color="#FFE000" offset="0%"/>
            <stop stop-color="#FFBD00" offset="40.87%"/>
            <stop stop-color="orange" offset="77.54%"/>
            <stop stop-color="#FF9C00" offset="100%"/>
        </linearGradient>
        <linearGradient x1="86.247%" y1="30.866%" x2="-50.141%" y2="136.056%" id="whdk59kmtc">
            <stop stop-color="#FF3A44" offset="0%"/>
            <stop stop-color="#C31162" offset="100%"/>
        </linearGradient>
        <linearGradient x1="-18.806%" y1="-11.89%" x2="42.097%" y2="35.082%" id="7d9chdn8wd">
            <stop stop-color="#32A071" offset="0%"/>
            <stop stop-color="#2DA771" offset="6.85%"/>
            <stop stop-color="#15CF74" offset="47.62%"/>
            <stop stop-color="#06E775" offset="80.09%"/>
            <stop stop-color="#00F076" offset="100%"/>
        </linearGradient>
    </defs>
    <g fill-rule="nonzero" fill="none">
        <path d="M5 0h125a5 5 0 0 1 5 5v30a5 5 0 0 1-5 5H5a5 5 0 0 1-5-5V5a5 5 0 0 1 5-5z" fill="#050506"/>
        <path d="M130 .8a4.205 4.205 0 0 1 4.2 4.2v30a4.205 4.205 0 0 1-4.2 4.2H5A4.205 4.205 0 0 1 .8 35V5A4.205 4.205 0 0 1 5 .8h125m0-.8H5a5.015 5.015 0 0 0-5 5v30a5.015 5.015 0 0 0 5 5h125a5.015 5.015 0 0 0 5-5V5a5.015 5.015 0 0 0-5-5z" fill="#A6A6A6"/>
        <g>
            <g fill="#FFF">
                <path d="M47.418 10.243a2.708 2.708 0 0 1-.745 2.003 2.909 2.909 0 0 1-2.204.888A3.09 3.09 0 0 1 41.352 10a3.09 3.09 0 0 1 3.117-3.134c.423-.001.843.084 1.232.251.36.147.682.376.938.67l-.527.528a2.026 2.026 0 0 0-1.643-.711A2.32 2.32 0 0 0 42.14 10a2.36 2.36 0 0 0 4.006 1.727c.308-.332.486-.763.503-1.216h-2.179v-.72h2.907c.028.149.042.3.042.452zM52.028 7.737h-2.733V9.64h2.464v.72h-2.464v1.903h2.733V13h-3.503V7h3.503zM55.279 13h-.772V7.737h-1.676V7h4.124v.737h-1.676zM59.938 13V7h.77v6zM64.128 13h-.771V7.737H61.68V7h4.123v.737h-1.676zM73.61 12.225a3.116 3.116 0 0 1-4.4 0A3.067 3.067 0 0 1 68.326 10c-.019-.83.3-1.633.884-2.225a3.105 3.105 0 0 1 4.395.004c.585.59.905 1.391.888 2.221.018.83-.3 1.633-.884 2.225zm-3.83-.503c.9.9 2.358.9 3.259 0 .448-.459.69-1.08.667-1.722a2.348 2.348 0 0 0-.667-1.722c-.9-.9-2.36-.9-3.26 0A2.351 2.351 0 0 0 69.113 10c-.022.641.219 1.263.666 1.722zM75.575 13V7h.939l2.916 4.668h.033l-.033-1.157v-3.51h.771v6h-.805l-3.05-4.895h-.034l.034 1.157V13z" stroke="#FFF" stroke-width=".2"/>
                <path d="M68.136 21.752a4.253 4.253 0 1 0 4.27 4.253 4.192 4.192 0 0 0-4.27-4.253zm0 6.83a2.584 2.584 0 1 1 2.4-2.577 2.46 2.46 0 0 1-2.4 2.577zm-9.314-6.83a4.253 4.253 0 1 0 4.27 4.253 4.192 4.192 0 0 0-4.27-4.253zm0 6.83a2.584 2.584 0 1 1 2.4-2.577 2.46 2.46 0 0 1-2.4 2.577zm-11.078-5.525v1.804h4.317a3.766 3.766 0 0 1-.982 2.272 4.42 4.42 0 0 1-3.335 1.32 4.801 4.801 0 0 1 0-9.601 4.602 4.602 0 0 1 3.254 1.289l1.273-1.273a6.294 6.294 0 0 0-4.527-1.82 6.606 6.606 0 1 0 0 13.21 6.039 6.039 0 0 0 4.607-1.853 5.962 5.962 0 0 0 1.563-4.22 5.872 5.872 0 0 0-.097-1.128h-6.073zm45.308 1.401a3.953 3.953 0 0 0-3.641-2.706 4.042 4.042 0 0 0-4.011 4.253 4.162 4.162 0 0 0 4.22 4.253 4.23 4.23 0 0 0 3.545-1.885l-1.45-.967a2.43 2.43 0 0 1-2.095 1.176 2.164 2.164 0 0 1-2.062-1.288l5.687-2.352-.193-.484zm-5.8 1.418a2.333 2.333 0 0 1 2.223-2.481 1.647 1.647 0 0 1 1.58.902l-3.803 1.579zM82.628 30h1.87V17.5h-1.87V30zm-3.06-7.298h-.065a2.947 2.947 0 0 0-2.24-.95 4.257 4.257 0 0 0 0 8.506 2.9 2.9 0 0 0 2.24-.967h.064v.613c0 1.627-.87 2.497-2.271 2.497a2.353 2.353 0 0 1-2.143-1.515l-1.627.677a4.053 4.053 0 0 0 3.77 2.513c2.19 0 4.044-1.289 4.044-4.43v-7.637h-1.773v.693zm-2.143 5.88a2.587 2.587 0 0 1 0-5.155 2.397 2.397 0 0 1 2.271 2.594 2.377 2.377 0 0 1-2.271 2.561zm24.38-11.083h-4.47V30H99.2v-4.736h2.606a3.888 3.888 0 1 0 0-7.765zm.049 6.025H99.2v-4.285h2.654a2.143 2.143 0 1 1 0 4.285zm11.532-1.795a3.503 3.503 0 0 0-3.33 1.914l1.657.691a1.768 1.768 0 0 1 1.705-.917 1.797 1.797 0 0 1 1.962 1.609v.128a4.128 4.128 0 0 0-1.946-.482c-1.785 0-3.603.981-3.603 2.814a2.888 2.888 0 0 0 3.104 2.75 2.632 2.632 0 0 0 2.38-1.222h.065v.965h1.801v-4.792c0-2.22-1.656-3.458-3.795-3.458zm-.225 6.851c-.612 0-1.464-.305-1.464-1.061 0-.965 1.061-1.335 1.978-1.335a3.324 3.324 0 0 1 1.705.418 2.262 2.262 0 0 1-2.22 1.978zm10.582-6.578-2.139 5.42h-.064l-2.22-5.42h-2.01l3.33 7.575-1.899 4.214h1.946l5.131-11.789h-2.075zM106.936 30h1.866V17.5h-1.866V30z"/>
            </g>
            <path d="M.696.407a2.002 2.002 0 0 0-.463 1.405v22.116c-.03.51.135 1.013.463 1.405l.074.072 12.389-12.39v-.291L.77.334.696.407z" fill="url(#mkzivzrioa)" transform="translate(9.74 7.131)"/>
            <path d="m17.288 17.147-4.129-4.131v-.292l4.13-4.13.093.052 4.893 2.78c1.398.794 1.398 2.094 0 2.888l-4.893 2.78-.094.053z" fill="url(#f42xi22mkb)" transform="translate(9.74 7.131)"/>
            <path d="M17.382 17.094 13.16 12.87.696 25.333a1.627 1.627 0 0 0 2.078.061l14.608-8.3" fill="url(#whdk59kmtc)" transform="translate(9.74 7.131)"/>
            <path d="M17.382 8.646 2.774.346a1.627 1.627 0 0 0-2.078.06L13.159 12.87l4.223-4.224z" fill="url(#7d9chdn8wd)" transform="translate(9.74 7.131)"/>
            <path d="m27.029 24.132-14.516 8.247c-.59.45-1.408.454-2.003.011l-.075.074.074.073c.596.443 1.414.438 2.004-.012l14.609-8.3-.093-.093z" fill="#050506" opacity=".2"/>
            <path d="M10.435 32.318a2.003 2.003 0 0 1-.463-1.405v.147c-.03.51.135 1.012.463 1.404l.075-.074-.075-.072zM32.015 21.299l-4.986 2.833.093.093 4.893-2.78A1.755 1.755 0 0 0 33.063 20a1.862 1.862 0 0 1-1.048 1.298z" fill="#050506" opacity=".12"/>
            <path d="m12.513 7.623 19.502 11.08c.534.243.923.724 1.048 1.298a1.754 1.754 0 0 0-1.048-1.444L12.513 7.477c-1.397-.794-2.54-.134-2.54 1.466v.147c0-1.601 1.143-2.26 2.54-1.467z" fill="#FFF" opacity=".25"/>
        </g>
    </g>
</svg>
