<svg width="120" height="40" viewBox="0 0 120 40" xmlns="http://www.w3.org/2000/svg">
    <g fill-rule="nonzero" fill="none">
        <path d="M110.135 0H9.535c-.367 0-.73 0-1.095.002-.306.002-.61.008-.919.013C6.85.023 6.18.082 5.517.192a6.665 6.665 0 0 0-1.9.627A6.438 6.438 0 0 0 .193 5.522a12.993 12.993 0 0 0-.179 2.002c-.01.306-.01.614-.015.92V31.56c.005.31.006.611.015.922.008.67.068 1.34.18 2.002.11.662.32 1.305.624 1.904.303.598.701 1.143 1.179 1.614.473.477 1.02.875 1.618 1.179a6.7 6.7 0 0 0 1.901.63c.663.11 1.333.169 2.004.177.31.007.613.011.919.011.366.002.728.002 1.095.002h100.6c.36 0 .724 0 1.084-.002.304 0 .617-.004.922-.01.67-.009 1.338-.068 2-.177a6.804 6.804 0 0 0 1.908-.631A6.277 6.277 0 0 0 117.666 38a6.395 6.395 0 0 0 1.182-1.614c.302-.6.51-1.242.619-1.904.111-.662.173-1.331.185-2.002.004-.311.004-.612.004-.922.008-.364.008-.725.008-1.094V9.536c0-.366 0-.73-.008-1.092 0-.306 0-.614-.004-.92a13.507 13.507 0 0 0-.185-2.002 6.618 6.618 0 0 0-.62-1.904 6.466 6.466 0 0 0-2.798-2.8 6.768 6.768 0 0 0-1.908-.627c-.661-.11-1.33-.169-2-.176-.305-.005-.618-.011-.922-.013-.36-.002-.725-.002-1.084-.002z" fill="#A6A6A6"/>
        <path d="M8.445 39.125c-.305 0-.602-.004-.904-.01a12.687 12.687 0 0 1-1.87-.164 5.884 5.884 0 0 1-1.656-.548 5.406 5.406 0 0 1-1.397-1.016 5.32 5.32 0 0 1-1.02-1.397 5.722 5.722 0 0 1-.544-1.657 12.414 12.414 0 0 1-.166-1.875c-.007-.21-.015-.913-.015-.913v-23.1s.009-.692.015-.895a12.37 12.37 0 0 1 .165-1.872 5.755 5.755 0 0 1 .544-1.662c.26-.518.603-.99 1.015-1.398A5.565 5.565 0 0 1 5.667 1.05C6.287.95 6.915.895 7.543.887l.902-.012h102.769l.913.013c.623.007 1.244.062 1.858.162a5.938 5.938 0 0 1 1.671.548 5.594 5.594 0 0 1 2.415 2.42c.26.52.441 1.076.535 1.65.104.623.162 1.254.174 1.886.003.284.003.588.003.89.008.375.008.732.008 1.092v20.929c0 .363 0 .718-.008 1.075 0 .325 0 .623-.004.93-.011.621-.069 1.24-.17 1.853a5.739 5.739 0 0 1-.54 1.67 5.48 5.48 0 0 1-1.016 1.386 5.413 5.413 0 0 1-1.4 1.023 5.862 5.862 0 0 1-1.668.55c-.618.1-1.243.155-1.869.162-.293.007-.6.011-.897.011l-1.084.002-101.69-.002z" fill="#050506"/>
        <g fill="#FFF">
            <path d="M24.769 20.3a4.949 4.949 0 0 1 2.356-4.151 5.066 5.066 0 0 0-3.99-2.158c-1.68-.176-3.308 1.005-4.164 1.005-.872 0-2.19-.987-3.608-.958a5.315 5.315 0 0 0-4.473 2.728c-1.934 3.348-.491 8.27 1.361 10.976.927 1.325 2.01 2.806 3.428 2.753 1.387-.058 1.905-.884 3.58-.884 1.658 0 2.144.884 3.59.85 1.489-.024 2.426-1.33 3.32-2.669a10.962 10.962 0 0 0 1.52-3.092 4.782 4.782 0 0 1-2.92-4.4zM22.037 12.211a4.872 4.872 0 0 0 1.115-3.49 4.957 4.957 0 0 0-3.208 1.659 4.636 4.636 0 0 0-1.144 3.361 4.1 4.1 0 0 0 3.237-1.53z"/>
            <g>
                <path d="M42.302 27.14H37.57l-1.137 3.356h-2.005l4.484-12.418h2.083l4.483 12.418h-2.039l-1.136-3.356zm-4.243-1.55h3.752l-1.85-5.446h-.051l-1.85 5.447zM55.16 25.97c0 2.813-1.506 4.621-3.779 4.621a3.07 3.07 0 0 1-2.848-1.584h-.043v4.484H46.63V21.443h1.8v1.505h.033a3.212 3.212 0 0 1 2.883-1.6c2.298 0 3.813 1.816 3.813 4.622zm-1.91 0c0-1.833-.948-3.038-2.393-3.038-1.42 0-2.375 1.23-2.375 3.038 0 1.824.955 3.046 2.375 3.046 1.445 0 2.393-1.197 2.393-3.046zM65.125 25.97c0 2.813-1.506 4.621-3.779 4.621a3.07 3.07 0 0 1-2.848-1.584h-.043v4.484h-1.859V21.443h1.799v1.505h.034a3.212 3.212 0 0 1 2.883-1.6c2.298 0 3.813 1.816 3.813 4.622zm-1.91 0c0-1.833-.948-3.038-2.393-3.038-1.42 0-2.375 1.23-2.375 3.038 0 1.824.955 3.046 2.375 3.046 1.445 0 2.392-1.197 2.392-3.046zM71.71 27.036c.138 1.232 1.334 2.04 2.97 2.04 1.566 0 2.693-.808 2.693-1.919 0-.964-.68-1.54-2.29-1.936l-1.609-.388c-2.28-.55-3.339-1.617-3.339-3.348 0-2.142 1.867-3.614 4.519-3.614 2.624 0 4.423 1.472 4.483 3.614h-1.876c-.112-1.239-1.136-1.987-2.634-1.987-1.497 0-2.521.757-2.521 1.859 0 .877.654 1.394 2.255 1.79l1.368.335c2.548.603 3.606 1.626 3.606 3.443 0 2.323-1.85 3.778-4.793 3.778-2.754 0-4.614-1.42-4.734-3.667h1.902zM83.346 19.3v2.143h1.722v1.471h-1.722v4.991c0 .776.345 1.137 1.102 1.137.204-.003.408-.018.611-.043v1.463c-.34.064-.686.092-1.032.086-1.833 0-2.548-.689-2.548-2.444v-5.19h-1.316v-1.471h1.316V19.3h1.867zM86.065 25.97c0-2.849 1.678-4.639 4.294-4.639 2.625 0 4.295 1.79 4.295 4.639 0 2.856-1.661 4.639-4.295 4.639-2.633 0-4.294-1.783-4.294-4.64zm6.695 0c0-1.954-.895-3.108-2.401-3.108-1.506 0-2.4 1.163-2.4 3.108 0 1.962.894 3.106 2.4 3.106 1.506 0 2.401-1.144 2.401-3.106zM96.186 21.443h1.773v1.54h.043a2.16 2.16 0 0 1 2.177-1.635c.214-.001.428.022.637.07v1.737a2.598 2.598 0 0 0-.835-.112 1.873 1.873 0 0 0-1.937 2.083v5.37h-1.858v-9.053zM109.384 27.837c-.25 1.644-1.85 2.772-3.898 2.772-2.634 0-4.269-1.765-4.269-4.596 0-2.84 1.644-4.682 4.19-4.682 2.506 0 4.08 1.72 4.08 4.466v.637h-6.394v.112a2.358 2.358 0 0 0 2.436 2.564 2.048 2.048 0 0 0 2.09-1.273h1.765zm-6.282-2.702h4.526a2.177 2.177 0 0 0-2.22-2.298 2.292 2.292 0 0 0-2.306 2.298z"/>
            </g>
        </g>
        <g fill="#FFF">
            <path d="M37.826 8.731a2.64 2.64 0 0 1 2.808 2.965c0 1.906-1.03 3.002-2.808 3.002h-2.155V8.731h2.155zm-1.228 5.123h1.125a1.876 1.876 0 0 0 1.967-2.146 1.881 1.881 0 0 0-1.967-2.134h-1.125v4.28zM41.68 12.444a2.133 2.133 0 1 1 4.248 0 2.134 2.134 0 1 1-4.247 0zm3.334 0c0-.976-.439-1.546-1.208-1.546-.773 0-1.207.57-1.207 1.546 0 .984.434 1.55 1.207 1.55.77 0 1.208-.57 1.208-1.55zM51.573 14.698h-.922l-.93-3.317h-.07l-.927 3.317h-.913l-1.242-4.503h.902l.806 3.436h.067l.926-3.436h.852l.926 3.436h.07l.803-3.436h.889zM53.854 10.195h.855v.715h.066c.231-.526.771-.849 1.344-.802a1.465 1.465 0 0 1 1.559 1.675v2.915h-.889v-2.692c0-.724-.314-1.084-.972-1.084a1.033 1.033 0 0 0-1.075 1.142v2.634h-.888v-4.503zM59.094 8.437h.888v6.26h-.888zM61.218 12.444a2.133 2.133 0 1 1 4.247 0 2.134 2.134 0 1 1-4.247 0zm3.333 0c0-.976-.439-1.546-1.208-1.546-.773 0-1.207.57-1.207 1.546 0 .984.434 1.55 1.207 1.55.77 0 1.208-.57 1.208-1.55zM66.4 13.424c0-.81.604-1.277 1.676-1.344l1.22-.07v-.389c0-.475-.315-.744-.922-.744-.497 0-.84.182-.939.5h-.86c.09-.773.818-1.269 1.84-1.269 1.128 0 1.765.562 1.765 1.513v3.077h-.855v-.633h-.07c-.291.462-.808.732-1.353.707a1.36 1.36 0 0 1-1.501-1.348zm2.895-.384v-.377l-1.1.07c-.62.042-.9.253-.9.65 0 .405.351.641.834.641a1.062 1.062 0 0 0 1.166-.984zM71.348 12.444c0-1.422.732-2.324 1.87-2.324a1.484 1.484 0 0 1 1.38.79h.067V8.437h.888v6.26h-.851v-.71h-.07a1.563 1.563 0 0 1-1.415.785c-1.145 0-1.869-.901-1.869-2.328zm.918 0c0 .956.45 1.53 1.203 1.53.75 0 1.212-.583 1.212-1.526 0-.938-.468-1.53-1.212-1.53-.748 0-1.203.58-1.203 1.526zM79.23 12.444a2.133 2.133 0 1 1 4.247 0 2.134 2.134 0 1 1-4.247 0zm3.333 0c0-.976-.438-1.546-1.208-1.546-.772 0-1.207.57-1.207 1.546 0 .984.435 1.55 1.207 1.55.77 0 1.208-.57 1.208-1.55zM84.67 10.195h.855v.715h.066c.231-.526.77-.849 1.344-.802a1.465 1.465 0 0 1 1.559 1.675v2.915h-.889v-2.692c0-.724-.314-1.084-.972-1.084a1.033 1.033 0 0 0-1.075 1.142v2.634h-.889v-4.503zM93.515 9.074v1.141h.976v.749h-.976v2.315c0 .472.195.679.637.679.113 0 .226-.008.339-.02v.74c-.16.028-.322.043-.484.045-.988 0-1.381-.348-1.381-1.216v-2.543h-.715v-.749h.715V9.074h.89zM95.705 8.437h.88v2.482h.07a1.386 1.386 0 0 1 1.374-.807 1.483 1.483 0 0 1 1.55 1.679v2.907h-.889V12.01c0-.72-.335-1.084-.963-1.084a1.052 1.052 0 0 0-1.134 1.142v2.63h-.888v-6.26zM104.761 13.482a1.828 1.828 0 0 1-1.95 1.303 2.045 2.045 0 0 1-2.081-2.324 2.077 2.077 0 0 1 2.076-2.353c1.253 0 2.009.856 2.009 2.27v.31h-3.18v.05a1.19 1.19 0 0 0 1.2 1.29 1.08 1.08 0 0 0 1.07-.546h.856zm-3.126-1.451h2.275a1.086 1.086 0 0 0-1.109-1.167 1.152 1.152 0 0 0-1.166 1.167z"/>
        </g>
    </g>
</svg>
