<svg width="32" height="32" viewBox="0 0 32 32" xmlns="http://www.w3.org/2000/svg">
    <g fill="none" fill-rule="evenodd">
        <path d="m15.368 4.77-8 2.666A2 2 0 0 0 6 9.333v7.117c0 2.943 1.478 5.41 3.51 7.42 2.036 2.014 4.47 3.408 5.963 4.147.338.167.716.167 1.054 0 1.493-.74 3.927-2.133 5.963-4.147 2.032-2.01 3.51-4.477 3.51-7.42V9.333a2 2 0 0 0-1.368-1.897l-8-2.667a2 2 0 0 0-1.264 0z" fill="currentColor"/>
        <path d="M0 0h32v32H0z"/>
        <path d="M14.735 2.872a4 4 0 0 1 2.53 0l8 2.667A4 4 0 0 1 28 9.333v7.117c0 7.336-7.414 11.79-10.587 13.36a3.169 3.169 0 0 1-2.826 0C11.414 28.24 4 23.785 4 16.45V9.333A4 4 0 0 1 6.735 5.54zm.633 1.897-8 2.667A2 2 0 0 0 6 9.333v7.117c0 2.943 1.478 5.41 3.51 7.42 2.036 2.014 4.47 3.408 5.963 4.147.338.167.716.167 1.054 0 1.493-.74 3.927-2.133 5.963-4.147 2.032-2.01 3.51-4.477 3.51-7.42V9.333a2 2 0 0 0-1.368-1.897l-8-2.667a2 2 0 0 0-1.264 0zm5.34 8.307a1 1 0 0 1 0 1.415l-4.58 4.579a2.066 2.066 0 0 1-2.923 0l-1.912-1.913a1 1 0 1 1 1.414-1.414l1.912 1.913a.067.067 0 0 0 .095 0l4.579-4.58a1 1 0 0 1 1.414 0z" fill="#050506"/>
    </g>
</svg>
