<svg xmlns="http://www.w3.org/2000/svg" fill="none" viewBox="0 0 312 204"><g clip-path="url(#a)"><g filter="url(#b)"><path fill="#000" d="M8 0h306v204H8a8 8 0 0 1-8-8V8a8 8 0 0 1 8-8Z"/></g><path fill="#fff" fill-rule="evenodd" stroke="#0C0C0E" stroke-width="2" d="M313 1v202H8a6.98 6.98 0 0 1-7-7V8a6.98 6.98 0 0 1 7-7h305Z" clip-rule="evenodd"/><path fill="#050506" d="M92 47.73h3.4l1.45 1.85 1.9 2.18 2.93 3.6h-3.82l-2.05-2.44-1.2-1.74-2.62-3.45Zm9.8-2.46c0 1.92-.37 3.55-1.11 4.89a7.55 7.55 0 0 1-3 3.04 8.6 8.6 0 0 1-4.23 1.04 8.56 8.56 0 0 1-4.24-1.05 7.63 7.63 0 0 1-2.99-3.04 10 10 0 0 1-1.1-4.88c0-1.92.37-3.55 1.1-4.88a7.56 7.56 0 0 1 3-3.04 8.62 8.62 0 0 1 4.23-1.04 8.6 8.6 0 0 1 4.23 1.04c1.26.69 2.26 1.7 3 3.04a9.97 9.97 0 0 1 1.1 4.88Zm-4.32 0c0-1.13-.16-2.1-.48-2.88a3.78 3.78 0 0 0-1.38-1.78c-.6-.4-1.32-.6-2.16-.6-.83 0-1.55.2-2.16.6-.6.4-1.06 1-1.39 1.78a7.68 7.68 0 0 0-.47 2.88c0 1.14.16 2.1.47 2.88.33.79.8 1.38 1.4 1.78.6.4 1.31.61 2.15.61.84 0 1.56-.2 2.16-.6.6-.4 1.06-1 1.38-1.79.32-.78.48-1.74.48-2.88Zm9.25 8.73-3.41-13.1h4.18l1.77 8.4h.1l1.9-8.4h4.08l1.95 8.34h.1l1.72-8.33h4.19L119.89 54h-4.46l-2.05-7.63h-.14L111.19 54h-4.46Zm21.94.22c-.84 0-1.58-.14-2.23-.42a3.46 3.46 0 0 1-1.52-1.27 3.9 3.9 0 0 1-.56-2.16 4 4 0 0 1 .39-1.84c.25-.5.6-.9 1.05-1.22.45-.31.97-.55 1.56-.7.58-.17 1.2-.28 1.87-.34.74-.07 1.34-.14 1.8-.21.45-.08.78-.2.99-.34a.72.72 0 0 0 .31-.62v-.04c0-.44-.15-.78-.45-1.01-.3-.24-.7-.36-1.22-.36-.55 0-1 .12-1.33.36-.33.23-.55.56-.64.98l-3.84-.13a4.56 4.56 0 0 1 2.84-3.62 7.5 7.5 0 0 1 3-.54c.84 0 1.61.1 2.32.3.7.19 1.31.47 1.84.85a3.86 3.86 0 0 1 1.64 3.21V54h-3.92v-1.82h-.1a3.71 3.71 0 0 1-2.17 1.81 5.4 5.4 0 0 1-1.63.23Zm1.29-2.73c.44 0 .85-.09 1.2-.27.37-.18.66-.43.87-.75.22-.32.33-.7.33-1.12V48.1a7.25 7.25 0 0 1-1.6.43l-.6.1c-.4.06-.73.16-1 .29-.28.13-.49.3-.64.51-.14.2-.21.45-.21.73 0 .44.15.77.46 1 .31.22.7.33 1.19.33Zm13.25-4.96V54h-4.17V40.9H143v2.41h.15c.29-.8.78-1.43 1.48-1.88.7-.46 1.53-.7 2.5-.7.92 0 1.72.22 2.4.63.68.41 1.2.98 1.58 1.72.38.74.57 1.6.56 2.58V54h-4.17v-7.53c0-.72-.18-1.3-.55-1.7-.37-.4-.88-.61-1.54-.61-.44 0-.83.1-1.16.29-.33.18-.59.45-.77.8-.18.36-.27.78-.27 1.28Zm18.43-5.62v3.07h-8.26V40.9h8.26Zm-6.53-3.14h4.17v12.11c0 .26.04.47.12.63.08.15.2.26.36.33.16.06.35.1.58.1a3.16 3.16 0 0 0 .9-.14l.64 3.01-.84.22a7 7 0 0 1-1.3.16 6.12 6.12 0 0 1-2.5-.34 3.26 3.26 0 0 1-1.6-1.3 4 4 0 0 1-.53-2.2V37.76Zm17.78-1.22 3.9 12.78h.14l3.9-12.78h4.73L179.67 54h-5.62l-5.89-17.45h4.73Zm18.77 0V54h-4.22V36.55h4.22ZM194.3 54V36.55h7.2c1.31 0 2.44.25 3.39.76.95.5 1.69 1.22 2.2 2.12.52.9.78 1.96.78 3.16 0 1.2-.26 2.26-.8 3.16a5.3 5.3 0 0 1-2.23 2.09c-.97.5-2.13.74-3.46.74h-4.45v-3.32h3.66c.64 0 1.17-.12 1.6-.34.43-.22.76-.53.98-.93.22-.4.33-.87.33-1.4 0-.54-.11-1-.33-1.4-.22-.4-.55-.7-.98-.92a3.54 3.54 0 0 0-1.6-.32h-2.08V54h-4.22Zm16.17 0V40.9h1.95v1.99h.13c.24-.65.67-1.18 1.3-1.58.62-.4 1.33-.6 2.11-.6a22.2 22.2 0 0 1 1.06.03v2.04a5.89 5.89 0 0 0-1.23-.13c-.64 0-1.2.13-1.7.4a2.94 2.94 0 0 0-1.6 2.67V54h-2.02Zm8.93 0V40.9h2.01V54h-2Zm1.02-15.27c-.39 0-.73-.14-1.01-.4a1.29 1.29 0 0 1-.42-.97c0-.37.14-.7.42-.96.28-.27.62-.4 1.01-.4.4 0 .73.13 1.01.4s.43.59.43.96c0 .38-.15.7-.43.97-.28.26-.61.4-1 .4Zm15.38 2.18L230.97 54h-2.04l-4.85-13.1h2.19l3.6 10.44h.15l3.6-10.43h2.2Zm6.11 13.4c-.83 0-1.58-.16-2.26-.47a3.88 3.88 0 0 1-1.61-1.37c-.4-.6-.6-1.33-.6-2.19 0-.75.15-1.35.45-1.82.3-.47.69-.84 1.18-1.1.5-.27 1.04-.47 1.64-.6.6-.14 1.2-.25 1.81-.33l1.94-.23c.5-.06.86-.15 1.09-.28.23-.13.35-.36.35-.68v-.07c0-.84-.23-1.5-.7-1.96-.45-.47-1.14-.7-2.06-.7-.96 0-1.72.21-2.26.63-.55.42-.93.87-1.15 1.35l-1.91-.68a4.58 4.58 0 0 1 3.24-2.8 7.79 7.79 0 0 1 3.46-.12c.55.1 1.08.3 1.6.6.5.31.94.78 1.28 1.4.34.62.51 1.45.51 2.48V54h-2.01v-1.77h-.1a3.93 3.93 0 0 1-1.95 1.74c-.53.22-1.18.34-1.94.34Zm.3-1.81c.8 0 1.47-.16 2.02-.47a3.19 3.19 0 0 0 1.67-2.77v-1.84c-.09.1-.27.2-.56.28a9.5 9.5 0 0 1-1 .21 45.22 45.22 0 0 1-1.92.26c-.52.07-1.01.18-1.47.33-.44.15-.8.38-1.09.68-.27.3-.4.7-.4 1.2 0 .7.25 1.23.77 1.6.52.34 1.19.52 1.99.52Zm14.69 1.77a5.66 5.66 0 0 1-3.17-.87 5.66 5.66 0 0 1-2.05-2.4 8.12 8.12 0 0 1-.71-3.48c0-1.33.24-2.5.73-3.52a5.54 5.54 0 0 1 5.16-3.26c.93 0 1.75.17 2.5.51.73.34 1.34.82 1.8 1.43.48.62.77 1.33.89 2.15h-2.01c-.16-.6-.5-1.13-1.03-1.59a3.06 3.06 0 0 0-2.11-.7c-.79 0-1.47.21-2.06.62a4 4 0 0 0-1.38 1.71c-.32.74-.48 1.6-.48 2.58 0 1.02.16 1.9.48 2.65.32.75.77 1.33 1.36 1.74.59.42 1.28.63 2.08.63.52 0 1-.1 1.42-.28a2.94 2.94 0 0 0 1.72-2h2a4.66 4.66 0 0 1-2.6 3.55c-.73.35-1.57.53-2.54.53Zm9.38 4.64a4.4 4.4 0 0 1-1.46-.24l.5-1.77c.5.12.93.17 1.3.13.38-.03.71-.2 1-.5a4 4 0 0 0 .81-1.44l.38-1.02-4.85-13.16h2.19l3.61 10.43h.14l3.61-10.43h2.18l-5.56 15a5.68 5.68 0 0 1-.92 1.68c-.37.45-.8.78-1.3 1-.47.21-1.02.32-1.63.32Z"/><path fill="#5C97FF" d="M68 24H28a4 4 0 0 0-4 4v40a4 4 0 0 0 4 4h40a4 4 0 0 0 4-4V28a4 4 0 0 0-4-4Z"/><path fill="#050506" fill-rule="evenodd" d="M47.37 59.83a14.93 14.93 0 0 0 14.71-14.91C62.08 36.69 55.4 30 47.17 30c-8.23 0-14.92 6.7-14.92 14.92 0 8.22 6.69 14.91 14.91 14.91L49.1 66h14.87l-1.94-6.17H47.37ZM37.3 44.92a9.88 9.88 0 0 1 19.74 0 9.88 9.88 0 0 1-19.74 0Z" clip-rule="evenodd"/><path fill="#C8CBD0" d="M284 88H28a4 4 0 0 0 0 8h256a4 4 0 0 0 0-8ZM180 104H28a4 4 0 0 0 0 8h152a4 4 0 0 0 0-8Z"/><path stroke="#050506" stroke-width="2" d="M266 137h-84a21 21 0 1 0 0 42h84a21 21 0 1 0 0-42Z"/><path fill="#676E79" d="M268 154h-88a4 4 0 0 0 0 8h88a4 4 0 0 0 0-8Z"/><g filter="url(#c)"><path fill="#000" d="M233.43 156.47c.37-.42.92-.57 1.43-.4l24.65 8c.52.16.9.64 1.01 1.22.1.59-.1 1.19-.52 1.56l-5.98 5.28 7.55 8.34c.28.3.43.7.43 1.13 0 .43-.15.83-.43 1.13l-4.35 4.8c-.27.3-.64.47-1.02.47s-.75-.17-1.03-.47l-7.55-8.33-4.79 6.6c-.34.47-.88.69-1.41.57a1.51 1.51 0 0 1-1.11-1.12l-7.25-27.2a1.71 1.71 0 0 1 .37-1.58Z"/></g><path fill="#fff" stroke="#000" stroke-linejoin="round" stroke-width="2" d="M233.43 156.47c.37-.42.92-.57 1.43-.4l24.65 8c.52.16.9.64 1.01 1.22.1.59-.1 1.19-.52 1.56l-5.98 5.28 7.55 8.34c.28.3.43.7.43 1.13 0 .43-.15.83-.43 1.13l-4.35 4.8c-.27.3-.64.47-1.02.47s-.75-.17-1.03-.47l-7.55-8.33-4.79 6.6c-.34.47-.88.69-1.41.57a1.51 1.51 0 0 1-1.11-1.12l-7.25-27.2a1.71 1.71 0 0 1 .37-1.58Z"/><path fill="#fff" d="M130 136H94a22 22 0 0 0 0 44h36a22 22 0 0 0 0-44Z"/><path fill="#C8CBD0" d="M132 154H92a4 4 0 0 0 0 8h40a4 4 0 0 0 0-8Z"/></g><defs><filter id="b" width="318" height="208" x="0" y="0" color-interpolation-filters="sRGB" filterUnits="userSpaceOnUse"><feFlood flood-opacity="0" result="BackgroundImageFix"/><feBlend in="SourceGraphic" in2="BackgroundImageFix" result="shape"/><feColorMatrix in="SourceAlpha" result="hardAlpha" values="0 0 0 0 0 0 0 0 0 0 0 0 0 0 0 0 0 0 127 0"/><feOffset dx="8" dy="8"/><feGaussianBlur stdDeviation="2"/><feComposite in2="hardAlpha" k2="-1" k3="1" operator="arithmetic"/><feColorMatrix values="0 0 0 0 0.0196078 0 0 0 0 0.0196078 0 0 0 0 0.0235294 0 0 0 0.16 0"/><feBlend in2="shape" result="effect1_innerShadow_912_5"/></filter><filter id="c" width="33" height="36" x="229" y="156" color-interpolation-filters="sRGB" filterUnits="userSpaceOnUse"><feFlood flood-opacity="0" result="BackgroundImageFix"/><feBlend in="SourceGraphic" in2="BackgroundImageFix" result="shape"/><feColorMatrix in="SourceAlpha" result="hardAlpha" values="0 0 0 0 0 0 0 0 0 0 0 0 0 0 0 0 0 0 127 0"/><feOffset dx="-4" dy="4"/><feGaussianBlur stdDeviation="2"/><feComposite in2="hardAlpha" k2="-1" k3="1" operator="arithmetic"/><feColorMatrix values="0 0 0 0 0.0196078 0 0 0 0 0.0196078 0 0 0 0 0.0235294 0 0 0 0.16 0"/><feBlend in2="shape" result="effect1_innerShadow_912_5"/></filter><clipPath id="a"><path fill="#fff" d="M0 0h312v204H0z"/></clipPath></defs></svg>