<svg width="88" height="88" viewBox="0 0 88 88" xmlns="http://www.w3.org/2000/svg">
    <path d="M0 0h3.52v10.56H0V0zm3.52 3.52V0h10.56v3.52H3.52zm10.56 0V0h7.04v3.52h-7.04zM21.12 0h3.52v10.56h-3.52V0zm7.04 0h3.52v3.52h-3.52V0zm7.04 0h3.52v3.52H35.2V0zm14.08 7.04v3.52h-3.52V7.04h3.52zm0-7.04v3.52h-3.52v3.52h-7.04V3.52h3.52V0h7.04zm0 0h7.04v3.52H52.8v3.52h-3.52V0zm7.04 0h3.52v3.52h-3.52V0zm7.04 0h3.52v10.56h-3.52V0zm3.52 3.52V0h7.04v3.52h-7.04zm7.04 0V0h10.56v3.52H73.92zM84.48 0H88v10.56h-3.52V0zM7.04 10.56V7.04h7.04v3.52H7.04zm7.04-3.52h3.52v3.52h-3.52V7.04zm17.6 0h3.52v3.52h-3.52V7.04zm24.64 0h3.52v3.52h-3.52V7.04zm14.08 0h3.52v3.52H70.4V7.04zm3.52 3.52V7.04h7.04v3.52h-7.04zM0 10.56h3.52v3.52H0v-3.52zm7.04 3.52v-3.52h7.04v3.52H7.04zm7.04-3.52h3.52v3.52h-3.52v-3.52zm7.04 0h3.52v3.52h-3.52v-3.52zm7.04 0h3.52v3.52h-3.52v-3.52zm3.52 3.52v-3.52h7.04v3.52h-7.04zm14.08-3.52h3.52v3.52h-3.52v-3.52zm7.04 0h3.52v3.52H52.8v-3.52zm10.56 0h3.52v3.52h-3.52v-3.52zm7.04 0h3.52v3.52H70.4v-3.52zm3.52 3.52v-3.52h7.04v3.52h-7.04zm10.56-3.52H88v3.52h-3.52v-3.52zM0 14.08h3.52v10.56H0V14.08zm7.04 3.52v-3.52h7.04v3.52H7.04zm7.04-3.52h3.52v3.52h-3.52v-3.52zm7.04 0h3.52v10.56h-3.52V14.08zm7.04 0h3.52v10.56h-3.52V14.08zm3.52 0h3.52v3.52h-3.52v-3.52zm7.04 7.04V17.6h7.04v-3.52h3.52v7.04h-3.52v3.52h-3.52v-3.52h-3.52zm14.08-7.04h3.52v3.52H52.8v-3.52zm10.56 0h3.52v10.56h-3.52V14.08zm7.04 0h3.52v3.52H70.4v-3.52zm3.52 3.52v-3.52h7.04v3.52h-7.04zm10.56-3.52H88v10.56h-3.52V14.08zM56.32 17.6h3.52v7.04h-3.52V17.6zm-52.8 7.04v-3.52h10.56v3.52H3.52zm10.56 0v-3.52h7.04v3.52h-7.04zm21.12-3.52h3.52v3.52H35.2v-3.52zm14.08 0h3.52v3.52h-3.52v-3.52zm17.6 3.52v-3.52h7.04v3.52h-7.04zm7.04 0v-3.52h10.56v3.52H73.92zm-45.76 0h3.52v3.52h-3.52v-3.52zm3.52 0h3.52v3.52h-3.52v-3.52zm7.04 0h3.52v3.52h-3.52v-3.52zm7.04 0h3.52v3.52h-3.52v-3.52zm3.52 0h3.52v3.52h-3.52v-3.52zM0 28.16h3.52v3.52H0v-3.52zm3.52 3.52v-3.52h7.04v3.52H3.52zm10.56-3.52h3.52v3.52h-3.52v-3.52zm7.04 0h3.52v3.52h-3.52v-3.52zm7.04 0h3.52v3.52h-3.52v-3.52zm10.56 3.52v-3.52h7.04v3.52h-7.04zm14.08-3.52h3.52v3.52H52.8v-3.52zm7.04 3.52v-3.52h7.04v3.52h-7.04zm7.04 0v-3.52h7.04v3.52h-7.04zm7.04-3.52h3.52v3.52h-3.52v-3.52zm10.56 0H88v3.52h-3.52v-3.52zM3.52 31.68h3.52v7.04H3.52v-7.04zm17.6 7.04h-7.04V35.2h3.52v-3.52h3.52v7.04zm0 0V35.2h7.04v-3.52h3.52v7.04H21.12zm10.56-7.04h3.52v7.04h-3.52v-7.04zm17.6 7.04H38.72V35.2h3.52v-3.52h7.04v7.04zm0-3.52v-3.52h7.04v3.52h-7.04zm14.08-3.52h3.52v7.04h-3.52v-7.04zm3.52 0h3.52v3.52h-3.52v-3.52zm17.6 0H88v3.52h-3.52v-3.52zM0 35.2h3.52v3.52H0V35.2zm10.56 0h3.52v3.52h-3.52V35.2zm63.36 3.52V35.2h10.56v3.52H73.92zm-70.4 0h3.52v7.04H3.52v-7.04zm14.08 0h3.52v3.52H17.6v-3.52zm28.16 0v3.52h-3.52v3.52h-3.52v-7.04h7.04zm3.52 3.52v3.52h-3.52v-3.52h3.52zm14.08-3.52v3.52h-3.52v3.52h-3.52v-7.04h7.04zm3.52 3.52v3.52h-3.52v-3.52h3.52zm0 0v-3.52h7.04v3.52h-7.04zm17.6 3.52h-3.52v-3.52h-3.52v3.52h-3.52v-3.52h3.52v-3.52h7.04v7.04zm0-7.04H88v7.04h-3.52v-7.04zM0 42.24h3.52v3.52H0v-3.52zm21.12 3.52v-3.52h7.04v3.52h-7.04zm14.08-3.52h3.52v3.52H35.2v-3.52zm17.6 0h3.52v3.52H52.8v-3.52zM7.04 49.28v-3.52h7.04v3.52H7.04zm10.56 0v-3.52h3.52v3.52H17.6v3.52h-3.52v-3.52h3.52zm10.56 3.52v-3.52h-3.52v3.52h-3.52v-3.52h3.52v-3.52h3.52v3.52h3.52v3.52h-3.52v3.52h-3.52V52.8h3.52zm3.52-7.04h7.04v3.52H35.2v3.52h3.52v3.52h-7.04V45.76zm17.6 0h3.52v7.04h3.52v3.52h-7.04V45.76zm7.04 0h7.04v3.52h-3.52v3.52h3.52v3.52h-7.04V45.76zm10.56 3.52v-3.52h7.04v3.52h-7.04zm17.6 3.52v3.52H73.92V45.76h10.56v3.52h-7.04v3.52h7.04zm0-7.04H88v3.52h-3.52v-3.52zM0 49.28h3.52v3.52H0v-3.52zm42.24 7.04V52.8h3.52v-3.52h3.52v7.04h-7.04zm0-7.04v3.52h-3.52v-3.52h3.52zM7.04 52.8h3.52v3.52H7.04V52.8zm59.84 3.52V52.8h7.04v3.52h-7.04zM0 56.32h3.52v3.52H0v-3.52zm14.08 3.52v-3.52h7.04v3.52h-7.04zm17.6-3.52v7.04h-3.52l-.001-3.521-7.039.001v-3.52h10.56zm3.52 3.52v-3.52h3.52v3.52H35.2v3.52h-3.52v-3.52h3.52zm14.08-3.52v7.04h-3.52v-3.52h-7.04v-3.52h10.56zm10.56 3.52v3.52h-3.52v-7.04h10.56v3.52h-7.04zm7.04 0v-3.52h7.04v7.04H70.4v-3.52h-3.52zm7.04 0v-3.52h3.52v3.52h3.52v3.52h-3.52v-3.52h-3.52zm10.56-3.52H88v7.04h-3.52v-7.04zm-35.2 7.04v-3.52h7.04v3.52h-7.04zM0 63.36h3.52v7.04H0v-7.04zm3.52 3.52v-3.52h10.56v3.52H3.52zm10.56 0v-3.52h7.04v3.52h-7.04zm7.04-3.52h3.52v7.04h-3.52v-7.04zm17.6 7.04h-7.04v-3.52h3.52v-3.52h3.52v7.04zm3.52-3.52v3.52h-3.52v-3.52h3.52zm3.52-3.52v3.52h-3.52v-3.52h3.52zm3.52 3.52v-3.52h3.52v3.52h3.52v3.52H52.8v-3.52h-3.52zm7.04-3.52h3.52v7.04h-3.52v-7.04zm7.04 0h3.52v3.52h-3.52v-3.52zm7.04 0h3.52v7.04H70.4v-7.04zm3.52 0h3.52v3.52h-3.52v-3.52zm7.04 3.52h3.52v3.52h-3.52v-3.52zM0 70.4h3.52v7.04H0V70.4zm14.08 7.04H7.04V70.4h7.04v7.04zm0-7.04h3.52v7.04h-3.52V70.4zm7.04 0h3.52v7.04h-3.52V70.4zm7.04 0h3.52v3.52h-3.52V70.4zm3.52 7.04V70.4h3.52v3.519l3.52.001v3.52h-7.04zm14.08-7.04h3.52v3.52h-3.52V70.4zm3.52 7.04V70.4h3.52v3.519l3.52.001v3.52h-7.04zm7.04-3.52V70.4h10.56v3.52H56.32zm10.56 0V70.4h7.04v3.52h-7.04zm10.56-3.52h7.04v3.52h-3.52v3.52h-3.52V70.4zm-38.72 3.52h3.52v3.52h-3.52v-3.52zm45.76 0H88v3.52h-3.52v-3.52zM0 77.44h3.52V88H0V77.44zm7.04 3.52v-3.52h7.04v3.52H7.04zm7.04-3.52h3.52v3.52h-3.52v-3.52zm7.04 0h3.52V88h-3.52V77.44zm7.04 0h3.52V88h-3.52V77.44zm3.52 7.04v-7.04h3.52v7.04h3.52V88H35.2v-3.52h-3.52zM38.72 88V77.44h3.52v7.04h3.52V88h-7.04zm10.56-7.04v3.52h-3.52v-3.52h3.52zm0-3.52h7.04v3.52H52.8v3.52h3.52V88h-7.04V77.44zm17.6 7.04V88h-3.52v-3.52h3.52zm-3.52-7.04v7.04h-7.04v-7.04h7.04zM84.48 88H73.92v-7.04h3.52v-3.52h7.04V88zM70.4 80.96h3.52V88H70.4v-7.04zM3.52 88v-3.52h10.56V88H3.52zm10.56 0v-3.52h7.04V88h-7.04zm70.4-3.52H88V88h-3.52v-3.52z" fill="#050506" fill-rule="evenodd"/>
</svg>
