<svg width="14" height="14" viewBox="0 0 14 14" xmlns="http://www.w3.org/2000/svg">
    <g fill="none" fill-rule="evenodd">
        <path d="M11 .5c.69 0 1.315.28 1.768.732.452.453.732 1.078.732 1.768v8c0 .69-.28 1.315-.732 1.768A2.492 2.492 0 0 1 11 13.5H3c-.69 0-1.315-.28-1.768-.732A2.492 2.492 0 0 1 .5 11V3c0-.69.28-1.315.732-1.768A2.492 2.492 0 0 1 3 .5z" stroke="#050506"/>
        <path d="M7.047 10.081a3.889 3.889 0 0 0 3.832-3.884 3.889 3.889 0 0 0-3.885-3.885 3.889 3.889 0 0 0-3.885 3.885 3.889 3.889 0 0 0 3.885 3.885l.503 1.605h3.872l-.504-1.606H7.047zM4.424 6.197a2.573 2.573 0 0 1 2.57-2.57 2.573 2.573 0 0 1 2.57 2.57 2.573 2.573 0 0 1-2.57 2.57 2.573 2.573 0 0 1-2.57-2.57z" fill="#050506"/>
    </g>
</svg>