<svg xmlns="http://www.w3.org/2000/svg" viewBox="0 0 224 44"><g fill="none" fill-rule="evenodd"><path fill="#5C97FF" d="M7.33 0h29.34A7.33 7.33 0 0 1 44 7.33v29.34A7.33 7.33 0 0 1 36.67 44H7.33A7.33 7.33 0 0 1 0 36.67V7.33A7.33 7.33 0 0 1 7.33 0Z"/><path fill="#050506" d="M22.08 31.86a12.44 12.44 0 0 0 12.26-12.43C34.34 12.58 28.76 7 21.9 7A12.44 12.44 0 0 0 9.47 19.43c0 6.85 5.58 12.43 12.43 12.43L23.52 37H35.9l-1.62-5.14H22.08Zm-8.4-12.43a8.23 8.23 0 0 1 16.45 0 8.23 8.23 0 0 1-16.45 0Z"/><g fill="#050506"><g fill-rule="nonzero"><path d="M132.8 12.07h-3.44l6.1 17.06h3.87l6.11-17.06h-3.45l-4.5 13.43h-.18zM149.68 12.07h-3.14v17.06h3.14zM152.07 29.13h3.14v-5.76h3.31c4 0 6.15-2.37 6.15-5.65 0-3.26-2.12-5.65-6.1-5.65h-6.5v17.06Zm3.14-8.3v-6.18h2.87c2.35 0 3.4 1.25 3.4 3.07 0 1.81-1.05 3.1-3.38 3.1h-2.9ZM166.6 29.13v-12.8h1.46v1.97h.12c.25-.65.7-1.17 1.35-1.56.65-.4 1.38-.6 2.2-.6a17.22 17.22 0 0 1 .79.03v1.5l-.35-.05a3.78 3.78 0 0 0-2.36.39 3.17 3.17 0 0 0-1.7 2.86v8.26h-1.51ZM173.98 29.13v-12.8h1.51v12.8H174Zm.77-15c-.3 0-.57-.1-.8-.31a1 1 0 0 1-.33-.75 1 1 0 0 1 .33-.76c.22-.2.49-.31.8-.31.3 0 .57.1.8.31a1 1 0 0 1 .33.76 1 1 0 0 1-.33.75c-.23.2-.5.31-.8.31ZM188.42 16.33l-4.75 12.8h-1.6l-4.75-12.8h1.63l3.86 10.85h.11l3.86-10.85zM193.39 29.42c-.79 0-1.5-.15-2.15-.45a3.7 3.7 0 0 1-1.55-1.32 3.69 3.69 0 0 1-.58-2.1c0-.63.12-1.16.36-1.6.25-.43.6-.78 1.04-1.06.44-.28.97-.5 1.58-.66.61-.16 1.28-.28 2.02-.38l1.84-.23c.51-.06.9-.17 1.16-.31.26-.14.4-.38.4-.7v-.3c0-.88-.27-1.56-.8-2.07-.52-.5-1.28-.75-2.26-.75-.94 0-1.7.2-2.3.6-.59.41-1 .9-1.23 1.44l-1.44-.5c.3-.7.7-1.26 1.22-1.68.52-.42 1.1-.73 1.74-.91a6.97 6.97 0 0 1 3.51-.1c.54.14 1.04.36 1.5.67.46.32.84.75 1.13 1.3.29.57.43 1.27.43 2.13v8.7h-1.5V27.1h-.1a4.02 4.02 0 0 1-2.14 1.97c-.53.23-1.16.34-1.88.34Zm.2-1.35a4 4 0 0 0 2.08-.53 3.62 3.62 0 0 0 1.36-1.4c.31-.58.47-1.22.47-1.92v-1.84c-.1.1-.3.2-.56.28-.26.08-.56.16-.9.22a20.24 20.24 0 0 1-1.93.27 8.6 8.6 0 0 0-1.88.42 2.7 2.7 0 0 0-1.2.78c-.27.33-.4.76-.4 1.27 0 .78.27 1.38.84 1.8.56.43 1.27.65 2.12.65ZM206.9 29.4a5.35 5.35 0 0 1-5.04-3.21c-.47-1-.7-2.13-.7-3.4 0-1.29.23-2.43.72-3.43.48-1 1.15-1.78 2-2.35a5.27 5.27 0 0 1 3-.85c.86 0 1.65.16 2.35.5a4.44 4.44 0 0 1 2.61 3.48h-1.52a3.34 3.34 0 0 0-3.42-2.63c-.83 0-1.57.22-2.2.66a4.41 4.41 0 0 0-1.5 1.84 6.5 6.5 0 0 0-.54 2.73c0 1.04.18 1.96.53 2.75.35.8.84 1.42 1.48 1.88.64.45 1.38.67 2.23.67.57 0 1.1-.1 1.57-.32a3.25 3.25 0 0 0 1.87-2.32h1.52a4.58 4.58 0 0 1-2.56 3.48c-.7.35-1.5.52-2.4.52ZM215 33.93a4.06 4.06 0 0 1-1.46-.27l.4-1.3c.51.15.97.21 1.37.17.4-.05.76-.22 1.07-.54a4 4 0 0 0 .82-1.44l.48-1.3-4.78-12.92h1.64l3.85 10.85h.12l3.85-10.85H224l-5.5 14.82a5.32 5.32 0 0 1-.85 1.55 3.31 3.31 0 0 1-2.66 1.23Z"/></g><path d="M62.8 12c4.85 0 8.8 3.87 8.8 8.64a8.72 8.72 0 0 1-8.42 8.62l-.26.01h8.64l1.15 3.57h-8.77l-1.14-3.57a8.73 8.73 0 0 1-8.8-8.63A8.73 8.73 0 0 1 62.8 12Zm40.39 4.25v12.91h-2.98v-1.68a6.62 6.62 0 0 1-4.33 1.6 6.48 6.48 0 0 1-6.54-6.39 6.48 6.48 0 0 1 6.54-6.38c1.66 0 3.18.6 4.33 1.6v-1.66h2.98Zm-27.84 0 1.3 4.74c0 .04.76 2.93.83 3.2l.02.08.02.06h.03l1.95-8.08h2.96l1.92 7.9.03.13v.05h.1l2.26-8.08h3.27l-4.34 12.9h-2.8l-1.2-4.75c-.18-.7-.48-2.27-.62-3.14l-.04-.22h-.03l-.05.26c-.07.34-.38 1.56-.6 2.41l-.04.18-1.43 5.27h-2.73L72.1 16.25h3.25ZM62.8 14.92a5.78 5.78 0 0 0-5.82 5.72 5.78 5.78 0 0 0 5.82 5.71 5.78 5.78 0 0 0 5.82-5.71 5.78 5.78 0 0 0-5.82-5.72Zm33.08 4.3a3.6 3.6 0 0 0-2.53 1.03 3.39 3.39 0 0 0 0 4.88 3.6 3.6 0 0 0 2.53 1.02 3.6 3.6 0 0 0 2.54-1.02 3.39 3.39 0 0 0 0-4.88 3.6 3.6 0 0 0-2.54-1.02Zm14.77-2.84a5.9 5.9 0 0 0-2.86.71v-.84h-3.03v5.85l-.01.4v6.66h3.04v-6.98c.14-1.94 1.55-2.83 2.86-2.83 1.7 0 2.95 1.33 2.95 3.15v6.66h3.03V22.5c0-1.63-.59-3.16-1.65-4.29a5.86 5.86 0 0 0-4.33-1.83m8.1-4.38v4.26h-1.52v2.6h1.53v10.3h3.05v-10.3h2.94v-2.6h-2.92V12h-3.07Z"/></g></g></svg>
