<svg xmlns="http://www.w3.org/2000/svg" viewBox="0 0 267 36"><path fill="#050506" fill-rule="evenodd" d="M123.65 0h-5.54l9.82 27.9h6.24L144.01 0h-5.56l-7.25 21.96h-.28L123.65 0zm27.87 0h-5.05v27.9h5.05V0zm3.9 27.9h5.05v-9.43h5.34c6.44 0 9.9-3.87 9.9-9.24 0-5.32-3.42-9.23-9.84-9.23h-10.46v27.9zm5.05-13.58V4.22h4.63c3.78 0 5.46 2.04 5.46 5.01 0 2.97-1.68 5.08-5.44 5.08h-4.66zm17.2 13.6h2.39v-13.3c0-3.06 2.34-5.27 5.56-5.27.63 0 1.22.1 1.44.14V7.06c-.33-.02-.87-.04-1.26-.04-2.6 0-4.8 1.4-5.64 3.47H180V7.33h-2.32v20.6zm12.04 0h2.4V7.32h-2.4v20.6zm1.21-24.13c.98 0 1.8-.78 1.8-1.72s-.82-1.72-1.8-1.72c-.97 0-1.78.78-1.78 1.72s.8 1.72 1.79 1.72zm21.48 3.54h-2.59l-6.11 17.44h-.19l-6.12-17.44h-2.58l7.52 20.6h2.55l7.52-20.6zm7.47 21.06c3.43 0 5.52-1.9 6.38-3.73h.15v3.26h2.38V13.94c0-5.53-4.15-6.9-7.3-6.9-3.15 0-6.4 1.25-7.8 4.62l2.27.81c.75-1.77 2.62-3.28 5.6-3.28 3.12 0 4.85 1.72 4.85 4.53v.48c0 1.56-1.93 1.59-5.4 2.02-4.65.57-7.9 1.87-7.9 5.95 0 3.97 3.03 6.22 6.77 6.22zm.32-2.18c-2.7 0-4.7-1.44-4.7-3.93 0-2.5 2.03-3.54 5.52-3.97 1.69-.2 4.69-.58 5.39-1.26v2.97c0 3.38-2.4 6.19-6.21 6.19zm19.78 2.14c4.3 0 7.31-2.7 7.86-6.43h-2.41c-.55 2.62-2.71 4.25-5.44 4.25-4.04 0-6.71-3.52-6.71-8.53 0-4.99 2.75-8.42 6.7-8.42a5.35 5.35 0 0 1 5.44 4.22h2.4c-.55-3.82-3.75-6.4-7.88-6.4-5.39 0-9.06 4.48-9.06 10.68 0 6.14 3.57 10.63 9.1 10.63zm11.87 7.3c2.57 0 4.46-1.48 5.57-4.47l8.71-23.85h-2.59l-6.11 17.44h-.19l-6.11-17.44h-2.6l7.58 20.8-.75 2.09c-1.14 3.1-2.75 3.66-5.17 2.9l-.65 2.1c.49.23 1.37.43 2.31.43zM14.04 0c7.74 0 14.04 6.3 14.04 14.04 0 7.57-6.03 13.76-13.54 14.03h-.3 13.8l1.81 5.81h-14l-1.81-5.8C6.3 28.08 0 21.78 0 14.04 0 6.3 6.3 0 14.04 0zM78.5 6.9v21h-4.75v-2.74a10.45 10.45 0 0 1-6.9 2.6 10.43 10.43 0 0 1-10.46-10.38C56.4 11.66 61.1 7 66.84 7c2.65 0 5.07.98 6.9 2.6V6.9h4.76zm-44.43 0 2.08 7.72.63 2.49.13.5.57 2.23.03.1.02.1h.06L40.7 6.9h4.71l3.07 12.84.05.24.02.06h.14l3.6-13.14h5.23l-6.92 21h-4.48l-1.92-7.74a88.7 88.7 0 0 1-1-5.2l-.05-.26h-.04a4.33 4.33 0 0 1-.08.42c-.12.56-.62 2.6-.98 4l-.05.21-2.28 8.56h-4.36L28.9 6.9h5.18zM14.04 4.75a9.3 9.3 0 0 0 0 18.58 9.3 9.3 0 0 0 0-18.58zm52.8 7a5.7 5.7 0 0 0-4.04 1.66 5.56 5.56 0 0 0-1.66 3.97c0 1.5.6 2.91 1.66 3.97a5.7 5.7 0 0 0 4.04 1.66 5.7 5.7 0 0 0 4.04-1.66 5.56 5.56 0 0 0 1.67-3.97c0-1.5-.6-2.91-1.67-3.97a5.7 5.7 0 0 0-4.04-1.66zm23.57-4.63c-1.68 0-3.23.42-4.57 1.16V6.91h-4.83v9.5l-.02.65V27.9h4.86V16.55c.22-3.15 2.46-4.6 4.56-4.6 2.72 0 4.7 2.15 4.7 5.11V27.9h4.83V17.06c0-2.65-.93-5.12-2.62-6.96a9.28 9.28 0 0 0-6.91-2.98M103.35 0v6.92h-2.44v4.24h2.44V27.9h4.87V11.16h4.69V6.92h-4.65V0h-4.91z"/></svg>