<svg width="186" height="24" viewBox="0 0 186 24" xmlns="http://www.w3.org/2000/svg">
    <g fill="#050506" fill-rule="evenodd">
        <g fill-rule="nonzero">
            <path d="M85.967.073h-3.756l6.654 18.616h4.228L99.756.073h-3.765l-4.91 14.653h-.194zM104.376.073h-3.425v18.616h3.425zM106.981 18.689h3.424v-6.29h3.618c4.366 0 6.71-2.582 6.71-6.163 0-3.554-2.316-6.163-6.663-6.163h-7.089v18.616zm3.424-9.063V2.891h3.139c2.565 0 3.7 1.363 3.7 3.345 0 1.981-1.135 3.39-3.682 3.39h-3.157zM122.832 18.689V4.727h1.6v2.145h.123c.283-.703.777-1.27 1.481-1.703.705-.432 1.503-.648 2.395-.648.132 0 .281.002.45.006.168.004.305.01.412.018v1.648a22.898 22.898 0 0 0-.385-.057 4.226 4.226 0 0 0-.6-.04c-.738 0-1.395.154-1.97.46a3.493 3.493 0 0 0-1.36 1.27c-.331.54-.497 1.155-.497 1.846v9.017h-1.649zM130.89 18.689V4.727h1.649v13.962h-1.65zm.837-16.362c-.337 0-.626-.114-.868-.342a1.089 1.089 0 0 1-.363-.821c0-.32.12-.594.362-.822a1.22 1.22 0 0 1 .868-.342c.337 0 .626.114.868.342.242.228.363.502.363.822 0 .32-.12.593-.362.821a1.22 1.22 0 0 1-.868.342zM146.636 4.727l-5.181 13.962h-1.748l-5.18-13.962h1.784l4.209 11.829h.123l4.209-11.83zM152.057 19.004c-.857 0-1.64-.164-2.346-.494a4.037 4.037 0 0 1-1.689-1.436c-.42-.628-.629-1.39-.629-2.288 0-.69.132-1.272.397-1.743.265-.472.64-.86 1.126-1.162.486-.303 1.062-.543 1.727-.718.666-.176 1.4-.314 2.202-.413.791-.096 1.463-.18 2.015-.251.552-.07.971-.185 1.258-.342.287-.158.431-.413.431-.764v-.327c0-.956-.287-1.708-.861-2.256-.575-.548-1.4-.823-2.474-.823-1.026 0-1.86.222-2.501.665-.642.444-1.092.965-1.35 1.565l-1.564-.557c.32-.76.763-1.369 1.33-1.827.565-.459 1.2-.79 1.9-.994a7.609 7.609 0 0 1 2.136-.306c.543 0 1.108.07 1.693.21.586.14 1.131.382 1.636.725.504.342.914.817 1.23 1.425.316.608.474 1.38.474 2.318v9.478h-1.649v-2.206h-.099a4.39 4.39 0 0 1-.875 1.199c-.386.386-.873.704-1.458.951-.586.247-1.272.371-2.06.371zm.222-1.478c.873 0 1.63-.19 2.27-.572a3.953 3.953 0 0 0 1.48-1.524c.347-.635.52-1.334.52-2.098V11.32c-.119.115-.323.218-.61.31-.289.09-.618.17-.988.237-.37.068-.741.126-1.113.174-.37.049-.702.091-.993.128-.8.096-1.484.248-2.052.454-.568.206-1.002.49-1.302.851-.3.362-.449.824-.449 1.385 0 .849.307 1.505.922 1.97.614.464 1.386.697 2.315.697zM166.795 18.98c-1.268 0-2.37-.312-3.31-.935-.937-.623-1.665-1.478-2.18-2.565-.516-1.086-.774-2.324-.774-3.711 0-1.4.262-2.645.787-3.735.525-1.09 1.256-1.946 2.192-2.568.937-.622 2.023-.933 3.26-.933.948 0 1.807.181 2.577.544.77.362 1.405.87 1.906 1.52.5.652.815 1.41.944 2.275h-1.661c-.175-.79-.588-1.464-1.242-2.023-.653-.558-1.486-.837-2.5-.837-.904 0-1.703.24-2.397.722-.695.482-1.238 1.152-1.63 2.009-.391.858-.587 1.85-.587 2.977 0 1.131.191 2.131.574 3 .382.868.92 1.55 1.613 2.042.693.493 1.503.74 2.428.74.63 0 1.204-.117 1.723-.35a3.546 3.546 0 0 0 1.309-1c.353-.431.594-.943.721-1.535h1.661a4.997 4.997 0 0 1-.913 2.248 5.034 5.034 0 0 1-1.874 1.55c-.767.377-1.643.565-2.627.565zM175.628 23.925c-.326 0-.63-.03-.914-.09a3.401 3.401 0 0 1-.674-.201l.443-1.43c.556.173 1.053.237 1.491.19.438-.048.827-.243 1.166-.584.34-.341.64-.865.9-1.57l.523-1.418-5.218-14.095h1.785l4.208 11.829h.123l4.21-11.83h1.784l-6 16.169c-.25.675-.56 1.237-.932 1.688-.371.45-.798.786-1.281 1.009a3.816 3.816 0 0 1-1.614.333z"/>
        </g>
        <path d="M9.597 0c5.292 0 9.597 4.226 9.597 9.421 0 5.062-4.087 9.203-9.192 9.412l-.274.008h9.433l1.245 3.896H10.84l-1.244-3.895C4.305 18.842 0 14.616 0 9.422 0 4.225 4.305 0 9.597 0zm44.062 4.633v14.092h-3.247v-1.838a7.222 7.222 0 0 1-4.72 1.74c-3.94 0-7.144-3.124-7.144-6.964 0-3.84 3.205-6.965 7.144-6.965 1.808 0 3.46.658 4.72 1.74V4.633h3.247zm-30.37 0 1.42 5.178.912 3.505.018.069.016.062h.039l2.128-8.814h3.22l2.096 8.617.035.148.011.049h.098l2.467-8.814h3.57l-4.733 14.084h-3.06l-1.315-5.191c-.195-.766-.518-2.502-.677-3.446l-.035-.218h-.032c-.006.06-.021.148-.052.287-.08.366-.417 1.71-.66 2.643l-.047.18-1.557 5.745h-2.979L19.746 4.633h3.543zM9.597 3.187c-3.502 0-6.35 2.797-6.35 6.234 0 3.438 2.848 6.234 6.35 6.234 3.501 0 6.35-2.796 6.35-6.234 0-3.437-2.849-6.234-6.35-6.234zm36.095 4.698a3.935 3.935 0 0 0-2.761 1.112 3.695 3.695 0 0 0 0 5.332 3.935 3.935 0 0 0 2.761 1.111 3.936 3.936 0 0 0 2.762-1.111 3.695 3.695 0 0 0 0-5.332 3.935 3.935 0 0 0-2.762-1.112zM61.8 4.777c-1.147 0-2.205.28-3.118.781v-.922h-3.306v6.38a7.767 7.767 0 0 0-.012.435v7.274h3.318v-7.62c.15-2.116 1.686-3.083 3.118-3.083 1.862 0 3.214 1.442 3.214 3.429v7.274h3.305v-7.274c0-1.78-.637-3.439-1.793-4.671-1.212-1.292-2.89-2.003-4.726-2.003M70.645 0v4.643H68.98v2.845h1.664v11.237h3.328V7.488h3.207V4.643H74V0h-3.355z"/>
    </g>
</svg>
