<svg width="336" height="160" viewBox="0 0 336 160" xmlns="http://www.w3.org/2000/svg" xmlns:xlink="http://www.w3.org/1999/xlink">
    <defs>
        <path d="M96 0h144v80c0 39.765-32.235 72-72 72s-72-32.235-72-72V0z" id="178ysn414a"/>
        <path d="m107.67 217.001-88.484-.409C8.544 216.543-.045 207.912 0 197.312V19.11A19.16 19.16 0 0 1 5.708 5.561 19.32 19.32 0 0 1 19.363 0l89.423.409a19.316 19.316 0 0 1 13.616 5.67A19.165 19.165 0 0 1 128 19.682l-.954 178.201a19.163 19.163 0 0 1-5.711 13.559 19.324 19.324 0 0 1-13.667 5.56z" id="7yq2lh4fmd"/>
        <path d="M103.515.4 84.037.325c-2.306 0-4.203 1.92-4.212 4.313l-.014 3.097c0 2.393-1.897 4.325-4.213 4.314l-33.671-.154c-2.307 0-4.186-1.957-4.178-4.35l.015-3.098c0-2.393-1.86-4.342-4.178-4.353L29.713.064 13.654 0a13.687 13.687 0 0 0-9.636 3.9A13.355 13.355 0 0 0 0 13.392l.017 179.101c-.02 7.41 6.033 13.436 13.53 13.47l88.921.121a13.679 13.679 0 0 0 9.629-3.89 13.352 13.352 0 0 0 4.025-9.478l.924-178.82c.032-7.418-6.024-13.46-13.531-13.495z" id="mpk8ro3j1e"/>
        <path d="M103.515.4 84.037.325c-2.306 0-4.203 1.92-4.212 4.313l-.014 3.097c0 2.393-1.897 4.325-4.213 4.314l-33.671-.154c-2.307 0-4.186-1.957-4.178-4.35l.015-3.098c0-2.393-1.86-4.342-4.178-4.353L29.713.064 13.654 0a13.687 13.687 0 0 0-9.636 3.9A13.355 13.355 0 0 0 0 13.392l.017 179.101c-.02 7.41 6.033 13.436 13.53 13.47l88.921.121a13.679 13.679 0 0 0 9.629-3.89 13.352 13.352 0 0 0 4.025-9.478l.924-178.82c.032-7.418-6.024-13.46-13.531-13.495z" id="41v155qb5g"/>
        <filter x="-1.6%" y="-.9%" width="106.2%" height="103.7%" filterUnits="objectBoundingBox" id="1l3z5fyfkc">
            <feOffset dx="4" dy="4" in="SourceAlpha" result="shadowOffsetOuter1"/>
            <feComposite in="shadowOffsetOuter1" in2="SourceAlpha" operator="out" result="shadowOffsetOuter1"/>
            <feColorMatrix values="0 0 0 0 0.0196078431 0 0 0 0 0.0196078431 0 0 0 0 0.0235294118 0 0 0 0.24 0" in="shadowOffsetOuter1"/>
        </filter>
    </defs>
    <g fill="none" fill-rule="evenodd">
        <path d="M0 0h336v160H0z"/>
        <mask id="ci34kh3ezb" fill="#fff">
            <use xlink:href="#178ysn414a"/>
        </mask>
        <g mask="url(#ci34kh3ezb)">
            <g fill-rule="nonzero" transform="translate(104)">
                <use fill="#000" filter="url(#1l3z5fyfkc)" xlink:href="#7yq2lh4fmd"/>
                <path stroke="#050506" stroke-width="2" d="m19.359 1 89.424.409c4.85.016 9.494 1.95 12.91 5.377a18.164 18.164 0 0 1 5.308 12.89l-.954 178.202a18.163 18.163 0 0 1-5.414 12.851 18.324 18.324 0 0 1-12.96 5.272l-88.482-.409a18.255 18.255 0 0 1-12.897-5.388A18.107 18.107 0 0 1 1 197.312V19.115A18.16 18.16 0 0 1 6.41 6.273 18.319 18.319 0 0 1 19.36 1z" stroke-linejoin="square" fill="#FFF" fill-rule="evenodd"/>
            </g>
            <g transform="translate(109.469 5.47)">
                <mask id="vg7atxl5yf" fill="#fff">
                    <use xlink:href="#mpk8ro3j1e"/>
                </mask>
                <use fill="#B3E6CC" xlink:href="#mpk8ro3j1e"/>
                <path fill="#F4F5F6" mask="url(#vg7atxl5yf)" d="M1.531.53h114v41h-114z"/>
                <path fill="#050506" mask="url(#vg7atxl5yf)" d="M-.469 39.53h118v2h-118z"/>
                <rect stroke="#050506" stroke-width="2" fill="#FFF" mask="url(#vg7atxl5yf)" x="8.531" y="19.53" width="100" height="14" rx="4"/>
                <mask id="kguwy9z54h" fill="#fff">
                    <use xlink:href="#41v155qb5g"/>
                </mask>
                <path stroke="#050506" stroke-width="2" d="m13.65 1 16.056.064 3.875.029a3.114 3.114 0 0 1 2.239.973c.586.61.944 1.453.944 2.376l-.015 3.098a5.403 5.403 0 0 0 1.5 3.769 5.085 5.085 0 0 0 3.673 1.585l33.672.154a5.119 5.119 0 0 0 3.697-1.56 5.355 5.355 0 0 0 1.52-3.75l.014-3.097a3.375 3.375 0 0 1 .955-2.354 3.148 3.148 0 0 1 2.253-.963l19.477.077a12.637 12.637 0 0 1 8.891 3.687 12.319 12.319 0 0 1 3.645 8.804l-.924 178.819a12.353 12.353 0 0 1-3.725 8.769 12.68 12.68 0 0 1-8.928 3.604l-88.917-.12a12.634 12.634 0 0 1-8.883-3.679 12.317 12.317 0 0 1-3.652-8.792L1 13.396c.01-3.3 1.349-6.458 3.718-8.782A12.686 12.686 0 0 1 13.65 1z"/>
                <g mask="url(#kguwy9z54h)" fill-rule="nonzero">
                    <path d="m56.526 58.845-17.6 5.68c-2.615.844-4.395 3.234-4.395 5.945v15.158c0 6.384 2.993 12.126 8.34 17.248 3.942 3.778 8.76 6.853 13.638 9.19a4.645 4.645 0 0 0 4.045 0c4.88-2.337 9.695-5.412 13.638-9.19 5.346-5.122 8.34-10.864 8.34-17.248V70.47c0-2.71-1.78-5.1-4.396-5.945l-17.6-5.68a6.537 6.537 0 0 0-4.01 0z" fill="#050506"/>
                    <path d="M57.14 60.75c.821-.265 1.7-.29 2.534-.074l.248.073 17.6 5.68c1.728.557 2.915 2.083 3.004 3.83l.005.21v15.16c0 6.267-3.252 11.52-7.722 15.803-3.323 3.183-7.129 5.638-10.213 7.335l-.788.426a51.48 51.48 0 0 1-.75.391l-.708.357c-.228.113-.449.22-.66.322a2.645 2.645 0 0 1-2.317 0l-.325-.157-.685-.339c-.354-.178-.724-.37-1.11-.574l-.787-.426c-3.084-1.697-6.89-4.152-10.213-7.335-4.369-4.186-7.574-9.298-7.717-15.378l-.005-.426V70.47c0-1.764 1.12-3.336 2.804-3.97l.205-.072 17.6-5.68v.001z" fill="#B3E6CC"/>
                    <path d="M58.531 68.905c-8.077 0-14.625 6.548-14.625 14.625s6.548 14.625 14.625 14.625 14.625-6.548 14.625-14.625-6.548-14.625-14.625-14.625z" fill="#57C78F"/>
                    <path d="M58.531 68.905c8.077 0 14.625 6.548 14.625 14.625s-6.548 14.625-14.625 14.625-14.625-6.548-14.625-14.625 6.548-14.625 14.625-14.625zm4.307 20.25h-8.614c.28 1.304.653 2.474 1.093 3.464.504 1.136 1.076 1.985 1.654 2.536.572.544 1.098.75 1.56.75.462 0 .988-.206 1.56-.75.578-.55 1.15-1.4 1.655-2.536.44-.99.812-2.16 1.092-3.464zm-10.91 0h-4.423a12.42 12.42 0 0 0 6.562 5.92h-.003l-.213-.364c-.14-.248-.275-.506-.403-.772l-.188-.406c-.562-1.267-1.015-2.749-1.332-4.378zm17.63 0h-4.424c-.317 1.628-.769 3.111-1.332 4.378l-.187.406c-.193.4-.399.78-.619 1.136a12.42 12.42 0 0 0 6.561-5.92zm-17.97-9h-4.967a12.384 12.384 0 0 0-.465 3.375c0 1.17.162 2.302.466 3.375h4.966a30.95 30.95 0 0 1-.182-3.375c0-1.159.063-2.29.182-3.375zm11.621 0h-9.356a28.56 28.56 0 0 0-.197 3.375c0 1.173.07 2.304.197 3.375h9.356c.133-1.12.198-2.247.197-3.375a28.572 28.572 0 0 0-.197-3.375zm7.231 0h-4.966c.12 1.086.182 2.216.182 3.375 0 1.16-.063 2.29-.182 3.375h4.966a12.39 12.39 0 0 0 .466-3.375c0-1.17-.162-2.302-.466-3.375zm-16.374-8.17a12.419 12.419 0 0 0-6.56 5.92h4.422c.317-1.629.77-3.11 1.332-4.378.244-.549.513-1.066.806-1.542zm4.465-.83c-.462 0-.988.206-1.56.751-.578.55-1.15 1.4-1.655 2.535-.44.99-.812 2.16-1.092 3.464h8.614c-.28-1.304-.652-2.474-1.092-3.464-.505-1.136-1.077-1.985-1.655-2.536-.572-.544-1.098-.75-1.56-.75zm4.465.83c.303.496.572 1.011.806 1.542.562 1.267 1.015 2.75 1.332 4.378h4.422a12.419 12.419 0 0 0-6.56-5.92z" fill="#050506"/>
                </g>
            </g>
        </g>
        <path d="M104.718 45.628C99.158 55.842 96 67.552 96 80c0 12.327 3.098 23.93 8.557 34.074C116.71 136.653 140.562 152 168 152c27.403 0 51.231-15.31 63.397-37.841C236.885 103.995 240 92.36 240 80c0-12.724-3.3-24.677-9.092-35.05" stroke="#050506" stroke-width="2" stroke-linecap="round"/>
    </g>
</svg>
