<svg width="336" height="160" viewBox="0 0 336 160" xmlns="http://www.w3.org/2000/svg" xmlns:xlink="http://www.w3.org/1999/xlink">
    <defs>
        <rect id="m247cr0g3a" x="96" y="8" width="144" height="144" rx="72"/>
        <rect id="go0fotsooc" x="0" y="0" width="176" height="112" rx="12"/>
        <rect id="58m1ucdzmj" x="0" y="0" width="120" height="112" rx="12"/>
        <filter x="-2.3%" y="-3.6%" width="106.8%" height="110.7%" filterUnits="objectBoundingBox" id="yibqzx0tld">
            <feMorphology radius="2" operator="dilate" in="SourceAlpha" result="shadowSpreadOuter1"/>
            <feOffset dx="4" dy="4" in="shadowSpreadOuter1" result="shadowOffsetOuter1"/>
            <feComposite in="shadowOffsetOuter1" in2="SourceAlpha" operator="out" result="shadowOffsetOuter1"/>
            <feColorMatrix values="0 0 0 0 0.0196078431 0 0 0 0 0.0196078431 0 0 0 0 0.0235294118 0 0 0 0.24 0" in="shadowOffsetOuter1"/>
        </filter>
        <filter x="-3.3%" y="-3.6%" width="110%" height="110.7%" filterUnits="objectBoundingBox" id="pvg07phwdk">
            <feMorphology radius="2" operator="dilate" in="SourceAlpha" result="shadowSpreadOuter1"/>
            <feOffset dx="4" dy="4" in="shadowSpreadOuter1" result="shadowOffsetOuter1"/>
            <feComposite in="shadowOffsetOuter1" in2="SourceAlpha" operator="out" result="shadowOffsetOuter1"/>
            <feColorMatrix values="0 0 0 0 0.0196078431 0 0 0 0 0.0196078431 0 0 0 0 0.0235294118 0 0 0 0.24 0" in="shadowOffsetOuter1"/>
        </filter>
        <path d="m20.609.219-17.6 5.68C1.212 6.478 0 8.105 0 9.938v15.159c0 6.268 3.252 11.521 7.722 15.804 4.478 4.29 9.835 7.257 13.12 8.83a2.645 2.645 0 0 0 2.316 0c3.285-1.573 8.642-4.54 13.12-8.83C40.748 36.62 44 31.366 44 25.098V9.94c0-1.834-1.212-3.462-3.009-4.042l-17.6-5.68a4.537 4.537 0 0 0-2.782 0z" id="6zx2q9w2uf"/>
        <path d="M164 0v148H0V0h164zM90 2C50.235 2 18 34.235 18 74s32.235 72 72 72 72-32.235 72-72S129.765 2 90 2z" id="gzkst88pmh"/>
    </defs>
    <g fill="none" fill-rule="evenodd">
        <path d="M0 0h336v160H0z"/>
        <mask id="rz2o2e6bnb" fill="#fff">
            <use xlink:href="#m247cr0g3a"/>
        </mask>
        <g mask="url(#rz2o2e6bnb)">
            <g transform="translate(80 24)">
                <path stroke="#050506" stroke-width="2" fill="#E9EAEC" d="M71 111h34v18H71z"/>
                <mask id="p9q0ekw72e" fill="#fff">
                    <use xlink:href="#go0fotsooc"/>
                </mask>
                <use fill="#000" filter="url(#yibqzx0tld)" xlink:href="#go0fotsooc"/>
                <rect stroke="#050506" stroke-width="2" fill="#050506" x="-1" y="-1" width="178" height="114" rx="12"/>
                <path fill="#E9EAEC" mask="url(#p9q0ekw72e)" d="M0 96h176v16H0z"/>
                <path fill="#050506" mask="url(#p9q0ekw72e)" d="M0 96h176v2H0z"/>
                <path d="M162 3c3.038 0 5.788 1.231 7.778 3.222A10.966 10.966 0 0 1 173 14v79H3V14c0-3.038 1.231-5.788 3.222-7.778A10.966 10.966 0 0 1 14 3z" stroke="#050506" stroke-width="2" fill="#D6E5FF" mask="url(#p9q0ekw72e)"/>
                <rect stroke="#050506" stroke-width="2" fill="#B3E6CC" mask="url(#p9q0ekw72e)" x="15" y="15" width="146" height="66" rx="4"/>
                <path d="M156 15c1.38 0 2.63.56 3.536 1.464A4.984 4.984 0 0 1 161 20v9H15v-9c0-1.38.56-2.63 1.464-3.536A4.984 4.984 0 0 1 20 15z" stroke="#050506" stroke-width="2" fill="#FFF" mask="url(#p9q0ekw72e)"/>
                <g mask="url(#p9q0ekw72e)">
                    <g transform="translate(20 20)" fill="#A7ACB4">
                        <circle cx="14" cy="2" r="2"/>
                        <circle cx="8" cy="2" r="2"/>
                        <circle cx="2" cy="2" r="2"/>
                    </g>
                </g>
                <g mask="url(#p9q0ekw72e)">
                    <g transform="translate(66 22)">
                        <mask id="17r2v1jzhg" fill="#fff">
                            <use xlink:href="#6zx2q9w2uf"/>
                        </mask>
                        <path stroke="#050506" stroke-width="2" d="M20.302-.733a5.538 5.538 0 0 1 3.396 0l17.6 5.68a5.386 5.386 0 0 1 2.674 1.905A5.161 5.161 0 0 1 45 9.94v15.158c0 6.542-3.356 12.047-8.03 16.526C32.401 46 26.94 49.03 23.59 50.634a3.632 3.632 0 0 1-3.18 0C17.059 49.03 11.598 46 7.03 41.625 2.357 37.145-1 31.64-1 25.098V9.94c0-1.137.374-2.21 1.028-3.088a5.386 5.386 0 0 1 2.673-1.905z"/>
                        <g mask="url(#17r2v1jzhg)">
                            <path d="M22 8.375C13.923 8.375 7.375 14.923 7.375 23S13.923 37.625 22 37.625 36.625 31.077 36.625 23 30.077 8.375 22 8.375z" fill="#57C78F"/>
                            <path d="M4 5h36v36H4z"/>
                            <path d="M22 8.375C13.923 8.375 7.375 14.923 7.375 23S13.923 37.625 22 37.625 36.625 31.077 36.625 23 30.077 8.375 22 8.375zm-11.91 11.25A12.384 12.384 0 0 0 9.626 23c0 1.17.162 2.302.466 3.375h4.966A30.95 30.95 0 0 1 14.875 23c0-1.159.063-2.29.182-3.375h-4.966zm.884-2.25h4.423c.317-1.629.77-3.111 1.332-4.378.244-.549.513-1.066.806-1.542a12.419 12.419 0 0 0-6.56 5.92zm6.348 2.25A28.558 28.558 0 0 0 17.125 23c0 1.173.069 2.304.197 3.375h9.356A28.57 28.57 0 0 0 26.875 23a28.57 28.57 0 0 0-.197-3.375h-9.356zm8.985-2.25h-8.614c.28-1.304.652-2.474 1.092-3.464.505-1.136 1.077-1.985 1.655-2.535.572-.545 1.098-.751 1.56-.751.462 0 .988.206 1.56.75.578.551 1.15 1.4 1.655 2.536.44.99.812 2.16 1.092 3.464zm2.636 2.25c.12 1.086.182 2.216.182 3.375 0 1.159-.063 2.29-.182 3.375h4.966A12.39 12.39 0 0 0 34.375 23c0-1.17-.162-2.302-.466-3.375h-4.966zm4.083-2.25h-4.423c-.317-1.629-.77-3.111-1.332-4.378a13.058 13.058 0 0 0-.806-1.542 12.419 12.419 0 0 1 6.56 5.92zm-15.49 17.17a12.42 12.42 0 0 1-6.562-5.92h4.423c.317 1.629.77 3.111 1.332 4.378.244.549.513 1.066.806 1.542zm1.25-2.456c-.44-.99-.813-2.16-1.093-3.464h8.614c-.28 1.304-.652 2.474-1.092 3.464-.505 1.136-1.077 1.985-1.655 2.535-.572.545-1.098.751-1.56.751-.462 0-.988-.206-1.56-.75-.578-.551-1.15-1.4-1.655-2.536zm8.485.914c.563-1.267 1.015-2.75 1.332-4.378h4.423a12.42 12.42 0 0 1-6.561 5.92c.293-.476.562-.993.806-1.542z" fill="#050506"/>
                        </g>
                    </g>
                </g>
            </g>
        </g>
        <path d="M123.995 136.992C136.164 146.402 151.428 152 168 152c39.765 0 72-32.235 72-72S207.765 8 168 8c-16.495 0-31.694 5.547-43.834 14.877" stroke="#050506" stroke-width="2"/>
        <g transform="translate(78 6)">
            <mask id="x1vut5nlri" fill="#fff">
                <use xlink:href="#gzkst88pmh"/>
            </mask>
            <g mask="url(#x1vut5nlri)">
                <g transform="translate(2 18)">
                    <mask id="7li9q075tl" fill="#fff">
                        <use xlink:href="#58m1ucdzmj"/>
                    </mask>
                    <use fill="#000" filter="url(#pvg07phwdk)" xlink:href="#58m1ucdzmj"/>
                    <rect stroke="#050506" stroke-width="2" fill="#050506" x="-1" y="-1" width="122" height="114" rx="12"/>
                    <path fill="#E9EAEC" mask="url(#7li9q075tl)" d="M0 96h176v16H0z"/>
                    <path fill="#050506" mask="url(#7li9q075tl)" d="M0 96h176v2H0z"/>
                    <path d="M162 3c3.038 0 5.788 1.231 7.778 3.222A10.966 10.966 0 0 1 173 14v79H3V14c0-3.038 1.231-5.788 3.222-7.778A10.966 10.966 0 0 1 14 3z" stroke="#050506" stroke-width="2" fill="#D6E5FF" mask="url(#7li9q075tl)"/>
                    <rect stroke="#050506" stroke-width="2" fill="#B3E6CC" mask="url(#7li9q075tl)" x="15" y="15" width="146" height="66" rx="4"/>
                    <path d="M156 15c1.38 0 2.63.56 3.536 1.464A4.984 4.984 0 0 1 161 20v9H15v-9c0-1.38.56-2.63 1.464-3.536A4.984 4.984 0 0 1 20 15z" stroke="#050506" stroke-width="2" fill="#FFF" mask="url(#7li9q075tl)"/>
                    <g mask="url(#7li9q075tl)">
                        <g transform="translate(20 20)" fill="#A7ACB4">
                            <circle cx="14" cy="2" r="2"/>
                            <circle cx="8" cy="2" r="2"/>
                            <circle cx="2" cy="2" r="2"/>
                        </g>
                    </g>
                    <g mask="url(#7li9q075tl)">
                        <path d="m86.672 24.21-16.8 5.452c-1.715.557-2.872 2.12-2.872 3.88v14.552c0 6.017 3.104 11.06 7.371 15.172 4.275 4.118 9.388 6.967 12.523 8.478.71.341 1.502.341 2.212 0 3.135-1.511 8.248-4.36 12.523-8.478 4.267-4.112 7.371-9.155 7.371-15.172V33.542c0-1.76-1.157-3.323-2.872-3.88l-16.8-5.452a4.307 4.307 0 0 0-2.656 0z" stroke="#050506" stroke-width="2.043" fill="#B3E6CC"/>
                        <path d="M88 33c-7.18 0-13 5.82-13 13s5.82 13 13 13 13-5.82 13-13-5.82-13-13-13z" fill="#57C78F"/>
                        <path d="M72 30h32v32H72z"/>
                        <path d="M88 33c-7.18 0-13 5.82-13 13s5.82 13 13 13 13-5.82 13-13-5.82-13-13-13zM77.414 43c-.27.954-.414 1.96-.414 3s.144 2.046.414 3h4.414a27.51 27.51 0 0 1-.161-3c0-1.03.055-2.035.161-3h-4.414zm.785-2h3.932c.281-1.448.683-2.765 1.184-3.891.217-.488.456-.948.716-1.371A11.04 11.04 0 0 0 78.2 41zm5.642 2a25.385 25.385 0 0 0-.174 3c0 1.043.06 2.048.174 3h8.318c.113-.952.174-1.957.174-3s-.061-2.048-.174-3H83.84zm7.987-2h-7.656c.249-1.16.58-2.2.97-3.08.45-1.009.957-1.764 1.471-2.253.51-.484.976-.667 1.387-.667.41 0 .878.183 1.387.667.514.49 1.022 1.244 1.47 2.254.392.88.722 1.92.971 3.079zm2.344 2c.106.965.161 1.97.161 3s-.055 2.035-.161 3h4.414c.27-.954.414-1.96.414-3s-.144-2.046-.414-3h-4.414zm3.629-2h-3.932c-.281-1.448-.683-2.765-1.184-3.891a11.608 11.608 0 0 0-.716-1.371A11.039 11.039 0 0 1 97.8 41zM84.03 56.262A11.04 11.04 0 0 1 78.2 51h3.932c.281 1.448.683 2.765 1.184 3.891.217.488.456.948.716 1.371zm1.112-2.183c-.392-.88-.722-1.92-.971-3.079h7.656c-.249 1.16-.58 2.2-.97 3.08-.45 1.009-.957 1.763-1.471 2.253-.51.484-.976.667-1.387.667-.41 0-.878-.183-1.387-.667-.514-.49-1.022-1.244-1.47-2.254zm7.542.812c.5-1.126.903-2.443 1.184-3.891h3.932a11.04 11.04 0 0 1-5.832 5.262c.26-.423.5-.883.716-1.37z" fill="#050506"/>
                    </g>
                </g>
            </g>
        </g>
    </g>
</svg>
