<svg width="336" height="160" viewBox="0 0 336 160" xmlns="http://www.w3.org/2000/svg" xmlns:xlink="http://www.w3.org/1999/xlink">
    <defs>
        <rect id="mwr9e9f14a" x="96" y="8" width="144" height="144" rx="72"/>
        <rect id="tvaxutv7fd" x="0" y="0" width="128" height="164" rx="5.559"/>
        <rect id="2hz023j1wg" x="0" y="0" width="128" height="102" rx="5.559"/>
        <filter x="-1.6%" y="-1.2%" width="106.2%" height="104.9%" filterUnits="objectBoundingBox" id="nkmdp0j8zc">
            <feOffset dx="4" dy="4" in="SourceAlpha" result="shadowOffsetOuter1"/>
            <feComposite in="shadowOffsetOuter1" in2="SourceAlpha" operator="out" result="shadowOffsetOuter1"/>
            <feColorMatrix values="0 0 0 0 0.0196078431 0 0 0 0 0.0196078431 0 0 0 0 0.0235294118 0 0 0 0.24 0" in="shadowOffsetOuter1"/>
        </filter>
        <filter x="-1.6%" y="-2%" width="106.2%" height="107.8%" filterUnits="objectBoundingBox" id="p69jzv5xkh">
            <feOffset dx="4" dy="4" in="SourceAlpha" result="shadowOffsetOuter1"/>
            <feComposite in="shadowOffsetOuter1" in2="SourceAlpha" operator="out" result="shadowOffsetOuter1"/>
            <feColorMatrix values="0 0 0 0 0.0196078431 0 0 0 0 0.0196078431 0 0 0 0 0.0235294118 0 0 0 0.24 0" in="shadowOffsetOuter1"/>
        </filter>
        <path d="M144 0v152H72c39.765 0 72-32.235 72-72S111.765 8 72 8 0 40.235 0 80s32.235 72 72 72H0V0h144z" id="fcwdeuuaee"/>
    </defs>
    <g fill="none" fill-rule="evenodd">
        <path d="M0 0h336v160H0z"/>
        <mask id="7o5oh3jmlb" fill="#fff">
            <use xlink:href="#mwr9e9f14a"/>
        </mask>
        <g mask="url(#7o5oh3jmlb)">
            <g transform="translate(104)">
                <use fill="#000" filter="url(#nkmdp0j8zc)" xlink:href="#tvaxutv7fd"/>
                <rect stroke="#050506" stroke-width="2" stroke-linejoin="square" fill="#FFF" x="1" y="1" width="126" height="162" rx="5.559"/>
                <rect stroke="#050506" stroke-width="2" x="8" y="102" width="112" height="12" rx="4"/>
                <g transform="translate(8 21)">
                    <rect stroke="#050506" stroke-width="2" fill="#85D6AD" y="15" width="112" height="60" rx="4"/>
                    <path d="M1 50h110v21a3 3 0 0 1-3 3H4a3 3 0 0 1-3-3V50z" fill="#FFF"/>
                    <g transform="translate(79 55)" stroke="#050506" stroke-width="2">
                        <rect fill="#85D6AD" x="-1" y="-1" width="26" height="16" rx="8"/>
                        <circle fill="#FFF" cx="17" cy="7" r="4"/>
                    </g>
                    <path fill="#050506" d="M0 48h112v2H0z"/>
                    <path d="M54.209-.71a5.681 5.681 0 0 1 3.582 0l9.333 3.1A5.658 5.658 0 0 1 71 7.754v8.276c0 3.587-1.412 6.628-3.387 9.111-2.96 3.723-7.186 6.17-9.522 7.322a4.702 4.702 0 0 1-4.182 0c-2.336-1.152-6.563-3.599-9.522-7.322C42.412 22.657 41 19.616 41 16.03V7.752c0-1.217.39-2.365 1.07-3.306a5.658 5.658 0 0 1 2.806-2.056z" stroke="#050506" stroke-width="2" fill="#85D6AD"/>
                </g>
                <g transform="translate(67 120)">
                    <rect stroke="#050506" stroke-width="2" width="53" height="22" rx="4"/>
                    <path d="M13 15.958a4.958 4.958 0 1 0 0-9.916 4.958 4.958 0 0 0 0 9.916z" fill="#DED6FF"/>
                    <path d="M6 4h14v14H6z"/>
                    <path d="M13 5.167a5.833 5.833 0 1 1 0 11.666 5.833 5.833 0 0 1 0-11.666zm0 .875a4.958 4.958 0 1 0 0 9.916 4.958 4.958 0 0 0 0-9.916zm0 1.604c.242 0 .438.196.438.437v2.675c0 .04.015.076.042.104l1.288 1.287a.437.437 0 1 1-.619.619l-1.287-1.288a1.02 1.02 0 0 1-.3-.722V8.083c0-.241.196-.437.438-.437z" stroke="#050506" stroke-width=".5" fill="#050506"/>
                </g>
                <g transform="translate(8 120)">
                    <rect stroke="#050506" stroke-width="2" width="53" height="22" rx="4"/>
                    <path d="M8.947 6.423a1.75 1.75 0 0 0-1.197 1.66v3.114c0 3.21 3.243 5.158 4.632 5.845.392.194.844.194 1.236 0 1.389-.687 4.632-2.636 4.632-5.845V8.083a1.75 1.75 0 0 0-1.197-1.66l-3.5-1.167a1.75 1.75 0 0 0-1.106 0l-3.5 1.167z" fill="#DED6FF"/>
                    <path d="M6 4h14v14H6z"/>
                    <path d="M12.447 5.256c.359-.12.747-.12 1.106 0l3.5 1.167a1.75 1.75 0 0 1 1.197 1.66v3.114c0 3.21-3.243 5.158-4.632 5.845a1.386 1.386 0 0 1-1.236 0c-1.389-.687-4.632-2.636-4.632-5.845V8.083a1.75 1.75 0 0 1 1.197-1.66zm.276.83-3.5 1.167a.875.875 0 0 0-.598.83v3.114c0 1.287.647 2.367 1.536 3.246.89.881 1.955 1.491 2.609 1.814a.511.511 0 0 0 .46 0c.654-.323 1.719-.933 2.61-1.814.888-.88 1.535-1.959 1.535-3.246V8.083a.875.875 0 0 0-.598-.83l-3.5-1.166a.875.875 0 0 0-.554 0zm2.336 3.635c.171.17.171.448 0 .619l-2.003 2.003a.904.904 0 0 1-1.279 0l-.836-.837a.437.437 0 1 1 .618-.618l.837.836a.03.03 0 0 0 .041 0l2.004-2.003c.17-.17.447-.17.618 0z" stroke="#050506" stroke-width=".5" fill="#050506"/>
                </g>
                <path d="M11.333 8h13.334A3.333 3.333 0 0 1 28 11.333v13.334A3.333 3.333 0 0 1 24.667 28H11.333A3.333 3.333 0 0 1 8 24.667V11.333A3.333 3.333 0 0 1 11.333 8z" fill="#5C97FF"/>
                <path d="M17.755 22.601a5.807 5.807 0 0 0 5.722-5.8A5.808 5.808 0 0 0 17.676 11a5.808 5.808 0 0 0-5.801 5.801c0 3.198 2.602 5.8 5.8 5.8L18.428 25h5.782l-.753-2.399h-5.702zm-3.918-5.8a3.843 3.843 0 0 1 3.839-3.839 3.843 3.843 0 0 1 3.839 3.839 3.843 3.843 0 0 1-3.839 3.839 3.843 3.843 0 0 1-3.839-3.839z" fill="#050506"/>
                <g>
                    <path d="M106 11h14v14h-14z"/>
                    <path d="M116.638 21.045a5.04 5.04 0 1 0-.594.594l1.489 1.488a.42.42 0 1 0 .594-.594l-1.489-1.488zm.352-3.255a4.2 4.2 0 1 1-8.4 0 4.2 4.2 0 0 1 8.4 0z" fill="#050506" stroke="#050506" stroke-width=".5"/>
                </g>
            </g>
        </g>
        <g transform="translate(96)">
            <mask id="sn3sop0xlf" fill="#fff">
                <use xlink:href="#fcwdeuuaee"/>
            </mask>
            <g mask="url(#sn3sop0xlf)">
                <g transform="translate(8)">
                    <mask id="y20nroo9ri" fill="#fff">
                        <use xlink:href="#2hz023j1wg"/>
                    </mask>
                    <use fill="#000" filter="url(#p69jzv5xkh)" xlink:href="#2hz023j1wg"/>
                    <rect stroke="#050506" stroke-width="2" stroke-linejoin="square" fill="#FFF" x="1" y="1" width="126" height="100" rx="5.559"/>
                    <rect stroke="#050506" stroke-width="2" mask="url(#y20nroo9ri)" x="8" y="102" width="112" height="12" rx="4"/>
                    <g mask="url(#y20nroo9ri)">
                        <g transform="translate(8 21)">
                            <rect stroke="#050506" stroke-width="2" fill="#85D6AD" y="15" width="112" height="60" rx="4"/>
                            <path d="M1 50h110v21a3 3 0 0 1-3 3H4a3 3 0 0 1-3-3V50z" fill="#FFF"/>
                            <g transform="translate(79 55)" stroke="#050506" stroke-width="2">
                                <rect fill="#85D6AD" x="-1" y="-1" width="26" height="16" rx="8"/>
                                <circle fill="#FFF" cx="17" cy="7" r="4"/>
                            </g>
                            <path fill="#050506" d="M0 48h112v2H0z"/>
                            <path d="M54.209-.71a5.681 5.681 0 0 1 3.582 0l9.333 3.1A5.658 5.658 0 0 1 71 7.754v8.276c0 3.587-1.412 6.628-3.387 9.111-2.96 3.723-7.186 6.17-9.522 7.322a4.702 4.702 0 0 1-4.182 0c-2.336-1.152-6.563-3.599-9.522-7.322C42.412 22.657 41 19.616 41 16.03V7.752c0-1.217.39-2.365 1.07-3.306a5.658 5.658 0 0 1 2.806-2.056z" stroke="#050506" stroke-width="2" fill="#85D6AD"/>
                        </g>
                    </g>
                    <g mask="url(#y20nroo9ri)">
                        <g transform="translate(67 120)">
                            <rect stroke="#050506" stroke-width="2" width="53" height="22" rx="4"/>
                            <path d="M15 15.958a4.958 4.958 0 1 0 0-9.916 4.958 4.958 0 0 0 0 9.916z" fill="#DED6FF"/>
                            <path d="M8 4h14v14H8z"/>
                            <path d="M15 5.167a5.833 5.833 0 1 1 0 11.666 5.833 5.833 0 0 1 0-11.666zm0 .875a4.958 4.958 0 1 0 0 9.916 4.958 4.958 0 0 0 0-9.916zm0 1.604c.242 0 .438.196.438.437v2.675c0 .04.015.076.042.104l1.288 1.287a.437.437 0 1 1-.619.619l-1.287-1.288a1.02 1.02 0 0 1-.3-.722V8.083c0-.241.196-.437.438-.437z" stroke="#050506" stroke-width=".5" fill="#050506"/>
                        </g>
                    </g>
                    <g mask="url(#y20nroo9ri)">
                        <g transform="translate(8 120)">
                            <rect stroke="#050506" stroke-width="2" width="53" height="22" rx="4"/>
                            <path d="M10.947 6.423a1.75 1.75 0 0 0-1.197 1.66v3.114c0 3.21 3.243 5.158 4.632 5.845.392.194.844.194 1.236 0 1.389-.687 4.632-2.636 4.632-5.845V8.083a1.75 1.75 0 0 0-1.197-1.66l-3.5-1.167a1.75 1.75 0 0 0-1.106 0l-3.5 1.167z" fill="#DED6FF"/>
                            <path d="M8 4h14v14H8z"/>
                            <path d="M14.447 5.256c.359-.12.747-.12 1.106 0l3.5 1.167a1.75 1.75 0 0 1 1.197 1.66v3.114c0 3.21-3.243 5.158-4.632 5.845a1.386 1.386 0 0 1-1.236 0c-1.389-.687-4.632-2.636-4.632-5.845V8.083a1.75 1.75 0 0 1 1.197-1.66zm.276.83-3.5 1.167a.875.875 0 0 0-.598.83v3.114c0 1.287.647 2.367 1.536 3.246.89.881 1.955 1.491 2.609 1.814a.511.511 0 0 0 .46 0c.654-.323 1.719-.933 2.61-1.814.888-.88 1.535-1.959 1.535-3.246V8.083a.875.875 0 0 0-.598-.83l-3.5-1.166a.875.875 0 0 0-.554 0zm2.336 3.635c.171.17.171.448 0 .619l-2.003 2.003a.904.904 0 0 1-1.279 0l-.836-.837a.437.437 0 1 1 .618-.618l.837.836a.03.03 0 0 0 .041 0l2.004-2.003c.17-.17.447-.17.618 0z" stroke="#050506" stroke-width=".5" fill="#050506"/>
                        </g>
                    </g>
                    <g mask="url(#y20nroo9ri)">
                        <path d="M11.333 8h13.334A3.333 3.333 0 0 1 28 11.333v13.334A3.333 3.333 0 0 1 24.667 28H11.333A3.333 3.333 0 0 1 8 24.667V11.333A3.333 3.333 0 0 1 11.333 8z" fill="#5C97FF"/>
                        <path d="M17.755 22.601a5.807 5.807 0 0 0 5.722-5.8A5.808 5.808 0 0 0 17.676 11a5.808 5.808 0 0 0-5.801 5.801c0 3.198 2.602 5.8 5.8 5.8L18.428 25h5.782l-.753-2.399h-5.702zm-3.918-5.8a3.843 3.843 0 0 1 3.839-3.839 3.843 3.843 0 0 1 3.839 3.839 3.843 3.843 0 0 1-3.839 3.839 3.843 3.843 0 0 1-3.839-3.839z" fill="#050506"/>
                    </g>
                    <g mask="url(#y20nroo9ri)">
                        <path d="M106 11h14v14h-14z"/>
                        <path d="M116.638 21.045a5.04 5.04 0 1 0-.594.594l1.489 1.488a.42.42 0 1 0 .594-.594l-1.489-1.488zm.352-3.255a4.2 4.2 0 1 1-8.4 0 4.2 4.2 0 0 1 8.4 0z" stroke="#050506" stroke-width=".5" fill="#050506"/>
                    </g>
                </g>
            </g>
        </g>
        <path d="M104.718 45.628C99.158 55.842 96 67.552 96 80c0 12.327 3.098 23.93 8.557 34.074C116.71 136.653 140.562 152 168 152c27.403 0 51.231-15.31 63.397-37.841C236.885 103.995 240 92.36 240 80c0-12.724-3.3-24.677-9.092-35.05" stroke="#050506" stroke-width="2"/>
    </g>
</svg>
