<svg width="28" height="28" viewBox="0 0 28 28" xmlns="http://www.w3.org/2000/svg">
    <g fill="none" fill-rule="evenodd">
        <path d="M14 23.917c5.477 0 9.917-4.44 9.917-9.917 0-5.477-4.44-9.917-9.917-9.917-5.477 0-9.917 4.44-9.917 9.917 0 5.477 4.44 9.917 9.917 9.917z" fill="currentColor"/>
        <path d="M0 0h28v28H0z"/>
        <path d="M14 2.333c6.443 0 11.667 5.224 11.667 11.667S20.443 25.667 14 25.667 2.333 20.443 2.333 14 7.557 2.333 14 2.333zm0 1.75c-5.477 0-9.917 4.44-9.917 9.917 0 5.477 4.44 9.917 9.917 9.917 5.477 0 9.917-4.44 9.917-9.917 0-5.477-4.44-9.917-9.917-9.917zm0 3.209c.483 0 .875.391.875.875v5.35c0 .077.03.151.085.206l2.575 2.575a.875.875 0 1 1-1.237 1.237l-2.575-2.575a2.042 2.042 0 0 1-.598-1.443v-5.35c0-.484.392-.875.875-.875z" fill="#050506"/>
    </g>
</svg>
