<svg width="28" height="28" viewBox="0 0 28 28" xmlns="http://www.w3.org/2000/svg">
    <g fill="none" fill-rule="evenodd">
        <path d="M14 2.625C7.718 2.625 2.625 7.718 2.625 14S7.718 25.375 14 25.375 25.375 20.282 25.375 14 20.282 2.625 14 2.625z" fill="currentColor"/>
        <path d="M0 0h28v28H0z"/>
        <path d="M14 2.625C7.718 2.625 2.625 7.718 2.625 14S7.718 25.375 14 25.375 25.375 20.282 25.375 14 20.282 2.625 14 2.625zm-9.263 8.75A9.632 9.632 0 0 0 4.375 14c0 .91.126 1.79.362 2.625H8.6A24.072 24.072 0 0 1 8.458 14c0-.901.05-1.78.142-2.625H4.737zm.687-1.75h3.44c.247-1.267.599-2.42 1.037-3.405.19-.427.398-.83.626-1.2a9.66 9.66 0 0 0-5.103 4.605zm4.937 1.75c-.099.833-.153 1.713-.153 2.625 0 .912.054 1.792.153 2.625h7.278c.099-.833.153-1.713.153-2.625 0-.912-.054-1.792-.153-2.625H10.36zm6.989-1.75h-6.7c.218-1.014.508-1.924.85-2.694.392-.883.837-1.544 1.287-1.972.445-.424.853-.584 1.213-.584.36 0 .768.16 1.213.584.45.428.895 1.089 1.287 1.972.342.77.632 1.68.85 2.694zm2.05 1.75c.093.844.142 1.724.142 2.625s-.05 1.78-.142 2.625h3.863A9.636 9.636 0 0 0 23.625 14c0-.91-.126-1.79-.362-2.625H19.4zm3.175-1.75h-3.44c-.246-1.267-.598-2.42-1.036-3.405-.19-.427-.398-.83-.626-1.2a9.66 9.66 0 0 1 5.102 4.605zM10.527 22.979a9.66 9.66 0 0 1-5.103-4.604h3.44c.247 1.267.599 2.42 1.037 3.405.19.427.398.83.626 1.2zm.973-1.91c-.342-.77-.632-1.68-.85-2.694h6.7a13.836 13.836 0 0 1-.85 2.694c-.392.883-.837 1.544-1.287 1.972-.445.424-.853.584-1.213.584-.36 0-.768-.16-1.213-.584-.45-.428-.895-1.089-1.287-1.972zm6.6.711c.437-.985.79-2.138 1.036-3.405h3.44a9.66 9.66 0 0 1-5.103 4.604c.228-.37.437-.772.626-1.199z" fill="#050506"/>
    </g>
</svg>
