<svg width="28" height="28" viewBox="0 0 28 28" fill="none" xmlns="http://www.w3.org/2000/svg">
    <circle cx="13.5" cy="13.5" r="9.5" fill="currentColor"/>
    <path fill-rule="evenodd" clip-rule="evenodd" d="M21.277 20.089C22.8189 18.271 23.6636 15.9638 23.66 13.58C23.66 8.013 19.147 3.5 13.58 3.5C8.013 3.5 3.5 8.013 3.5 13.58C3.5 19.147 8.013 23.66 13.58 23.66C15.9638 23.6636 18.271 22.8189 20.089 21.277L23.066 24.254C23.144 24.332 23.2366 24.3939 23.3385 24.4361C23.4404 24.4783 23.5497 24.5 23.66 24.5C23.7703 24.5 23.8796 24.4783 23.9815 24.4361C24.0834 24.3939 24.176 24.332 24.254 24.254C24.332 24.176 24.3939 24.0834 24.4361 23.9815C24.4783 23.8796 24.5 23.7703 24.5 23.66C24.5 23.5497 24.4783 23.4404 24.4361 23.3385C24.3939 23.2366 24.332 23.144 24.254 23.066L21.277 20.089V20.089ZM21.98 13.58C21.98 15.8078 21.095 17.9444 19.5197 19.5197C17.9444 21.095 15.8078 21.98 13.58 21.98C11.3522 21.98 9.21561 21.095 7.6403 19.5197C6.065 17.9444 5.18 15.8078 5.18 13.58C5.18 11.3522 6.065 9.21561 7.6403 7.6403C9.21561 6.065 11.3522 5.18 13.58 5.18C15.8078 5.18 17.9444 6.065 19.5197 7.6403C21.095 9.21561 21.98 11.3522 21.98 13.58V13.58Z" fill="#050506"/>
</svg>
