<svg width="28" height="28" viewBox="0 0 28 28" xmlns="http://www.w3.org/2000/svg">
    <g fill="none" fill-rule="evenodd">
        <path d="M5.893 4.846A3.5 3.5 0 0 0 3.5 8.166v6.228c0 6.419 6.487 10.315 9.263 11.69a2.773 2.773 0 0 0 2.474 0c2.776-1.375 9.263-5.271 9.263-11.69V8.167a3.5 3.5 0 0 0-2.393-3.32l-7-2.334a3.5 3.5 0 0 0-2.214 0l-7 2.333z" fill="currentColor"/>
        <path d="M0 0h28v28H0z"/>
        <path d="M12.893 2.513a3.5 3.5 0 0 1 2.214 0l7 2.333a3.5 3.5 0 0 1 2.393 3.32v6.228c0 6.419-6.487 10.315-9.263 11.69a2.773 2.773 0 0 1-2.474 0C9.987 24.708 3.5 20.812 3.5 14.393V8.167a3.5 3.5 0 0 1 2.393-3.32zm.554 1.66-7 2.333a1.75 1.75 0 0 0-1.197 1.66v6.228c0 2.575 1.293 4.733 3.071 6.493 1.781 1.762 3.912 2.981 5.218 3.627.296.147.626.147.922 0 1.306-.646 3.437-1.865 5.218-3.627 1.778-1.76 3.071-3.918 3.071-6.493V8.167a1.75 1.75 0 0 0-1.197-1.66l-7-2.334a1.75 1.75 0 0 0-1.106 0zm4.672 7.269a.875.875 0 0 1 0 1.237l-4.007 4.007a1.808 1.808 0 0 1-2.557 0L9.88 15.013a.875.875 0 1 1 1.238-1.238l1.673 1.674c.023.022.06.022.083 0l4.006-4.007a.875.875 0 0 1 1.238 0z" fill="#050506"/>
    </g>
</svg>
